<svg width="270" height="152" viewBox="0 0 270 152" fill="none" xmlns="http://www.w3.org/2000/svg">
<g clip-path="url(#clip0_581_10918)">
<rect width="270" height="152" rx="12" fill="#514DF3" fill-opacity="0.05"/>
<g opacity="0.4">
<g style="mix-blend-mode:screen" opacity="0.49">
<path d="M267.768 128.646H268.88V208.315H267.768V128.646Z" fill="#514DF3"/>
<path d="M265.252 109.856H266.364V222.567H265.252V109.856Z" fill="#514DF3"/>
<path d="M262.758 132.775H263.87V202.825H262.758V132.775Z" fill="#514DF3"/>
<path d="M260.246 130.745H261.358V203.931H260.246V130.745Z" fill="#514DF3"/>
<path d="M257.734 112.456H258.846V221.482H257.734V112.456Z" fill="#514DF3"/>
<path d="M255.263 128.159H256.375V206.003H255.263V128.159Z" fill="#514DF3"/>
<path d="M252.756 123.187H253.868V210.82H252.756V123.187Z" fill="#514DF3"/>
<path d="M250.252 132.276H251.364V205.431H250.252V132.276Z" fill="#514DF3"/>
<path d="M247.726 104.229H248.838V228.798H247.726V104.229Z" fill="#514DF3"/>
<path d="M245.249 119.103H246.361V217.426H245.249V119.103Z" fill="#514DF3"/>
<path d="M242.747 118.283H243.859V217.38H242.747V118.283Z" fill="#514DF3"/>
<path d="M240.222 107.979H241.334V226.466H240.222V107.979Z" fill="#514DF3"/>
<path d="M237.732 121.583H238.844V212.131H237.732V121.583Z" fill="#514DF3"/>
<path d="M235.21 115.359H236.322V217.983H235.21V115.359Z" fill="#514DF3"/>
<path d="M232.712 108.865H233.824V228.409H232.712V108.865Z" fill="#514DF3"/>
<path d="M230.206 106.09H231.318V231.654H230.206V106.09Z" fill="#514DF3"/>
<path d="M227.703 131.761H228.815V204.575H227.703V131.761Z" fill="#514DF3"/>
<path d="M225.221 132.245H226.333V203.335H225.221V132.245Z" fill="#514DF3"/>
<path d="M222.723 134.542H223.835V202.671H222.723V134.542Z" fill="#514DF3"/>
<path d="M220.614 108.485H221.726V225.628H220.614V108.485Z" fill="#514DF3"/>
<path d="M218.121 115.86H219.233V217.98H218.121V115.86Z" fill="#514DF3"/>
<path d="M215.624 135.934H216.736V201.707H215.624V135.934Z" fill="#514DF3"/>
<path d="M213.112 125.016H214.224V211.889H213.112V125.016Z" fill="#514DF3"/>
<path d="M210.629 112.342H211.741V224.656H210.629V112.342Z" fill="#514DF3"/>
<path d="M208.103 134.916H209.215V202.744H208.103V134.916Z" fill="#514DF3"/>
<path d="M205.61 123.416H206.722V209.794H205.61V123.416Z" fill="#514DF3"/>
<path d="M203.111 108.866H204.223V225.918H203.111V108.866Z" fill="#514DF3"/>
<path d="M200.624 110.274H201.736V223.621H200.624V110.274Z" fill="#514DF3"/>
<path d="M198.095 115.5H199.207V220.198H198.095V115.5Z" fill="#514DF3"/>
<path d="M195.619 135.713H196.731V201.113H195.619V135.713Z" fill="#514DF3"/>
<path d="M193.119 105.358H194.231V230.578H193.119V105.358Z" fill="#514DF3"/>
<path d="M190.607 113.283H191.719V221.904H190.607V113.283Z" fill="#514DF3"/>
<path d="M188.09 130.017H189.202V206.826H188.09V130.017Z" fill="#514DF3"/>
<path d="M185.599 106.693H186.711V201.668H185.599V106.693Z" fill="#514DF3"/>
<path d="M183.093 120.262H184.205V191.432H183.093V120.262Z" fill="#514DF3"/>
<path d="M180.583 103.196H181.695V208.677H180.583V103.196Z" fill="#514DF3"/>
<path d="M178.103 118.78H179.215V189.21H178.103V118.78Z" fill="#514DF3"/>
<path d="M175.581 121.625H176.693V186.023H175.581V121.625Z" fill="#514DF3"/>
<path d="M173.09 122.792H174.202V187.596H173.09V122.792Z" fill="#514DF3"/>
<path d="M170.585 99.707H171.697V211.968H170.585V99.707Z" fill="#514DF3"/>
<path d="M168.062 95.0459H169.174V216.88H168.062V95.0459Z" fill="#514DF3"/>
<path d="M165.573 92.3301H166.685V216.321H165.573V92.3301Z" fill="#514DF3"/>
<path d="M163.075 93.5576H164.188V212.788H163.075V93.5576Z" fill="#514DF3"/>
<path d="M160.581 112.429H161.693V195.701H160.581V112.429Z" fill="#514DF3"/>
<path d="M158.071 113.566H159.183V197.373H158.071V113.566Z" fill="#514DF3"/>
<path d="M155.556 114.104H156.668V197.254H155.556V114.104Z" fill="#514DF3"/>
<path d="M153.082 119.151H154.194V192.233H153.082V119.151Z" fill="#514DF3"/>
<path d="M150.559 93.3418H151.671V217.395H150.559V93.3418Z" fill="#514DF3"/>
<path d="M148.048 92.3711H149.16V217.414H148.048V92.3711Z" fill="#514DF3"/>
<path d="M145.566 102.088H146.678V205.43H145.566V102.088Z" fill="#514DF3"/>
<path d="M143.039 107.12H144.151V204.592H143.039V107.12Z" fill="#514DF3"/>
<path d="M140.535 110.133H141.647V198.722H140.535V110.133Z" fill="#514DF3"/>
<path d="M138.057 94.4707H139.169V214.386H138.057V94.4707Z" fill="#514DF3"/>
<path d="M135.554 102.951H136.666V203.788H135.554V102.951Z" fill="#514DF3"/>
<path d="M133.554 108.803H134.666V201.164H133.554V108.803Z" fill="#514DF3"/>
<path d="M131.071 91.3779H132.183V217.321H131.071V91.3779Z" fill="#514DF3"/>
<path d="M128.55 88.6143H129.662V212.615H128.55V88.6143Z" fill="#514DF3"/>
<path d="M126.065 102.939H127.177V196.843H126.065V102.939Z" fill="#514DF3"/>
<path d="M123.555 106.344H124.667V195.261H123.555V106.344Z" fill="#514DF3"/>
<path d="M121.057 95.833H122.169V206.671H121.057V95.833Z" fill="#514DF3"/>
<path d="M118.57 117.854H119.682V184.681H118.57V117.854Z" fill="#514DF3"/>
<path d="M116.066 95.8447H117.178V202.231H116.066V95.8447Z" fill="#514DF3"/>
<path d="M113.536 106.388H114.648V195.025H113.536V106.388Z" fill="#514DF3"/>
<path d="M111.057 109.327H112.169V192.063H111.057V109.327Z" fill="#514DF3"/>
<path d="M108.541 101.247H109.653V202.382H108.541V101.247Z" fill="#514DF3"/>
<path d="M106.05 101.376H107.162V199.613H106.05V101.376Z" fill="#514DF3"/>
<path d="M103.554 116.396H104.666V186.104H103.554V116.396Z" fill="#514DF3"/>
<path d="M101.052 115.532H102.164V184.524H101.052V115.532Z" fill="#514DF3"/>
<path d="M98.5472 91.9814H99.6592V210.148H98.5472V91.9814Z" fill="#514DF3"/>
<path d="M96.0472 96.2021H97.1592V206.238H96.0472V96.2021Z" fill="#514DF3"/>
<path d="M93.5237 97.3711H94.6357V200.883H93.5237V97.3711Z" fill="#514DF3"/>
<path d="M91.0218 103.975H92.1338V197.432H91.0218V103.975Z" fill="#514DF3"/>
<path d="M88.5364 91.2393H89.6484V211.567H88.5364V91.2393Z" fill="#514DF3"/>
<path d="M86.0325 84.9385H87.1445V188.562H86.0325V84.9385Z" fill="#514DF3"/>
<path d="M83.511 62.9365H84.623V204.341H83.511V62.9365Z" fill="#514DF3"/>
<path d="M81.0042 91.8438H82.1162V177.329H81.0042V91.8438Z" fill="#514DF3"/>
<path d="M78.5052 82.3467H79.6172V189.294H78.5052V82.3467Z" fill="#514DF3"/>
<path d="M76.0149 65.7412H77.127V208.275H76.0149V65.7412Z" fill="#514DF3"/>
<path d="M73.5227 67.9326H74.6348V202.711H73.5227V67.9326Z" fill="#514DF3"/>
<path d="M71.0247 59.8936H72.1367V214.476H71.0247V59.8936Z" fill="#514DF3"/>
<path d="M68.4915 88.1025H69.6035V183.848H68.4915V88.1025Z" fill="#514DF3"/>
<path d="M65.9954 79.0488H67.1074V194.885H65.9954V79.0488Z" fill="#514DF3"/>
<path d="M63.4944 79.1904H64.6064V190.968H63.4944V79.1904Z" fill="#514DF3"/>
<path d="M60.9934 61.1074H62.1055V208.509H60.9934V61.1074Z" fill="#514DF3"/>
<path d="M58.4876 75.0996H59.5996V193.645H58.4876V75.0996Z" fill="#514DF3"/>
<path d="M56.0042 65.0547H57.1162V208.066H56.0042V65.0547Z" fill="#514DF3"/>
<path d="M53.4798 69.2568H54.5918V202.392H53.4798V69.2568Z" fill="#514DF3"/>
<path d="M50.9739 82.2197H52.0859V188.579H50.9739V82.2197Z" fill="#514DF3"/>
<path d="M48.4935 90.6641H49.6055V181.957H48.4935V90.6641Z" fill="#514DF3"/>
<path d="M46.3939 96.0908H47.5059V175.501H46.3939V96.0908Z" fill="#514DF3"/>
<path d="M43.8938 75.0645H45.0059V196.748H43.8938V75.0645Z" fill="#514DF3"/>
<path d="M41.3841 61.8359H42.4961V208.31H41.3841V61.8359Z" fill="#514DF3"/>
<path d="M38.8948 93.7451H40.0068V177.501H38.8948V93.7451Z" fill="#514DF3"/>
<path d="M36.3841 66.6006H37.4961V206.034H36.3841V66.6006Z" fill="#514DF3"/>
<path d="M33.8773 77.1455H34.9893V196.495H33.8773V77.1455Z" fill="#514DF3"/>
<path d="M31.3753 67.6006H32.4873V203.533H31.3753V67.6006Z" fill="#514DF3"/>
<path d="M28.8821 81.5439H29.9941V189.459H28.8821V81.5439Z" fill="#514DF3"/>
<path d="M26.3811 67.1172H27.4932V201.386H26.3811V67.1172Z" fill="#514DF3"/>
<path d="M23.8958 79.3955H25.0078V188.556H23.8958V79.3955Z" fill="#514DF3"/>
<path d="M21.3753 60.8926H22.4873V212.88H21.3753V60.8926Z" fill="#514DF3"/>
<path d="M18.8626 84.7256H19.9746V186.468H18.8626V84.7256Z" fill="#514DF3"/>
<path d="M16.3753 76.6885H17.4873V196.944H16.3753V76.6885Z" fill="#514DF3"/>
<path d="M13.8763 80.0381H14.9883V189.222H13.8763V80.0381Z" fill="#514DF3"/>
<path d="M11.3714 68.8066H12.4834V204.527H11.3714V68.8066Z" fill="#514DF3"/>
<path d="M8.87335 87.8457H9.98535V184.094H8.87335V87.8457Z" fill="#514DF3"/>
<path d="M6.37921 94.2266H7.49121V178.751H6.37921V94.2266Z" fill="#514DF3"/>
<path d="M3.85284 78.1855H4.96484V196.316H3.85284V78.1855Z" fill="#514DF3"/>
<path d="M1.36356 94.0781H2.47559V178.159H1.36356V94.0781Z" fill="#514DF3"/>
</g>
</g>
</g>
<defs>
<clipPath id="clip0_581_10918">
<rect width="270" height="152" rx="12" fill="white"/>
</clipPath>
</defs>
</svg>
