<svg width="223" height="100" viewBox="0 0 223 100" fill="none" xmlns="http://www.w3.org/2000/svg">
<g clip-path="url(#clip0_581_10180)">
<rect width="223" height="100" rx="12" fill="#0F121E" fill-opacity="0.2"/>
<g opacity="0.8" filter="url(#filter0_f_581_10180)">
<circle cx="118.5" cy="10.5" r="43.5" fill="#514DF3"/>
</g>
<path d="M159.359 39.333C159.359 39.333 159.359 54.1485 159.359 54.1485C159.359 54.8805 159.755 55.3082 160.163 55.5774C160.6 55.8614 161.242 56.0036 162.107 56.0036C162.654 56.0036 163.377 55.8281 163.377 55.8281C163.377 55.8281 163.377 54.4995 163.377 54.4995C163.16 54.5125 162.968 54.5245 162.755 54.5245C161.467 54.5245 161.277 54.0381 161.277 53.4967C161.277 53.4967 161.277 39.333 161.277 39.333L159.359 39.333ZM118.837 39.4834C117.391 39.4834 116.083 39.922 115.155 40.7118C114.254 41.4821 113.755 42.5455 113.755 43.6949C113.755 44.9609 114.285 45.95 115.389 46.7282C116.362 47.4154 117.649 47.8591 118.889 48.2825C121.043 49.0235 123.063 49.6999 123.063 51.5915C123.063 52.4328 122.767 53.154 122.207 53.6471C121.592 54.1894 120.707 54.4493 119.537 54.4493C117.486 54.4493 115.993 53.3515 115.155 51.2155C115.155 51.2155 113.314 51.6918 113.314 51.6918C113.711 52.5581 114.385 53.8082 115.363 54.6499C116.434 55.5795 117.764 56.0287 119.433 56.0287C121.409 56.0287 122.909 55.5358 123.892 54.5496C124.911 53.523 125.137 52.2092 125.137 51.2907C125.137 49.9746 124.561 48.9583 123.4 48.1571C122.385 47.4537 121.073 47.0003 119.796 46.5778C117.715 45.8898 115.729 45.235 115.752 43.5445C115.759 42.7563 116.042 42.1427 116.555 41.7145C117.079 41.2796 117.825 41.0627 118.785 41.0627C119.793 41.0627 120.693 41.3353 121.377 41.8649C122.007 42.3473 122.466 43.0632 122.674 43.8704C122.674 43.8704 124.463 43.6448 124.463 43.6448C123.678 41.0577 121.76 39.4834 118.837 39.4834ZM36.833 39.709V55.803H38.7515V41.0878L38.8034 41.1379L43.3663 55.803H44.8441L49.433 41.1379L49.4589 41.0878V55.803H51.3775V39.709H48.1886L44.1182 52.6444V52.6945L44.0923 52.6444L40.0219 39.709H36.833ZM128.17 40.0349V43.8955H126.329V45.3745C126.329 45.3745 128.17 45.3745 128.17 45.3745C128.17 45.3745 128.17 53.6467 128.17 54.1485C128.17 54.8805 128.515 55.3082 128.922 55.5774C129.36 55.8614 130 56.0036 130.866 56.0036C131.414 56.0036 132.163 55.8281 132.163 55.8281C132.163 55.8281 132.163 54.4995 132.163 54.4995C131.95 54.5125 131.727 54.5245 131.515 54.5245C130.225 54.5245 130.089 54.0381 130.089 53.4967C130.089 53.4967 130.089 45.3745 130.089 45.3745H132.163V43.8955H130.089V40.0349H128.17ZM59.1552 43.6699C57.5397 43.6699 56.1705 44.2993 55.2145 45.4748C54.3272 46.5719 53.8404 48.1217 53.8404 49.8367C53.8404 51.5533 54.3272 53.1003 55.2145 54.1987C56.1705 55.3773 57.5397 56.0036 59.1552 56.0036C60.7774 56.0036 62.1424 55.3773 63.096 54.1987C63.9834 53.1003 64.47 51.5533 64.47 49.8367C64.47 48.1217 63.9834 46.5719 63.096 45.4748C62.1424 44.2993 60.7774 43.6699 59.1552 43.6699ZM169.833 43.6949C169.013 43.6949 168.25 43.8407 167.603 44.1211C166.97 44.3971 166.407 44.8127 165.97 45.3495C165.1 46.403 164.596 47.967 164.596 49.8618C164.596 51.9706 165.223 53.5797 166.359 54.6499C167.558 55.7811 169.085 56.0036 170.144 56.0036C172.897 56.0036 174.247 54.5635 174.811 53.2461C174.811 53.2461 173.281 52.5191 173.281 52.5191C172.909 53.3212 172.055 54.5496 170.144 54.5496C169.052 54.5496 168.159 54.1173 167.526 53.3213C166.914 52.5509 166.57 51.4846 166.566 50.2128C166.566 50.2128 174.966 50.2128 174.966 50.2128C174.966 50.2128 174.966 49.0847 174.966 49.0847C174.966 47.136 174.43 45.6829 173.437 44.798C172.591 44.0462 171.405 43.6949 169.833 43.6949ZM78.8071 43.72C76.6426 43.72 73.57 45.1282 73.57 49.8618C73.57 54.4579 76.633 56.0036 78.7034 56.0036C79.9117 56.0036 81.0097 55.3563 81.7626 54.4243C81.7626 54.4243 81.8664 54.3741 81.8664 54.3741C81.8664 54.3741 81.8664 56.6303 81.8664 56.6303C81.8664 58.2127 80.45 59.1873 78.9367 59.1873C77.4655 59.1873 76.1631 58.9157 75.0997 58.4352C75.0997 58.4352 75.0997 60.0396 75.0997 60.0396C75.9951 60.4108 77.4524 60.6413 78.7034 60.6413C82.109 60.6413 83.733 58.8289 83.733 56.2041C83.733 56.2041 83.733 43.9456 83.733 43.9456H82.3071L81.8923 45.199C81.1884 44.3123 80.2669 43.72 78.8071 43.72ZM91.1997 43.72C88.4749 43.72 87.1848 45.2983 86.6367 46.277L88.1663 47.0541C88.381 46.4949 89.1538 45.199 91.2256 45.199C92.8592 45.199 93.6886 45.8962 93.6886 47.2797V47.7059C93.6886 47.7059 93.7019 47.8354 93.6626 47.8814C93.602 47.9555 93.4299 48.016 93.0145 48.0569C90.7272 48.3036 89.2069 48.6669 88.0886 49.3604C86.8745 50.1149 86.1182 51.1713 86.1182 52.6193C86.1182 53.648 86.6333 54.5259 87.3108 55.1513C87.9408 55.7272 88.7991 56.0268 89.7478 56.0537C91.7672 56.1164 93.0965 55.3037 93.7404 54.3491C93.7904 55.005 94.0335 55.3798 94.57 55.6526C95.074 55.9129 95.9005 55.8611 96.2552 55.778C96.2552 55.778 96.2552 54.5245 96.2552 54.5245C95.8276 54.5039 95.5552 54.3073 95.5552 53.7976C95.5552 53.7976 95.5552 48.0569 95.5552 48.0569C95.5552 48.0569 95.5552 47.3048 95.5552 47.3048C95.5552 46.1201 95.0744 45.1483 94.1552 44.5222C93.3974 44.0022 92.3384 43.72 91.1997 43.72H91.1997ZM104.396 43.72C103.147 43.72 101.87 44.3454 100.792 45.5249V43.9456H98.8738V55.8281H100.792C100.792 55.8281 100.792 47.004 100.792 47.004C101.445 46.3295 102.908 45.199 104.24 45.199C105.576 45.199 106.159 45.8324 106.159 47.2547C106.159 47.2547 106.159 55.8281 106.159 55.8281H108.077V47.2045C108.077 44.6372 106.189 43.72 104.396 43.72ZM139.111 43.72C136.388 43.72 135.098 45.2983 134.548 46.277C134.548 46.277 136.077 47.0541 136.077 47.0541C136.293 46.4949 137.065 45.199 139.137 45.199C140.77 45.199 141.6 45.8962 141.6 47.2797C141.6 47.2797 141.6 47.7059 141.6 47.7059C141.6 47.7059 141.586 47.8354 141.548 47.8814C141.488 47.9555 141.343 48.016 140.926 48.0569C138.638 48.3032 137.118 48.6669 136 49.3604C134.786 50.1149 134.029 51.1713 134.029 52.6193C134.029 53.648 134.543 54.5255 135.222 55.1513C135.852 55.7272 136.711 56.0268 137.659 56.0537C139.677 56.1164 141.008 55.3037 141.652 54.3491C141.702 55.0047 141.944 55.3798 142.481 55.6526C142.984 55.9129 143.811 55.8611 144.166 55.778C144.166 55.778 144.166 54.5245 144.166 54.5245C143.74 54.5039 143.466 54.3073 143.466 53.7976C143.466 53.7976 143.466 48.0569 143.466 48.0569C143.466 48.0569 143.466 47.3048 143.466 47.3048C143.466 46.1201 142.96 45.1483 142.04 44.5222C141.282 44.0022 140.249 43.72 139.111 43.72ZM152.307 43.72C151.055 43.72 149.781 44.3454 148.703 45.5249V43.9456H146.785V55.8281H148.703C148.703 55.8281 148.703 47.004 148.703 47.004C149.357 46.3291 150.818 45.199 152.152 45.199C153.484 45.199 154.07 45.8324 154.07 47.2547V55.8281H155.989V47.2045C155.989 44.6372 154.1 43.72 152.307 43.72ZM72.8441 43.7701C70.8976 43.7701 69.744 44.4999 68.7478 46.2269V46.1015V43.9456H66.8293V55.803H68.7478C68.7478 55.8031 68.7478 49.0847 68.7478 49.0847C69.2214 46.6441 70.5578 45.4999 72.8441 45.4999V43.7701ZM176.263 43.9206L180.54 55.7028C180.54 55.7028 180.54 55.803 180.54 55.803C180.285 56.9323 179.545 58.3262 178.881 58.7611C178.294 59.1461 177.659 59.1873 177.17 59.1873C176.934 59.1873 176.446 59.1102 176.237 59.062V60.4909C176.502 60.5538 177.115 60.6663 177.507 60.6663C178.421 60.6663 179.192 60.445 179.84 59.9895C180.616 59.4441 181.476 58.0228 181.889 56.8058C181.889 56.8058 186.166 43.9206 186.166 43.9206H184.3L181.5 53.0455L181.474 53.246L181.422 53.0455L178.129 43.9206H176.263ZM59.1552 45.1489C61.2206 45.1489 62.4478 46.9018 62.4478 49.8367C62.4478 52.7725 61.2206 54.5245 59.1552 54.5245C57.0932 54.5245 55.8626 52.7725 55.8626 49.8367C55.8626 46.9018 57.0932 45.1489 59.1552 45.1489ZM78.9367 45.174C80.0191 45.174 80.9693 45.6262 81.8664 46.7032C81.8664 46.7032 81.8664 52.3687 81.8664 52.3687C81.3698 53.7352 79.9477 54.5245 78.9367 54.5245C76.9583 54.5245 75.5923 53.3333 75.5923 49.7615C75.5923 46.7581 76.8182 45.174 78.9367 45.174ZM169.885 45.174C172.083 45.174 173.066 46.2978 173.074 48.7337C173.074 48.7337 166.618 48.7337 166.618 48.7337C166.785 46.2998 167.84 45.174 169.885 45.174ZM93.7404 49.3604C93.7404 49.3604 93.7404 52.3687 93.7404 52.3687C93.652 53.4072 91.6448 54.6642 90.0071 54.5747C89.1035 54.5268 88.2329 53.8233 88.1404 52.6695C87.9905 50.7414 89.4888 49.9409 92.833 49.586C93.0656 49.5655 93.5159 49.4856 93.7404 49.3604ZM141.652 49.3604C141.652 49.3604 141.652 52.3687 141.652 52.3687C141.563 53.4068 139.556 54.6642 137.918 54.5747C137.016 54.5264 136.142 53.8229 136.052 52.6695C135.899 50.7414 137.399 49.9409 140.744 49.586C140.975 49.5655 141.429 49.4856 141.652 49.3604Z" fill="white"/>
</g>
<rect x="0.5" y="0.5" width="222" height="99" rx="11.5" stroke="url(#paint0_linear_581_10180)"/>
<defs>
<filter id="filter0_f_581_10180" x="-125" y="-233" width="487" height="487" filterUnits="userSpaceOnUse" color-interpolation-filters="sRGB">
<feFlood flood-opacity="0" result="BackgroundImageFix"/>
<feBlend mode="normal" in="SourceGraphic" in2="BackgroundImageFix" result="shape"/>
<feGaussianBlur stdDeviation="100" result="effect1_foregroundBlur_581_10180"/>
</filter>
<linearGradient id="paint0_linear_581_10180" x1="111.5" y1="0" x2="111.5" y2="100" gradientUnits="userSpaceOnUse">
<stop stop-color="#514DF3" stop-opacity="0.2"/>
<stop offset="1" stop-color="#514DF3" stop-opacity="0.05"/>
</linearGradient>
<clipPath id="clip0_581_10180">
<rect width="223" height="100" rx="12" fill="white"/>
</clipPath>
</defs>
</svg>
