<svg width="223" height="100" viewBox="0 0 223 100" fill="none" xmlns="http://www.w3.org/2000/svg">
<g clip-path="url(#clip0_581_10184)">
<rect width="223" height="100" rx="12" fill="#0F121E" fill-opacity="0.2"/>
<g opacity="0.8" filter="url(#filter0_f_581_10184)">
<circle cx="118.5" cy="10.5" r="43.5" fill="#514DF3"/>
</g>
<g clip-path="url(#clip1_581_10184)">
<path d="M70.4279 48.2946V52.8168H69.6433C68.8586 49.5823 68.3094 49.1531 65.5867 49.1531H62.5893V56.0513C66.3556 55.9976 66.9284 55.4151 67.0304 53.3456H67.8857V59.5847H67.0226C66.9284 57.5535 66.3164 56.9634 62.5893 56.9404V64.858H63.0837C68.89 64.858 69.557 63.5396 69.9885 60.4891H70.8516L70.4122 65.7164H57.6069V64.858H59.8823V49.1224H57.6069V48.2946H70.4279ZM156.825 42.1782H185.653V43.0443H156.817L156.825 42.1782ZM153.851 34L133.796 42.2242H36.5V43.0673H133.976L154.196 34.8048L153.851 34.0383M47.5791 65.2182C46.0137 65.6217 44.3944 65.7897 42.7771 65.7164H36.5V64.858H38.7755V49.1224H36.5V48.2946H42.7771C44.3884 48.2193 46.002 48.3821 47.5635 48.7775C51.0943 49.8046 52.899 52.6098 52.899 57.0093C52.899 61.4089 51.0943 64.2141 47.5635 65.2412M46.9357 49.7586C45.6059 49.2813 44.1927 49.0651 42.7771 49.1224H41.4903V64.858H42.7771C44.19 64.9265 45.603 64.7234 46.9357 64.2601C49.015 63.3174 49.8938 61.1943 49.8938 57.0017C49.8938 52.8091 49.0543 50.709 46.9514 49.7586H46.9357ZM129.598 65.7317L132.399 54.0201H134.149V53.1617H129.284V54.0201H131.442L129.245 63.1028L128.727 61.0333L126.726 54.3497H124.906L122.34 63.1257L121.908 61.018L120.206 54.0201H122.144V53.1617H116.18V54.0201H117.875L120.755 65.7241H122.575L125.165 56.7334L125.753 59.0328L127.77 65.7164H129.574M180.537 52.9547C184.578 52.9547 186.5 54.9705 186.5 59.4697C186.5 63.9689 184.578 65.9847 180.537 65.9847C176.496 65.9847 174.597 63.8922 174.597 59.4314C174.597 54.9705 176.496 52.9164 180.537 52.9164M180.537 53.7595C179.077 53.7595 177.265 54.434 177.265 59.4314C177.265 64.4287 179.085 65.1032 180.537 65.1032C181.988 65.1032 183.832 64.4134 183.832 59.4314C183.832 54.4493 182.004 53.7212 180.537 53.7212V53.7595ZM172.541 48.8081C170.931 48.25 169.228 47.99 167.52 48.0417C161.556 48.0417 158.551 51.1689 158.551 57.0093C158.551 62.7119 161.533 65.977 167.52 65.977C169.235 65.997 170.936 65.6736 172.518 65.0266L172.91 60.5274H172.047C171.474 63.417 169.905 65.0649 167.339 65.0649C166.707 65.1092 166.072 65.0303 165.471 64.8329C164.87 64.6356 164.316 64.3236 163.84 63.9152C162.49 62.6505 161.768 60.3895 161.768 57.017C161.768 53.6446 162.506 51.2148 163.989 49.9655C164.844 49.2668 165.935 48.9035 167.049 48.9461C169.795 48.9461 171.286 50.617 171.757 52.7784H172.541V48.7928M87.4076 48.8695C85.9765 48.3322 84.4522 48.0719 82.9194 48.103C79.1767 48.103 77.0346 49.8659 77.0346 52.6481C77.0346 55.1392 78.4156 56.4038 80.7852 57.3696L83.2176 58.366C83.2176 58.366 85.7284 60.2822 85.7284 61.8917C85.7284 63.9612 84.5358 65.1109 82.276 65.1109C80.0162 65.1109 78.1959 63.4783 77.5132 60.5121H76.7286L77.1209 65.0572C78.6027 65.6958 80.2096 66.0097 81.8288 65.977C85.65 65.977 88.2001 64.0608 88.2001 60.765C88.2001 57.9674 86.6308 56.856 84.2768 55.9056L81.9229 54.9552C80.2752 54.3037 79.569 53.4836 79.569 51.7207C79.569 49.9578 80.9029 48.9614 82.6056 48.9614C84.8182 48.9614 86.0737 50.2874 86.5758 52.8398H87.4154V48.8541M101.625 56.4575C101.625 53.9281 99.9775 52.8551 98.0944 52.8551C97.2382 52.8286 96.3905 53.0283 95.6407 53.4329C94.8908 53.8376 94.2666 54.4324 93.8338 55.1545V48.2563H89.6203V49.1224H91.37V64.8656H89.6203V65.7241H95.6855V64.858H93.8573V57.9598C93.8381 57.1341 94.0468 56.3187 94.4615 55.599C94.7346 55.1275 95.1284 54.7334 95.6043 54.4553C96.0802 54.1771 96.6219 54.0246 97.1764 54.0125C98.4553 54.0125 99.1615 54.8862 99.1615 56.4651V64.8963H97.3333V65.7394H103.375V64.8503H101.625V56.4192M114.65 61.8534V56.3348C114.65 53.8055 112.783 52.9011 109.895 52.9011C107.008 52.9011 105.031 53.8975 105.031 55.6987C105.033 56.0377 105.17 56.3626 105.413 56.6044C105.656 56.8463 105.986 56.986 106.333 56.994H106.49C106.716 57.0172 106.944 56.9876 107.155 56.9076C107.367 56.8276 107.555 56.6996 107.706 56.5341V55.9516C107.706 54.5107 108.428 53.7059 109.864 53.7059C110.169 53.6674 110.479 53.6967 110.77 53.7915C111.062 53.8864 111.328 54.0444 111.548 54.2537C111.768 54.463 111.937 54.7182 112.042 55.0003C112.147 55.2823 112.186 55.584 112.155 55.8826V57.7605L107.902 59.0865C106.725 59.5004 104.764 60.1825 104.764 62.4206C104.764 64.9193 106.537 66 108.86 66C110.743 66 111.998 65.3562 112.642 63.9689C112.995 65.5018 114.525 66.115 116.282 65.7701V65.0036C115.404 64.7353 114.713 63.6853 114.713 61.8611M112.241 61.8611C112.241 63.8999 111.394 64.8503 109.809 64.8503C108.397 64.8503 107.612 63.9305 107.612 62.3976C107.612 60.2285 108.766 59.8376 110.28 59.3317L112.241 58.6802V61.8611ZM151.003 63.509C151.779 62.7072 152.381 61.76 152.772 60.7245C153.164 59.689 153.336 58.5868 153.278 57.4845C153.26 56.4434 153.085 55.4104 152.76 54.4187H148.547V55.1851C149.031 55.1556 149.516 55.2204 149.974 55.3756C150.432 55.5309 150.854 55.7736 151.215 56.0896C151.54 56.4405 151.79 56.8525 151.948 57.3005C152.106 57.7484 152.168 58.2231 152.133 58.6956C152.131 60.2648 151.513 61.7735 150.406 62.9111C150.226 62.7272 149.912 62.4283 149.732 62.2366C147.121 59.6776 144.891 56.7723 143.109 53.6062C142.724 52.9155 142.509 52.1466 142.482 51.3605C142.456 51.0246 142.505 50.6872 142.624 50.3713C142.744 50.0555 142.932 49.7685 143.176 49.53C143.419 49.2914 143.712 49.1069 144.035 48.989C144.358 48.871 144.703 48.8224 145.047 48.8465C146.711 48.8465 148.005 49.8046 148.563 52.6788H149.347V48.8465C148.093 48.2902 146.722 48.0277 145.346 48.08C142.364 48.08 140.269 49.4596 140.269 52.2496C140.299 53.1792 140.526 54.0926 140.936 54.9322C139.904 55.2787 139.013 55.9405 138.395 56.8197C137.778 57.699 137.466 58.7491 137.507 59.8146C137.507 62.8345 139.861 66.0766 144.569 66.0766C146.191 66.121 147.796 65.7371 149.214 64.9653C150.505 65.6099 151.924 65.9758 153.372 66.0383L153.624 65.3638C152.684 64.8705 151.807 64.2711 151.011 63.578M145.91 64.9959C145.114 65.011 144.323 64.8717 143.582 64.5862C142.842 64.3008 142.166 63.8747 141.595 63.3327C140.445 62.1593 139.818 60.588 139.853 58.9638C139.8 58.3133 139.892 57.6593 140.122 57.0468C140.352 56.4342 140.716 55.8776 141.187 55.4151C142.844 58.4454 144.975 61.2047 147.503 63.5933C147.809 63.8946 148.134 64.1762 148.476 64.4364C147.682 64.8099 146.808 64.9938 145.926 64.9729L145.91 64.9959Z" fill="white"/>
</g>
</g>
<rect x="0.5" y="0.5" width="222" height="99" rx="11.5" stroke="url(#paint0_linear_581_10184)"/>
<defs>
<filter id="filter0_f_581_10184" x="-125" y="-233" width="487" height="487" filterUnits="userSpaceOnUse" color-interpolation-filters="sRGB">
<feFlood flood-opacity="0" result="BackgroundImageFix"/>
<feBlend mode="normal" in="SourceGraphic" in2="BackgroundImageFix" result="shape"/>
<feGaussianBlur stdDeviation="100" result="effect1_foregroundBlur_581_10184"/>
</filter>
<linearGradient id="paint0_linear_581_10184" x1="111.5" y1="0" x2="111.5" y2="100" gradientUnits="userSpaceOnUse">
<stop stop-color="#514DF3" stop-opacity="0.2"/>
<stop offset="1" stop-color="#514DF3" stop-opacity="0.05"/>
</linearGradient>
<clipPath id="clip0_581_10184">
<rect width="223" height="100" rx="12" fill="white"/>
</clipPath>
<clipPath id="clip1_581_10184">
<rect width="150" height="32" fill="white" transform="translate(36.5 34)"/>
</clipPath>
</defs>
</svg>
