<svg width="223" height="100" viewBox="0 0 223 100" fill="none" xmlns="http://www.w3.org/2000/svg">
<g clip-path="url(#clip0_581_10168)">
<rect width="223" height="100" rx="12" fill="#0F121E" fill-opacity="0.2"/>
<g opacity="0.8" filter="url(#filter0_f_581_10168)">
<circle cx="118.5" cy="10.5" r="43.5" fill="#514DF3"/>
</g>
<g clip-path="url(#clip1_581_10168)">
<path d="M103.219 53.5503H93.777V55.7114H94.0865C94.1639 55.4027 94.7057 54.7852 95.4022 54.7852H97.4919V65.8221H99.5816V54.7852H101.749C102.445 54.7852 102.91 55.1711 102.987 55.557V55.6342H103.296L103.219 53.5503ZM41.6905 52.8557C40.2974 54.2449 39.5234 56.2517 39.5234 58.1812C39.5234 60.4195 40.4522 62.4262 42.0001 63.8154C43.548 65.2047 45.6376 65.9765 47.8046 65.9765C48.9656 65.9765 51.21 65.745 53.4544 64.4329L53.5318 64.3557L53.764 61.2684L53.377 61.1913L53.2997 61.3456C51.6744 64.6644 49.1977 64.6644 48.1916 64.6644C43.9349 64.6644 42.0001 61.1141 42.0001 57.8725C42.0001 54.708 43.9349 51.4664 48.1916 51.4664C49.5073 51.4664 51.9066 51.9295 53.1449 54.7852L53.2223 54.9396L53.6092 54.7852L53.4544 51.6208L53.377 51.5436C51.3648 50.6946 49.7395 50.3087 48.1142 50.3087C45.4828 50.3859 43.2384 51.2349 41.6905 52.8557ZM55.8537 53.5503L55.7763 53.859C55.9311 53.9362 56.1632 54.3993 56.1632 54.9396V65.745H58.1755V60.1879H59.0268C59.8008 60.2651 60.1104 60.7282 60.5747 61.4228L60.6521 61.5L60.8843 61.9631C61.3487 62.6577 61.8904 63.6611 62.5096 64.5872C62.974 65.2819 63.5157 65.5906 64.2123 65.745C64.6766 65.8221 65.6828 65.8221 66.0697 65.6678L66.5341 65.5906L66.6889 65.5134L66.0697 65.3591C65.8376 65.2819 65.4506 65.1275 64.9088 64.5101C64.5992 64.1242 64.0575 63.2752 63.2835 62.0403L62.5096 60.8054C62.2774 60.4966 61.9678 60.0335 61.3487 59.6476C62.5096 59.2617 63.5931 58.2584 63.5931 56.7147C63.5931 56.2517 63.5157 55.4027 62.7418 54.708C61.9678 54.0134 60.8069 53.6275 59.1816 53.6275L55.8537 53.5503ZM59.3364 54.708C61.4261 54.7852 61.5035 56.5604 61.5035 56.7919C61.5035 58.5671 60.1878 59.1846 59.1042 59.1846H58.2529V54.7852C58.4851 54.708 58.8721 54.6309 59.3364 54.708ZM76.6728 53.5503V53.859C76.8276 53.9362 76.9824 54.3993 76.9824 54.7852V65.745H80.4651C82.787 65.745 84.6444 65.0503 85.9601 63.6611C87.0436 62.5033 87.6628 61.0369 87.6628 59.4161C87.6628 58.4899 87.3532 57.0235 86.4245 55.8658C85.1862 54.3221 83.3287 53.4731 80.7747 53.4731L76.6728 53.5503ZM79.072 54.7852H80.1555C80.4651 54.7852 81.1617 54.7852 81.7034 54.8624C85.1088 55.4027 85.4958 58.2584 85.4958 59.4933C85.4958 60.4966 85.341 61.8859 84.4896 63.0436C83.6383 64.1242 82.3226 64.6644 80.5425 64.6644H79.072V54.7852ZM91.9195 53.5503H89.5203V53.859C89.7525 53.9362 89.9072 54.3993 89.9072 54.8624V65.745H91.9195V53.5503ZM132.939 53.5503H130.539V53.859C130.772 53.9362 130.926 54.3993 130.926 54.8624V65.745H132.939V53.5503ZM74.0414 53.5503H67.2307L67.3081 53.859C67.4628 53.9362 67.695 54.3993 67.695 54.9396V65.745H74.5057L74.9701 63.5839L74.6605 63.5067L74.5831 63.6611C74.0414 64.5101 73.4222 64.6644 71.4874 64.6644C70.7908 64.6644 70.0943 64.5872 69.6299 64.5872V59.6476H73.1126V58.4899H69.6299V54.708H72.4161C73.0352 54.708 73.7318 55.3255 73.8092 55.7114V55.7886H74.1188L74.0414 53.5503ZM161.342 53.5503H154.532V53.859C154.686 53.9362 154.919 54.3221 154.919 54.9396V65.745H161.729L162.194 63.5839L161.884 63.5067L161.807 63.6611C161.265 64.5101 160.646 64.6644 158.711 64.6644C158.014 64.6644 157.318 64.5872 156.853 64.5872V59.6476H160.336V58.4899H156.853V54.708H159.64C160.414 54.708 160.955 55.3255 160.955 55.7114V55.7886H161.265L161.342 53.5503ZM109.178 51.3121C108.482 51.8523 107.631 52.7785 107.553 54.3993V54.4765C107.553 56.406 108.791 57.4866 110.804 58.4899C110.881 58.5671 111.036 58.6443 111.578 58.8758C113.28 59.7248 114.441 60.3423 114.441 62.0403C114.441 62.6577 114.209 63.5067 113.59 64.1242C113.048 64.6644 112.352 64.896 111.5 64.896C108.946 64.896 108.018 62.6577 107.785 61.6544L107.708 61.5L107.244 61.5772L107.398 64.7416L107.631 64.6644C108.482 65.1275 109.798 65.8993 111.81 65.9765C113.203 65.9765 114.596 65.4362 115.602 64.4329C116.454 63.5839 116.918 62.5033 116.918 61.3456C116.918 58.7986 115.06 57.7953 113.126 56.7919L112.739 56.5604C110.726 55.557 109.798 54.9396 109.798 53.7047C109.798 52.8557 110.494 51.4664 112.197 51.4664C114.209 51.4664 115.293 53.01 115.525 53.9362L115.602 54.0906L116.067 54.0134L115.912 51.2349L115.834 51.1577C114.673 50.3859 113.203 50.2315 112.584 50.2315C111.191 50.3087 110.03 50.6946 109.178 51.3121ZM136.267 56.6376C136.267 58.3356 137.273 59.1846 138.898 60.0335L139.517 60.3423C140.833 60.9597 141.684 61.4228 141.684 62.6577C141.684 62.8893 141.607 63.5839 141.065 64.2013C140.678 64.5872 140.136 64.8188 139.44 64.7416C137.505 64.7416 136.808 63.198 136.499 62.349L136.421 62.1946L136.034 62.2718L136.112 64.8188L136.189 64.896C136.808 65.2819 137.892 65.8993 139.517 65.8993C140.601 65.8993 141.762 65.4362 142.535 64.6644C143.232 63.9698 143.542 63.1208 143.542 62.1946C143.542 60.0335 142.071 59.2617 140.523 58.4899L140.214 58.3356C138.511 57.4866 137.969 57.1007 137.969 56.1745C137.969 55.4798 138.434 54.5537 139.827 54.5537C141.452 54.5537 142.149 55.7886 142.303 56.406L142.381 56.5604L142.768 56.4832L142.613 54.2449L142.535 54.1678C141.607 53.5503 140.446 53.4731 139.981 53.4731C138.201 53.4731 136.267 54.5537 136.267 56.6376ZM145.399 56.6376C145.399 58.3356 146.405 59.1846 148.03 60.0335L148.65 60.3423C149.965 60.9597 150.817 61.4228 150.817 62.6577C150.817 62.8893 150.739 63.5839 150.198 64.2013C149.811 64.5872 149.269 64.8188 148.572 64.7416C146.637 64.7416 145.941 63.198 145.631 62.349L145.554 62.1946L145.167 62.2718L145.244 64.8188L145.322 64.896C145.941 65.2819 147.024 65.8993 148.65 65.8993C149.733 65.8993 150.894 65.4362 151.668 64.6644C152.365 63.9698 152.674 63.1208 152.674 62.1946C152.674 60.0335 151.204 59.2617 149.656 58.4899L149.346 58.3356C147.644 57.4866 147.102 57.1007 147.102 56.1745C147.102 55.7886 147.257 55.3255 147.566 55.0168C147.876 54.708 148.34 54.5537 148.882 54.5537C150.507 54.5537 151.204 55.7886 151.358 56.406L151.436 56.5604L151.823 56.4832L151.668 54.2449L151.591 54.1678C150.662 53.5503 149.501 53.4731 149.037 53.4731C147.411 53.4731 145.399 54.5537 145.399 56.6376ZM127.908 53.5503H126.283V53.859C126.36 53.9362 126.592 54.0906 126.592 54.8624V61.8087C126.592 63.1208 126.128 64.7416 123.729 64.7416C121.484 64.7416 121.02 63.4295 121.02 61.4228V53.5503H118.466V53.859C118.621 53.9362 118.93 54.2449 118.93 54.9396V61.4228C118.93 65.4362 121.562 65.8993 123.574 65.8993C124.58 65.8993 127.753 65.5906 127.753 61.8087L127.908 53.5503ZM178.911 50.0772C180.381 50.5402 181.852 51.1577 183.477 52.0839C179.53 45.6006 172.565 38.5771 165.676 34.0234C167.457 35.7986 170.32 39.6577 171.094 43.7483C173.88 45.755 176.512 47.9161 178.911 50.0772ZM178.911 50.0772C175.506 48.9966 172.642 48.9194 170.552 49.151C171.326 47.3758 171.404 45.5235 171.094 43.7483C165.909 40.0436 160.104 36.802 154.609 34.4093C158.634 37.1107 163.122 45.0604 164.98 53.5503C169.004 52.3926 175.119 51.5436 183.09 54.2449C181.774 52.8557 180.381 51.4664 178.911 50.0772Z" fill="white"/>
</g>
</g>
<rect x="0.5" y="0.5" width="222" height="99" rx="11.5" stroke="url(#paint0_linear_581_10168)"/>
<defs>
<filter id="filter0_f_581_10168" x="-125" y="-233" width="487" height="487" filterUnits="userSpaceOnUse" color-interpolation-filters="sRGB">
<feFlood flood-opacity="0" result="BackgroundImageFix"/>
<feBlend mode="normal" in="SourceGraphic" in2="BackgroundImageFix" result="shape"/>
<feGaussianBlur stdDeviation="100" result="effect1_foregroundBlur_581_10168"/>
</filter>
<linearGradient id="paint0_linear_581_10168" x1="111.5" y1="0" x2="111.5" y2="100" gradientUnits="userSpaceOnUse">
<stop stop-color="#514DF3" stop-opacity="0.2"/>
<stop offset="1" stop-color="#514DF3" stop-opacity="0.05"/>
</linearGradient>
<clipPath id="clip0_581_10168">
<rect width="223" height="100" rx="12" fill="white"/>
</clipPath>
<clipPath id="clip1_581_10168">
<rect width="144" height="32" fill="white" transform="translate(39.5 34)"/>
</clipPath>
</defs>
</svg>
