<svg width="250" height="250" viewBox="0 0 250 250" fill="none" xmlns="http://www.w3.org/2000/svg">
<rect width="250" height="250" rx="8" fill="#04040C"/>
<path d="M96.2246 82.4855V181.987L155.909 176.795V156.895L116.119 160.356V140.455L155.909 136.994V117.094L116.119 120.555V100.655L136.014 98.9248L155.909 97.194V77.2938L116.119 80.7548L96.2246 82.4855Z" fill="white"/>
<path d="M155.909 97.194V117.094L175.801 115.364V95.4638L155.909 97.194Z" fill="white"/>
<path d="M155.909 136.994V156.895L175.801 155.164V135.264L155.909 136.994Z" fill="white"/>
<path d="M96.2246 181.987L95.8529 182.728L96.0623 182.833L96.2955 182.812L96.2246 181.987ZM155.909 77.2938L156.737 77.2936V76.7812L156.279 76.5524L155.909 77.2938ZM155.909 176.795L155.98 177.621L156.737 177.555V176.795L155.909 176.795ZM175.801 115.364L175.874 116.19L176.632 116.124V115.364L175.801 115.364ZM175.801 135.264L176.632 135.264V134.758L176.181 134.526L175.801 135.264ZM175.801 95.4638L176.632 95.4636V94.9507L176.173 94.7218L175.801 95.4638ZM175.801 155.164L175.874 155.99L176.632 155.924V155.164L175.801 155.164ZM116.119 140.455L116.047 139.629L115.289 139.695V140.455L116.119 140.455ZM116.119 160.356L115.289 160.355V161.26L116.19 161.182L116.119 160.356ZM116.119 120.555L115.289 120.555V121.459L116.19 121.381L116.119 120.555ZM116.119 100.655L116.047 99.829L115.289 99.8947V100.655L116.119 100.655ZM76.3289 72.5353L76.2572 71.7089L75.5 71.7747V72.5353H76.3289ZM76.3289 172.036H75.5V172.549L75.9582 172.778L76.3289 172.036ZM136.013 67.3463L136.384 66.6045L136.175 66.5L135.941 66.5205L136.013 67.3463ZM95.3947 82.4854V181.986H97.0526V82.4854H95.3947ZM96.2955 182.812L116.19 181.082L116.047 179.43L96.1518 181.16L96.2955 182.812ZM96.2955 83.3113L116.19 81.581L116.047 79.9288L96.1518 81.659L96.2955 83.3113ZM116.19 81.581L155.98 78.1201L155.836 76.4678L116.047 79.9288L116.19 81.581ZM116.19 181.082L155.98 177.621L155.836 175.969L116.047 179.43L116.19 181.082ZM155.079 156.894V176.795H156.737V156.894H155.079ZM155.079 97.1938V117.094H156.737V97.1938H155.079ZM155.98 117.92L175.874 116.19L175.731 114.538L155.836 116.268L155.98 117.92ZM155.079 136.994V156.894H156.737V136.994H155.079ZM155.98 137.821L175.874 136.09L175.731 134.438L155.836 136.168L155.98 137.821ZM174.974 95.4636V115.364H176.632V95.4636H174.974ZM155.98 98.0202L175.874 96.2895L175.731 94.6378L155.836 96.368L155.98 98.0202ZM174.974 135.264V155.164H176.632V135.264H174.974ZM155.98 157.721L175.874 155.99L175.731 154.338L155.836 156.069L155.98 157.721ZM116.19 121.381L155.98 117.92L155.836 116.268L116.047 119.729L116.19 121.381ZM116.19 161.182L155.98 157.721L155.836 156.069L116.047 159.53L116.19 161.182ZM96.5945 81.7436L76.6997 71.7935L75.9582 73.2766L95.8529 83.2267L96.5945 81.7436ZM75.5 72.5353V172.036H77.1579V72.5353H75.5ZM75.9582 172.778L95.8529 182.728L96.5945 181.245L76.6997 171.294L75.9582 172.778ZM155.079 117.094V125.05H156.737V117.094H155.079ZM155.079 125.05V136.994H156.737V125.05H155.079ZM176.181 134.526L156.286 124.312L155.529 125.787L175.424 136.001L176.181 134.526ZM155.079 77.2936V85.5257H156.737V77.2936H155.079ZM155.079 85.5257V97.1938H156.737V85.5257H155.079ZM176.173 94.7218L156.278 84.7839L155.538 86.2675L175.432 96.2055L176.173 94.7218ZM156.279 116.353L136.384 106.403L135.642 107.886L155.537 117.836L156.279 116.353ZM116.19 101.481L136.085 99.7505L135.941 98.0982L116.047 99.829L116.19 101.481ZM136.085 99.7505L155.98 98.0202L155.836 96.368L135.941 98.0982L136.085 99.7505ZM136.842 107.144V98.9246H135.184V107.144H136.842ZM116.947 120.555V109.48H115.289V120.555H116.947ZM116.947 109.48V100.655H115.289V109.48H116.947ZM135.916 106.321L116.022 108.656L116.215 110.304L136.11 107.968L135.916 106.321ZM156.279 156.153L136.384 146.195L135.642 147.678L155.537 157.636L156.279 156.153ZM116.19 141.282L136.085 139.551L135.941 137.899L116.047 139.629L116.19 141.282ZM136.085 139.551L155.98 137.821L155.836 136.168L135.941 137.899L136.085 139.551ZM136.842 146.936V138.725H135.184V146.936H136.842ZM116.947 160.355V149.372H115.289V160.355H116.947ZM116.947 149.372V140.455H115.289V149.372H116.947ZM135.913 146.113L116.018 148.549L116.219 150.195L136.114 147.759L135.913 146.113ZM156.279 76.5524L136.384 66.6045L135.642 68.0882L155.537 78.0355L156.279 76.5524ZM135.941 66.5205L76.2572 71.7089L76.4007 73.3612L136.085 68.1722L135.941 66.5205Z" fill="white"/>
</svg>
