<svg width="223" height="100" viewBox="0 0 223 100" fill="none" xmlns="http://www.w3.org/2000/svg">
<g clip-path="url(#clip0_581_10158)">
<rect width="223" height="100" rx="12" fill="#0F121E" fill-opacity="0.2"/>
<g opacity="0.8" filter="url(#filter0_f_581_10158)">
<circle cx="118.5" cy="10.5" r="43.5" fill="#514DF3"/>
</g>
<g clip-path="url(#clip1_581_10158)">
<path d="M58.2899 48.2867C58.7042 47.9338 58.9114 47.4398 58.9114 46.7969C58.9114 46.1696 58.7122 45.6991 58.3058 45.3698C57.8914 45.0404 57.2699 44.8679 56.4571 44.8679H52.919V48.8121H56.4571C57.254 48.8199 57.8675 48.6395 58.2899 48.2867ZM58.521 54.5518C58.9672 54.1284 59.1903 53.603 59.1903 52.9444C59.1903 52.27 58.9672 51.7133 58.529 51.3056C58.0827 50.8978 57.4532 50.6861 56.6563 50.6861H52.919V55.187H56.6563C57.4452 55.1791 58.0747 54.9674 58.521 54.5518ZM59.6366 49.6746C60.1147 49.9569 60.529 50.3646 60.8797 50.8743C61.2781 51.4702 61.4853 52.1681 61.4853 52.9444C61.4853 53.705 61.31 54.4029 60.9594 55.0223C60.6087 55.6496 60.0828 56.1514 59.3895 56.52C58.7042 56.8806 57.8755 57.0689 56.9193 57.0689H51.2775C51.1022 57.0689 50.9588 57.014 50.8473 56.8963C50.7357 56.7866 50.6719 56.6376 50.6719 56.473V43.6134C50.6719 43.433 50.7277 43.2762 50.8473 43.1664C50.9588 43.0566 51.1102 42.9938 51.2775 42.9938H56.7599C58.2182 42.9938 59.3338 43.3467 60.0828 44.0367C60.8318 44.7268 61.2064 45.6521 61.2064 46.7812C61.2064 47.5418 61.0231 48.1847 60.6725 48.6944C60.3697 49.11 60.027 49.4394 59.6366 49.6746ZM65.0472 66L72.0118 59.1468V40.8532L65.0472 34H46.4645L39.5 40.8532V59.139L46.4645 65.9922H65.0472V66ZM97.7981 56.5357C97.7981 56.7082 97.7343 56.8493 97.6148 56.967C97.4952 57.0767 97.3518 57.1316 97.1765 57.1316H88.3474C88.172 57.1316 88.0286 57.0767 87.917 56.959C87.8054 56.8493 87.7417 56.7003 87.7417 56.5357V55.9083C87.7417 55.5634 87.925 55.234 88.2915 54.9282L92.5229 50.7645C93.5428 49.9255 94.252 49.2434 94.6266 48.7258C94.9931 48.224 95.1764 47.683 95.1764 47.1262C95.1764 46.4048 94.9692 45.8402 94.5708 45.4325C94.1644 45.0326 93.5667 44.8287 92.7858 44.8287C92.0527 44.8287 91.463 45.0404 91.0248 45.4638C90.5786 45.8951 90.3076 46.4675 90.204 47.1811C90.1722 47.3771 90.0845 47.5261 89.957 47.6202C89.8294 47.7065 89.694 47.7535 89.5426 47.7535H88.5067C88.3474 47.7535 88.2118 47.7065 88.1082 47.6045C87.9967 47.5104 87.941 47.3771 87.941 47.236C87.9648 46.5067 88.172 45.7932 88.5386 45.1267C88.9131 44.4602 89.463 43.9034 90.1801 43.48C90.8973 43.0566 91.7738 42.837 92.7858 42.837C94.3238 42.837 95.511 43.237 96.2999 44.0289C97.0889 44.8209 97.4952 45.8402 97.4952 47.0556C97.4952 47.9025 97.2721 48.6787 96.8418 49.3688C96.4115 50.0431 95.7502 50.7724 94.8656 51.5408L91.2718 55.1321H97.1686C97.3518 55.1321 97.5032 55.187 97.6227 55.3046C97.7343 55.4143 97.7981 55.5634 97.7981 55.728V56.5357ZM102.213 66L109.177 59.1468V40.8532L102.213 34H83.6299L76.6654 40.8532V59.139L83.6299 65.9922H102.213V66ZM135.673 47.3379C135.673 47.4869 135.609 47.6123 135.49 47.7143C135.378 47.8084 135.242 47.8554 135.107 47.8554H134.007C133.768 47.8554 133.466 47.7614 133.362 47.2909C133.146 46.3499 132.756 45.6756 132.198 45.2992C131.641 44.915 130.875 44.7268 129.919 44.7268C127.696 44.7268 126.581 45.9108 126.501 48.3494C126.485 48.6944 126.477 49.2512 126.477 49.9804C126.477 50.7096 126.485 51.2742 126.501 51.6506C126.581 54.0892 127.696 55.2732 129.919 55.2732C130.875 55.2732 131.641 55.0772 132.206 54.7008C132.764 54.3244 133.154 53.6501 133.354 52.7091C133.402 52.5053 133.474 52.3642 133.585 52.2778C133.689 52.1916 133.832 52.1446 133.999 52.1446H135.099C135.25 52.1446 135.394 52.1916 135.506 52.2857C135.633 52.3877 135.681 52.5288 135.665 52.6934C135.625 53.4776 135.378 54.2303 134.939 54.9204C134.502 55.6104 133.848 56.175 133.003 56.5984C132.158 57.0218 131.122 57.2335 129.911 57.2335C128.094 57.2335 126.684 56.7395 125.736 55.775C124.787 54.8106 124.27 53.4619 124.206 51.7603C124.19 51.4075 124.19 50.8194 124.19 50.0196C124.19 49.2119 124.198 48.616 124.206 48.2397C124.278 46.5538 124.795 45.213 125.752 44.2406C126.708 43.2605 128.11 42.7665 129.919 42.7665C131.122 42.7665 132.166 42.9782 133.011 43.4016C133.856 43.825 134.51 44.3896 134.947 45.0796C135.386 45.7697 135.633 46.5146 135.673 47.2909V47.3379ZM139.37 66L146.334 59.1468V40.8532L139.37 34H120.787L113.823 40.8532V59.139L120.787 65.9922H139.37V66ZM172.113 56.3945C172.113 56.567 172.049 56.716 171.93 56.8258C171.81 56.9355 171.658 56.9905 171.491 56.9905H162.67C162.495 56.9905 162.351 56.9355 162.24 56.8179C162.128 56.7082 162.065 56.5592 162.065 56.3945V55.7672C162.065 55.4222 162.248 55.0929 162.614 54.7949L166.846 50.6312C167.866 49.7922 168.575 49.11 168.95 48.5925C169.316 48.0906 169.507 47.5496 169.507 46.9929C169.507 46.2715 169.3 45.707 168.902 45.2992C168.495 44.8993 167.898 44.6954 167.117 44.6954C166.383 44.6954 165.794 44.9071 165.355 45.3306C164.918 45.7618 164.638 46.3342 164.535 47.0478C164.503 47.2517 164.415 47.3928 164.288 47.4869C164.16 47.5731 164.025 47.6202 163.874 47.6202H162.83C162.67 47.6202 162.534 47.5731 162.431 47.4712C162.319 47.3693 162.264 47.2438 162.264 47.1026C162.288 46.3734 162.495 45.6599 162.862 44.9934C163.236 44.3269 163.786 43.7702 164.503 43.3467C165.22 42.9233 166.097 42.7038 167.109 42.7038C168.646 42.7038 169.834 43.1037 170.622 43.8956C171.412 44.6876 171.81 45.707 171.81 46.9223C171.81 47.7692 171.595 48.5533 171.157 49.2355C170.726 49.9098 170.065 50.639 169.181 51.3997L165.586 54.991H171.483C171.666 54.991 171.818 55.0458 171.938 55.1634C172.049 55.281 172.113 55.4222 172.113 55.5869V56.3945ZM183.5 59.139V40.8532L176.527 34H157.945L150.98 40.8532V59.139L157.945 65.9922H176.527L183.5 59.139Z" fill="white"/>
</g>
</g>
<rect x="0.5" y="0.5" width="222" height="99" rx="11.5" stroke="url(#paint0_linear_581_10158)"/>
<defs>
<filter id="filter0_f_581_10158" x="-125" y="-233" width="487" height="487" filterUnits="userSpaceOnUse" color-interpolation-filters="sRGB">
<feFlood flood-opacity="0" result="BackgroundImageFix"/>
<feBlend mode="normal" in="SourceGraphic" in2="BackgroundImageFix" result="shape"/>
<feGaussianBlur stdDeviation="100" result="effect1_foregroundBlur_581_10158"/>
</filter>
<linearGradient id="paint0_linear_581_10158" x1="111.5" y1="0" x2="111.5" y2="100" gradientUnits="userSpaceOnUse">
<stop stop-color="#514DF3" stop-opacity="0.2"/>
<stop offset="1" stop-color="#514DF3" stop-opacity="0.05"/>
</linearGradient>
<clipPath id="clip0_581_10158">
<rect width="223" height="100" rx="12" fill="white"/>
</clipPath>
<clipPath id="clip1_581_10158">
<rect width="144" height="32" fill="white" transform="translate(39.5 34)"/>
</clipPath>
</defs>
</svg>
