<svg width="223" height="100" viewBox="0 0 223 100" fill="none" xmlns="http://www.w3.org/2000/svg">
<g clip-path="url(#clip0_581_10162)">
<rect width="223" height="100" rx="12" fill="#0F121E" fill-opacity="0.2"/>
<g opacity="0.8" filter="url(#filter0_f_581_10162)">
<circle cx="118.5" cy="10.5" r="43.5" fill="#514DF3"/>
</g>
<g clip-path="url(#clip1_581_10162)">
<path d="M126.753 41.0537H108.667V58.9457H126.753V41.0537Z" fill="white"/>
<path d="M127.65 40.1664V40.1197H127.603V34H126.753V40.1197H107.675V58.9927H43.5V59.8336H107.675V59.8803H107.722V66H108.572V59.8803H127.65V41.0073H179.5V40.1664H127.65ZM126.706 58.946H108.667V41.054H126.753V58.946H126.706ZM89.6361 51.3314H90.4861L92.0917 53.7606H93.2722L91.5722 51.238C92.4222 51.0978 92.9889 50.3504 92.9889 49.4628C92.9889 48.3416 92.1861 47.7343 90.7222 47.7343H88.6444V53.7606H89.6833L89.6361 51.3314ZM89.6361 48.5752H90.5806C91.2889 48.5752 91.3361 48.5752 91.525 48.7153C91.7611 48.9022 91.9028 49.1358 91.9028 49.4628C91.9028 49.7898 91.8083 50.0234 91.5722 50.2102C91.3361 50.4438 91.1944 50.4438 90.5806 50.4438H89.6361V48.5752ZM69.3778 53.527C69.85 53.8073 70.5583 53.9942 71.125 53.9942C71.6917 53.9942 72.4 53.8073 72.8722 53.527C73.5333 53.1533 73.7694 52.546 73.7694 51.3314V47.7343H72.7778V51.4715C72.7778 52.546 72.2111 53.1066 71.125 53.1066C70.0389 53.1066 69.4722 52.546 69.4722 51.4715V47.7343H68.4806V51.3314C68.4806 52.4993 68.7639 53.1066 69.3778 53.527ZM101.725 52.9197H98.8444V51.0978H101.158V50.2569H98.8444V48.5752H101.631V47.7343H97.8056V53.7606H101.678L101.725 52.9197ZM79.8611 52.1255H82.4111L83.1194 53.7606H84.1111L81.6083 47.5474H80.6167L78.1611 53.7139V53.7606H79.2L79.8611 52.1255ZM81.1833 48.7153L82.175 51.2847H80.1917L81.1833 48.7153ZM60.075 53.9007C60.6417 54.5547 60.9722 54.9285 61.4444 55.2555C61.8694 55.5358 62.1528 55.6759 62.8611 55.9562L63.4278 55.2555H63.3806C62.7667 55.0219 62.5778 54.9285 62.2 54.6482C61.8222 54.4146 61.6806 54.2745 61.3028 53.854C62.9083 53.4336 63.8528 52.2657 63.8528 50.7708C63.8528 48.9489 62.4361 47.6409 60.4528 47.6409C58.4694 47.6409 57.0528 48.9489 57.0528 50.7708C57.0528 51.6117 57.3833 52.4058 57.9972 53.0131C58.6583 53.527 59.0361 53.7139 60.075 53.9007ZM60.5472 48.4818C61.8694 48.4818 62.8611 49.4628 62.8611 50.7708C62.8611 52.0788 61.8694 53.0599 60.5472 53.0599C59.225 53.0599 58.2333 52.0788 58.2333 50.7708C58.2333 49.4628 59.225 48.4818 60.5472 48.4818ZM165.617 52.3591C165.569 52.219 165.475 52.0788 165.428 51.9854L162.028 47.7343H161.036V53.7606H161.981V49.0891C162.028 49.1825 162.122 49.3226 162.264 49.5095L165.664 53.854H166.561V47.7343H165.617V52.3591ZM154.661 53.7606H155.7V47.7343H154.661V53.7606ZM50.2528 52.9197C49.8278 52.9197 49.45 52.8263 49.0722 52.6861C48.7889 52.5927 48.5528 52.4526 48.1278 52.1255L47.5611 52.9664C48.1278 53.3401 48.3167 53.4803 48.6472 53.5737C49.1194 53.7606 49.6389 53.854 50.2056 53.854C51.9056 53.854 52.9917 52.9664 52.9917 51.5182C52.9917 50.9109 52.7556 50.3504 52.3306 49.9766C52.0472 49.7431 51.6222 49.4628 51.0083 49.1358C49.3083 48.2482 48.9778 47.9212 48.9778 47.3606C48.9778 46.6599 49.5917 46.2394 50.5361 46.2394C50.8667 46.2394 51.3861 46.3328 51.6694 46.4263C51.9528 46.5197 52.0944 46.6131 52.5194 46.8467L53.0389 45.9591C52.5667 45.6788 52.3778 45.5854 52 45.4453C51.575 45.3051 51.1028 45.2584 50.5833 45.2584C48.9306 45.2584 47.7972 46.146 47.7972 47.5007C47.7972 48.3883 48.3167 49.0423 49.5917 49.6963C50.1583 50.0234 50.5361 50.2102 50.7722 50.3504C50.8667 50.3971 50.9139 50.4438 50.9611 50.4438C51.2917 50.6307 51.5278 50.8642 51.6694 51.0978C51.7639 51.238 51.8111 51.4248 51.8111 51.6584C51.8111 52.4993 51.2444 52.9197 50.2528 52.9197ZM170.858 48.5752H173.031V53.7606H174.022V48.5752H176.194V47.7343H170.858V48.5752ZM146.444 47.6409C144.461 47.6409 143.044 48.9489 143.044 50.7708C143.044 52.5927 144.461 53.9007 146.444 53.9007C148.428 53.9007 149.844 52.5927 149.844 50.7708C149.844 48.9489 148.428 47.6409 146.444 47.6409ZM146.444 53.0599C145.122 53.0599 144.131 52.0788 144.131 50.7708C144.131 49.4628 145.122 48.4818 146.444 48.4818C147.767 48.4818 148.758 49.4628 148.758 50.7708C148.758 52.0788 147.767 53.0599 146.444 53.0599ZM136.292 45.4453H133.647V53.7606H134.733V50.6307H134.828C135.489 50.6774 135.725 50.7241 136.008 50.7241C137.85 50.7241 139.031 49.6496 139.031 47.9212C139.031 47.127 138.794 46.5664 138.369 46.0993C137.897 45.6321 137.331 45.4453 136.292 45.4453ZM136.906 49.6496C136.622 49.7431 136.292 49.7898 135.819 49.7898C135.536 49.7898 135.3 49.7898 134.733 49.6963V46.3328H136.15C136.811 46.3328 137.189 46.4263 137.425 46.6599C137.708 46.9401 137.897 47.4073 137.897 47.9212C137.897 48.762 137.519 49.4161 136.906 49.6496Z" fill="white"/>
</g>
</g>
<rect x="0.5" y="0.5" width="222" height="99" rx="11.5" stroke="url(#paint0_linear_581_10162)"/>
<defs>
<filter id="filter0_f_581_10162" x="-125" y="-233" width="487" height="487" filterUnits="userSpaceOnUse" color-interpolation-filters="sRGB">
<feFlood flood-opacity="0" result="BackgroundImageFix"/>
<feBlend mode="normal" in="SourceGraphic" in2="BackgroundImageFix" result="shape"/>
<feGaussianBlur stdDeviation="100" result="effect1_foregroundBlur_581_10162"/>
</filter>
<linearGradient id="paint0_linear_581_10162" x1="111.5" y1="0" x2="111.5" y2="100" gradientUnits="userSpaceOnUse">
<stop stop-color="#514DF3" stop-opacity="0.2"/>
<stop offset="1" stop-color="#514DF3" stop-opacity="0.05"/>
</linearGradient>
<clipPath id="clip0_581_10162">
<rect width="223" height="100" rx="12" fill="white"/>
</clipPath>
<clipPath id="clip1_581_10162">
<rect width="136" height="32" fill="white" transform="translate(43.5 34)"/>
</clipPath>
</defs>
</svg>
