<svg width="223" height="100" viewBox="0 0 223 100" fill="none" xmlns="http://www.w3.org/2000/svg">
<g clip-path="url(#clip0_581_10174)">
<rect width="223" height="100" rx="12" fill="#0F121E" fill-opacity="0.2"/>
<g opacity="0.8" filter="url(#filter0_f_581_10174)">
<circle cx="118.5" cy="10.5" r="43.5" fill="#514DF3"/>
</g>
<path fill-rule="evenodd" clip-rule="evenodd" d="M78.7375 64.4439C78.0887 64.4439 77.9552 63.7851 77.9552 62.7954C77.9552 62.0799 77.9552 61.1919 78.7021 61.1919C79.3897 61.1919 79.4852 62.0125 79.4852 62.8996C79.4852 63.5872 79.4852 64.4439 78.7375 64.4439ZM78.7528 60.5372C77.6207 60.5372 76.9736 61.375 76.9736 62.8372C76.9736 64.2929 77.5903 65.0944 78.7089 65.0944C79.8426 65.0944 80.4669 64.2929 80.4669 62.8372C80.4669 61.3537 79.8578 60.5372 78.7528 60.5372ZM72.1776 64.4917C71.7494 64.4917 71.3176 64.2549 71.3176 63.7252C71.3176 63.4253 71.5627 63.1182 71.7848 63.0286L71.9479 63.0492C72.339 63.1626 72.9498 63.3367 72.9498 63.8723C72.9498 64.2353 72.633 64.4917 72.1776 64.4917V64.4917ZM72.1337 61.1392C72.5224 61.1392 72.8054 61.4259 72.8054 61.8218C72.8054 62.1126 72.6433 62.2885 72.4659 62.4347L72.4142 62.4791L72.3272 62.4511C71.9641 62.3394 71.5128 62.1998 71.5128 61.6889C71.5128 61.4195 71.746 61.1392 72.1338 61.1392L72.1337 61.1392ZM73.1619 62.7535L73.0081 62.6877L73.1568 62.6056C73.4433 62.4371 73.7321 62.2171 73.7321 61.697C73.7321 61.1203 73.2177 60.5372 72.2352 60.5372C71.2535 60.5372 70.5921 61.0218 70.5921 61.738C70.5921 62.2171 70.8032 62.4543 71.1192 62.6614L71.2476 62.7435L71.1091 62.8239C70.6166 63.0589 70.369 63.3941 70.369 63.8433C70.369 64.6155 71.0279 65.0944 72.0907 65.0944C73.2143 65.0944 73.9129 64.5867 73.9129 63.7736C73.9129 63.3054 73.6672 62.9817 73.1619 62.7534M84.5955 62.0527L84.4965 62.0568V61.2238L84.6098 61.2076C84.8557 61.1762 85.6489 61.1779 85.714 61.1779C86.1711 61.1779 86.2935 61.3045 86.4473 61.4671L86.4465 60.5322C86.269 60.5963 86.0722 60.5865 85.9219 60.5865H83.7127V62.7321C83.8444 62.6976 84.0683 62.6705 84.2821 62.6598C84.7323 62.6178 85.1049 62.7132 85.3558 62.9325C85.5687 63.1198 85.6557 63.3236 85.6329 63.7031C85.5915 64.4144 85.0871 64.5327 84.5313 64.5327C84.2592 64.5327 83.8621 64.4702 83.5716 64.3373L83.3553 64.8349C83.7008 65.0026 84.1257 65.0945 84.5937 65.0945C86.095 65.0945 86.5757 64.2723 86.5757 63.5716C86.5757 63.4278 86.5926 62.9308 86.1567 62.5252C85.7909 62.1866 85.2654 62.0256 84.5954 62.0528M66.8968 64.3999L66.9032 60.5572C66.496 60.9284 66.0626 61.1486 65.5684 61.3113L65.9891 61.4386L66.0025 64.3999C66.0025 64.8401 65.7813 64.9091 65.6528 65.0455H67.2462C67.1177 64.9091 66.8964 64.8401 66.8964 64.3999" fill="white"/>
<path d="M136.12 44.4969C135.817 44.5753 135.344 44.6357 135.035 44.6357H126.028C125.719 44.6357 125.246 44.5753 124.941 44.4969C124.828 44.4767 124.845 44.5515 124.845 44.5515L124.841 46.5119C124.841 46.6085 124.839 46.6564 124.849 46.6972C124.867 46.7707 124.947 46.7563 124.969 46.6931C124.969 46.6931 125.017 46.4914 125.165 46.3053C125.424 45.98 125.849 45.5254 126.533 45.5189L127.356 45.5199C127.801 45.5282 129.154 45.5483 129.505 45.5791L129.637 45.5922V47.9723V53.4631V56.7308C129.637 58.3212 128.294 58.6168 128.294 58.6168C128.237 58.6334 128.201 58.7007 128.291 58.7261C128.333 58.74 128.401 58.74 128.499 58.74H132.744C132.845 58.74 132.912 58.74 132.952 58.7261C133.043 58.7007 133.007 58.6334 132.95 58.6168C132.95 58.6168 131.609 58.3212 131.609 56.7308L131.608 53.4631L131.605 47.9723L131.604 45.5922L131.733 45.5791C132.083 45.5482 133.265 45.5273 133.707 45.5199L134.533 45.5189C135.215 45.5251 135.638 45.98 135.9 46.3053C136.048 46.4914 136.094 46.6931 136.094 46.6931C136.117 46.7556 136.197 46.77 136.215 46.6972C136.225 46.6564 136.224 46.6085 136.224 46.5119L136.22 44.5515C136.22 44.5515 136.237 44.4767 136.121 44.4969M160.514 46.5118L160.512 44.5515C160.512 44.5515 160.531 44.4766 160.415 44.4968C160.112 44.5752 159.639 44.6357 159.329 44.6357H150.498C150.188 44.6357 149.716 44.5752 149.411 44.4968C149.298 44.4766 149.313 44.5515 149.313 44.5515L149.312 46.5118C149.312 46.6084 149.306 46.6564 149.319 46.6972C149.336 46.7707 149.415 46.7563 149.438 46.693C149.438 46.693 149.484 46.4914 149.632 46.3052C149.893 45.98 150.319 45.5253 151.001 45.5188L151.825 45.5199C152.268 45.5282 153.448 45.5482 153.798 45.579L153.93 45.5921V47.9722V53.4631V56.7308C153.93 58.3212 152.588 58.6168 152.588 58.6168C152.531 58.6333 152.494 58.7007 152.585 58.726C152.627 58.74 152.694 58.74 152.793 58.74H157.04C157.139 58.74 157.206 58.74 157.246 58.726C157.336 58.7007 157.303 58.6333 157.244 58.6168C157.244 58.6168 155.903 58.3212 155.903 56.7308L155.9 53.4631L155.896 47.9722V45.5921L156.027 45.579C156.376 45.5481 157.558 45.5272 158.004 45.5199L158.824 45.5188C159.507 45.5251 159.931 45.98 160.194 46.3052C160.341 46.4914 160.389 46.693 160.389 46.693C160.409 46.7556 160.489 46.7699 160.508 46.6972C160.52 46.6564 160.514 46.6084 160.514 46.5118ZM112.964 53.4633C113.554 55.9826 115.53 58.9547 120.781 58.9547C121.794 58.9547 122.748 58.7476 123.427 58.5242C123.85 58.3862 124.422 58.1232 124.525 57.9854C124.545 57.9599 125.342 56.1774 125.563 55.6212C125.595 55.5391 125.514 55.5227 125.489 55.5489C124.833 56.2405 123.979 57.2263 122.61 57.6123C122.004 57.7816 121.103 57.9631 120.501 57.9631C117.747 57.9631 115.696 56.1108 115.066 53.464C114.932 52.9022 114.862 52.3058 114.862 51.6824C114.862 50.2424 115.152 48.9795 115.699 47.9732H115.7C116.562 46.3846 118.065 45.437 120.075 45.437C120.335 45.437 120.231 45.4361 120.231 45.4329C121.878 45.4329 122.77 46.433 123.134 46.7319C123.16 46.7531 123.248 46.7789 123.248 46.6741L123.25 46.5907L123.248 44.5316C123.248 44.4133 123.166 44.457 123.135 44.4754C122.986 44.5707 122.834 44.6803 122.563 44.6803C122.385 44.6803 122.192 44.6606 122.014 44.6336C121.786 44.5986 121.081 44.4199 120.219 44.4199C116.386 44.4199 114.42 45.9967 113.49 47.9731C112.939 49.1416 112.751 50.4502 112.751 51.6535C112.751 52.1859 112.811 52.8102 112.965 53.4632M99.267 52.1905C99.2734 52.1967 98.3276 52.2077 97.165 52.1495L97.1618 47.9728L97.1609 47.5436C97.1609 47.2993 97.1914 45.7229 97.2396 45.5246C97.896 45.4469 98.9943 45.4777 99.5991 45.4777C101.703 45.4777 102.613 46.5567 102.86 47.9758H102.861C102.911 48.2672 102.934 48.5703 102.934 48.8834C102.934 50.7119 102.113 52.1905 99.2671 52.1905L99.267 52.1905ZM104.619 47.9728C104.284 46.0831 102.815 44.618 99.8009 44.618L94.1315 44.6284C94.0325 44.6284 93.9649 44.6294 93.9253 44.6431C93.8332 44.6693 93.8703 44.7372 93.9274 44.7515C93.9274 44.7515 95.2689 44.8402 95.2689 46.4317V47.9731V53.464V56.9487C95.2689 58.5398 93.9274 58.6292 93.9274 58.6292C93.8699 58.6424 93.8327 58.7115 93.9253 58.7377C93.965 58.7508 94.0326 58.7525 94.1315 58.7525H98.3368C98.4357 58.7525 98.5033 58.7515 98.5463 58.7377C98.635 58.7114 98.6013 58.6424 98.5421 58.6292C98.5421 58.6292 97.2006 58.5398 97.2006 56.9487V53.464V53.0584C98.0995 53.1182 99.6226 53.1314 99.6226 53.1314C103.258 53.1314 104.694 51.1863 104.694 48.8624C104.694 48.5592 104.669 48.2623 104.619 47.9761M109.689 47.972V46.4331C109.689 44.8427 111.033 44.7528 111.033 44.7528C111.091 44.7384 111.125 44.6714 111.034 44.6444C110.992 44.6327 110.925 44.6311 110.826 44.6311H106.759C106.66 44.6311 106.593 44.6322 106.552 44.6444C106.461 44.6714 106.496 44.7385 106.553 44.7528C106.553 44.7528 107.896 44.8426 107.896 46.4331V47.972V53.4628V56.9508C107.896 58.5443 106.553 58.6331 106.553 58.6331C106.496 58.6462 106.461 58.7127 106.552 58.7398C106.593 58.7529 106.66 58.7529 106.759 58.7529H110.826C110.925 58.7529 110.992 58.7529 111.034 58.7398C111.124 58.7127 111.09 58.6462 111.033 58.6331C111.033 58.6331 109.689 58.5444 109.689 56.9508V53.4628M147.444 56.6188C147.444 56.6188 147.341 56.844 147.167 57.0213C146.843 57.3647 146.668 57.5093 145.898 57.6949C145.223 57.8577 144.307 57.8453 144.307 57.8453C142.686 57.8453 141.209 57.6777 141.209 57.6777V53.4628V52.1092H144.655C145.466 52.1092 145.618 52.7483 145.618 52.7483C145.623 52.7755 145.659 52.7927 145.673 52.7514C145.678 52.7301 145.68 52.6972 145.68 52.6504V50.6321C145.68 50.5828 145.678 50.5516 145.673 50.5319C145.659 50.4883 145.623 50.5056 145.618 50.5319C145.618 50.5319 145.466 51.1716 144.655 51.1716H141.209V47.9718V45.622L141.331 45.6044C142.004 45.5511 143.185 45.5009 144.34 45.4943C144.858 45.5005 145.43 45.5398 145.472 45.5398C146.154 45.5471 146.576 45.9975 146.839 46.3208C146.987 46.5083 147.129 46.7101 147.129 46.7101C147.149 46.7725 147.228 46.7845 147.25 46.7132C147.257 46.6717 147.254 46.6232 147.254 46.5279L147.252 44.5504C147.252 44.5504 147.27 44.4768 147.154 44.4979C146.852 44.5762 146.378 44.6366 146.069 44.6366H144.621L138.079 44.6325C137.98 44.6325 137.911 44.6356 137.872 44.6473C137.78 44.674 137.818 44.7405 137.872 44.7553C137.872 44.7553 139.217 45.0506 139.217 46.6422V47.972V53.4629V56.7379C139.217 58.3308 137.877 58.6264 137.877 58.6264C137.818 58.6414 137.782 58.7087 137.872 58.7358C137.914 58.7475 137.982 58.749 138.081 58.749H144.453L147.486 58.7479C147.575 58.7479 147.573 58.6469 147.573 58.6469L147.575 56.8101C147.575 56.7091 147.58 56.6581 147.569 56.6163C147.55 56.5416 147.467 56.5556 147.445 56.6204" fill="white"/>
<path fill-rule="evenodd" clip-rule="evenodd" d="M76.6745 36.9769C76.606 36.7182 76.4068 36.3752 76.2369 36.2216C76.9965 35.8976 77.9172 36.0393 78.1107 36.1958C77.3648 36.353 76.9263 36.6763 76.6745 36.9769ZM81.952 37.8526C81.7611 38.0223 81.2103 38.5747 80.8512 38.6696C80.6037 38.7193 80.6916 38.5583 80.7956 38.4449C81.3295 37.8736 81.6471 37.3721 81.7629 37.119C81.9081 36.8143 81.9732 36.1189 81.0558 36.2302C80.8792 36.2484 80.3175 36.376 79.688 36.7991C79.5444 36.8936 79.5469 36.772 79.5875 36.6883C79.6889 36.4763 80.1772 36.0902 80.2827 36.0065C79.8477 35.6663 77.3673 34.3151 74.6918 36.0323C74.3597 36.2635 74.0524 36.3379 73.8792 36.4024C73.765 36.4385 73.4779 36.5963 73.4744 37.0402C73.4851 37.1231 73.5049 37.1757 73.6256 37.1487C74.0143 37.0431 74.3024 36.8451 74.5593 36.7596C74.7772 36.6657 75.0154 36.8085 74.7527 36.9769C74.4172 37.1691 74.0793 37.3609 73.9061 37.5786C73.8091 37.6905 73.4246 38.1627 73.9983 38.879C74.1655 38.6137 74.7357 37.9569 75.5485 38.0596C76.3341 38.1285 77.2735 38.9644 77.1096 40.2472C77.0387 40.8822 76.3602 41.6234 75.463 41.2488C75.1505 41.0935 74.9419 40.8854 74.7687 40.3096C74.5853 40.418 74.3023 40.7708 74.527 41.2061C74.5659 41.3064 74.544 41.3688 74.4443 41.4439C74.3413 41.5055 74.2822 41.6497 74.3649 41.7955C75.0594 43.0005 77.3979 42.4572 77.8041 40.7215C77.8338 40.627 77.957 40.6159 77.9536 40.7822C77.8979 43.0244 75.2131 44.1506 73.3461 42.2165C73.1222 42.0037 72.9161 41.9931 72.6094 42.0674C72.2749 42.1648 71.2265 42.3828 70.516 42.2588C70.4906 42.693 70.5223 43.8482 72.3248 44.2729C72.5571 44.3176 72.4075 44.4343 72.3152 44.4841C71.4628 44.9387 70.7835 44.8829 70.2927 44.7149C70.4937 45.7856 71.6326 46.2445 72.4097 45.6834C73.1389 45.1709 73.623 45.2107 73.829 45.2763C73.9803 45.3302 74.0462 45.4496 73.8259 45.4755C73.346 45.528 72.6862 45.8193 72.4166 46.626C72.1303 47.4857 71.7062 47.8249 71.4763 47.8766C71.9503 48.0114 73.1103 47.9818 73.7524 47.6384C74.1975 47.3997 74.6241 46.6478 75.2037 46.674C75.2925 46.6834 75.3481 46.6946 75.2145 46.826C75.147 46.8887 74.6917 47.3135 74.5455 47.9534C74.505 48.133 74.3158 48.9847 73.8604 49.251C75.1859 49.7142 76.8197 48.9671 76.9786 47.1206C76.9921 46.9689 77.0986 46.8908 77.1645 47.1206C77.5472 48.4516 76.7581 49.8087 76.6609 49.9289C78.9926 49.68 79.0551 48.1424 79.028 47.8335C79.0459 47.5152 78.604 46.15 79.0653 45.7548C79.1852 45.6501 79.2874 45.6747 79.2536 45.8817C79.1936 46.2416 79.4792 46.801 79.6287 47.1809C80.0174 48.1678 79.5671 48.9847 79.1988 49.4025C79.4462 49.2875 81.3074 48.5206 80.9719 46.9172C80.9001 46.5742 80.4304 45.8919 80.4413 45.1592C80.4477 44.7876 80.6821 44.3753 80.8081 44.2816C80.9408 44.1834 81.032 44.2543 81.0032 44.3846C80.9593 44.569 80.901 45.2217 81.2271 45.69C81.3208 45.823 81.6512 46.3221 81.6825 47.2359C82.9151 45.5885 82.3439 44.569 82.0727 44.1802C81.1249 42.8179 81.5371 41.9414 81.6428 41.7187C81.7146 41.5659 81.8784 41.5351 81.9139 41.6948C81.9493 41.8538 81.8784 42.8863 82.7291 43.8314C82.9851 44.1691 82.9446 44.5753 82.9742 44.7584C84.7609 41.2887 82.2258 38.1713 81.952 37.8526ZM88.5085 44.2611C88.0024 44.9708 87.9433 44.9141 87.5884 45.5491C87.1542 46.3222 86.9075 48.0389 87.8496 49.2074C88.0261 47.6388 89.3794 46.9517 89.7959 46.3902C90.2555 45.7717 90.0351 45.2308 89.8635 44.9239C89.6404 44.5247 89.7791 44.2114 89.8508 43.8602C90.0281 43.0005 89.9024 42.4288 89.7107 41.936C89.3448 40.9971 87.613 40.1206 85.9656 41.5688C85.8118 41.7409 80.8477 45.6513 83.3382 53.7541C83.7277 55.162 83.0097 56.0787 82.3499 56.5707C81.6655 57.0818 80.302 57.3806 79.2392 56.6398C76.6964 54.8638 77.7557 51.4064 78.5802 50.0662C78.3809 50.2355 77.4389 50.6811 75.6133 50.6155C75.7907 50.3755 76.1447 49.8345 76.2241 49.5984C74.5758 50.5653 73.0628 49.6135 72.8221 49.3167C73.2039 49.1273 73.6163 48.9158 73.8579 48.1769C73.4101 48.549 71.614 48.9096 70.2572 48.0825C71.0496 47.7301 71.4502 47.181 71.5499 46.9518C71.1899 47.0779 68.5761 47.6558 65.8407 47.0685C64.7812 46.8462 64.5253 47.5839 64.472 47.9827C63.9686 48.2624 63.6416 49.4736 64.8244 49.803C64.8244 50.2272 65.1783 51.2915 66.8037 50.307C68.0278 49.5159 69.878 49.3911 70.7025 49.4252C70.1956 51.1543 70.5141 51.7721 72.6092 54.624C73.3391 55.6426 73.1871 56.9882 71.7856 56.9882C71.4543 56.9882 64.7898 56.9882 64.7898 56.9882V58.7559H87.7912V56.9882C87.7912 56.9882 84.7719 56.9882 84.4534 56.9882C85.9183 55.7347 85.1055 53.4503 84.94 52.9408C82.7494 46.2297 85.7587 43.1091 86.7419 42.245C88.0961 41.0892 89.8864 42.2219 88.5085 44.2611ZM71.5296 39.1242C72.4124 39.5626 73.4345 39.485 74.0411 39.3708C75.5896 39.0787 76.0019 39.1242 76.3254 39.2274C76.6618 39.3346 76.6879 39.6027 76.6566 39.6951C76.6304 39.7728 76.5594 39.8627 76.317 39.834C76.11 39.8077 75.4688 39.6951 74.532 40.0007C72.5585 40.6436 71.7145 39.6401 71.5296 39.1242ZM80.5901 35.7267C80.2969 35.5026 79.8061 35.2787 79.3626 35.1978C80.1499 34.5707 81.3986 35.0479 80.5901 35.7267ZM65.0997 51.0459C64.946 51.0154 64.5363 50.9013 64.4366 50.4725C64.3445 50.645 64.0446 51.9857 65.229 51.9593C64.7872 51.7581 65.0406 51.1665 65.0997 51.0459ZM64.243 50.15C64.0733 50.1152 63.7346 49.9759 63.6973 49.5894C63.5706 49.7689 62.7267 50.6804 63.7903 51.2825C63.6256 50.8125 63.9373 50.3912 64.243 50.15ZM63.6458 49.253C63.5073 49.0309 63.4254 48.7713 63.6037 48.3881C63.4 48.4809 62.0002 49.1232 62.7715 50.1188C62.7757 49.5357 63.3578 49.3114 63.6458 49.253ZM63.9821 47.8427C64.0193 47.659 64.102 47.2829 64.5498 47.0672C64.3774 47.0543 62.6101 47.0114 62.8797 48.3466C63.0537 47.7198 63.7827 47.8098 63.9821 47.8427ZM67.5227 44.146C68.3675 45.2054 69.3119 45.5057 70.3249 45.9751C69.6981 45.5023 69.557 44.5384 69.5274 44.0193C69.845 44.1573 70.3604 44.3236 71.0227 44.3093C70.101 43.7588 69.9245 43.0783 69.8299 42.1135C69.1244 41.9016 68.6758 41.9066 66.9457 40.5852C65.7089 39.5963 64.6369 40.2817 64.702 40.8768C64.543 40.9451 63.6121 41.4317 64.26 42.3652C64.1621 42.7148 64.3538 43.7342 65.5272 43.5995C65.8314 43.6026 66.721 43.1559 67.5227 44.146ZM63.792 42.8647C63.7152 43.2754 64.0268 43.5962 64.151 43.6476C64.0801 43.6817 63.5267 43.9601 63.8579 44.4842C62.8239 43.981 63.5732 43.0348 63.792 42.8647ZM63.6898 42.4869C63.5529 42.3304 63.4709 42.0506 63.4954 41.771C63.2758 41.8843 62.2241 42.2721 62.9041 43.2557C62.7495 42.6914 63.4921 42.5153 63.6898 42.4869ZM64.1502 40.6041C63.2303 40.5155 62.338 40.8407 62.5046 41.837C62.682 41.1298 63.4178 41.3105 63.5893 41.3459C63.7346 40.8867 64.0007 40.6982 64.1502 40.6041ZM64.4213 40.2435C64.7585 39.9022 65.0465 39.7917 65.3363 39.8045C65.0635 39.6743 63.7455 38.9929 63.3941 40.2842C63.8106 39.8431 64.3395 40.1856 64.4213 40.2435Z" fill="white"/>
</g>
<rect x="0.5" y="0.5" width="222" height="99" rx="11.5" stroke="url(#paint0_linear_581_10174)"/>
<defs>
<filter id="filter0_f_581_10174" x="-125" y="-233" width="487" height="487" filterUnits="userSpaceOnUse" color-interpolation-filters="sRGB">
<feFlood flood-opacity="0" result="BackgroundImageFix"/>
<feBlend mode="normal" in="SourceGraphic" in2="BackgroundImageFix" result="shape"/>
<feGaussianBlur stdDeviation="100" result="effect1_foregroundBlur_581_10174"/>
</filter>
<linearGradient id="paint0_linear_581_10174" x1="111.5" y1="0" x2="111.5" y2="100" gradientUnits="userSpaceOnUse">
<stop stop-color="#514DF3" stop-opacity="0.2"/>
<stop offset="1" stop-color="#514DF3" stop-opacity="0.05"/>
</linearGradient>
<clipPath id="clip0_581_10174">
<rect width="223" height="100" rx="12" fill="white"/>
</clipPath>
</defs>
</svg>
