<svg width="56" height="56" viewBox="0 0 56 56" fill="none" xmlns="http://www.w3.org/2000/svg">
<path d="M20.93 51.3333H34.93C46.5967 51.3333 51.2633 46.6666 51.2633 35V21C51.2633 9.33329 46.5967 4.66663 34.93 4.66663H20.93C9.26335 4.66663 4.59668 9.33329 4.59668 21V35C4.59668 46.6666 9.26335 51.3333 20.93 51.3333Z" stroke="#F8DF55" stroke-width="1.5" stroke-linecap="round" stroke-linejoin="round"/>
<path d="M4.59668 29.6334L18.5967 29.5867C20.3467 29.5867 22.3067 30.9167 22.96 32.55L25.62 39.27C26.2267 40.7867 27.1833 40.7867 27.79 39.27L33.1333 25.7134C33.6467 24.4067 34.6033 24.3601 35.2567 25.5967L37.6833 30.1934C38.4067 31.57 40.2733 32.69 41.8133 32.69H51.2867" stroke="#F8DF55" stroke-width="1.5" stroke-linecap="round" stroke-linejoin="round"/>
</svg>