<svg width="314" height="54" viewBox="0 0 314 54" fill="none" xmlns="http://www.w3.org/2000/svg">
<g filter="url(#filter0_d_777_6033)">
<path d="M11.89 13.24C11.954 13.496 11.986 13.816 11.986 14.2C11.986 14.568 11.954 14.888 11.89 15.16C11.954 15.416 11.986 15.736 11.986 16.12C11.986 16.488 11.954 16.808 11.89 17.08H10.93C10.994 17.336 11.026 17.656 11.026 18.04C11.026 18.408 10.994 18.728 10.93 19H5.17C5.106 18.728 5.074 18.408 5.074 18.04C5.074 17.656 5.106 17.336 5.17 17.08H4.21C4.146 16.808 4.114 16.488 4.114 16.12C4.114 15.736 4.146 15.416 4.21 15.16H6.13C6.194 15.416 6.226 15.736 6.226 16.12C6.226 16.488 6.194 16.808 6.13 17.08H9.97C9.906 16.808 9.874 16.488 9.874 16.12C9.874 15.736 9.906 15.416 9.97 15.16C9.906 14.888 9.874 14.568 9.874 14.2C9.874 13.816 9.906 13.496 9.97 13.24H5.17C5.106 12.968 5.074 12.648 5.074 12.28C5.074 11.896 5.106 11.576 5.17 11.32H4.21C4.146 11.048 4.114 10.728 4.114 10.36C4.114 9.976 4.146 9.656 4.21 9.4C4.146 9.128 4.114 8.808 4.114 8.44C4.114 8.056 4.146 7.736 4.21 7.48H5.17C5.106 7.208 5.074 6.888 5.074 6.52C5.074 6.136 5.106 5.816 5.17 5.56H10.93C10.994 5.816 11.026 6.136 11.026 6.52C11.026 6.888 10.994 7.208 10.93 7.48H11.89C11.954 7.736 11.986 8.056 11.986 8.44C11.986 8.808 11.954 9.128 11.89 9.4H9.97C9.906 9.128 9.874 8.808 9.874 8.44C9.874 8.056 9.906 7.736 9.97 7.48H6.13C6.194 7.736 6.226 8.056 6.226 8.44C6.226 8.808 6.194 9.128 6.13 9.4C6.194 9.656 6.226 9.976 6.226 10.36C6.226 10.728 6.194 11.048 6.13 11.32H10.93C10.994 11.576 11.026 11.896 11.026 12.28C11.026 12.648 10.994 12.968 10.93 13.24H11.89ZM21.4994 15.16C21.5634 15.416 21.5954 15.736 21.5954 16.12C21.5954 16.488 21.5634 16.808 21.4994 17.08H20.5394C20.6034 17.336 20.6354 17.656 20.6354 18.04C20.6354 18.408 20.6034 18.728 20.5394 19H15.7394C15.6754 18.728 15.6434 18.408 15.6434 18.04C15.6434 17.656 15.6754 17.336 15.7394 17.08H14.7794C14.7154 16.808 14.6834 16.488 14.6834 16.12C14.6834 15.736 14.7154 15.416 14.7794 15.16H13.8194C13.7554 14.888 13.7234 14.568 13.7234 14.2C13.7234 13.816 13.7554 13.496 13.8194 13.24H14.7794C14.7154 12.968 14.6834 12.648 14.6834 12.28C14.6834 11.896 14.7154 11.576 14.7794 11.32H15.7394C15.6754 11.048 15.6434 10.728 15.6434 10.36C15.6434 9.976 15.6754 9.656 15.7394 9.4H20.5394C20.6034 9.656 20.6354 9.976 20.6354 10.36C20.6354 10.728 20.6034 11.048 20.5394 11.32H21.4994C21.5634 11.576 21.5954 11.896 21.5954 12.28C21.5954 12.648 21.5634 12.968 21.4994 13.24H19.5794C19.5154 12.968 19.4834 12.648 19.4834 12.28C19.4834 11.896 19.5154 11.576 19.5794 11.32H16.6994C16.7634 11.576 16.7954 11.896 16.7954 12.28C16.7954 12.648 16.7634 12.968 16.6994 13.24H15.7394C15.8034 13.496 15.8354 13.816 15.8354 14.2C15.8354 14.568 15.8034 14.888 15.7394 15.16H16.6994C16.7634 15.416 16.7954 15.736 16.7954 16.12C16.7954 16.488 16.7634 16.808 16.6994 17.08H19.5794C19.5154 16.808 19.4834 16.488 19.4834 16.12C19.4834 15.736 19.5154 15.416 19.5794 15.16H21.4994ZM31.1088 11.32C31.1728 11.576 31.2048 11.896 31.2048 12.28C31.2048 12.648 31.1728 12.968 31.1088 13.24H29.1888C29.1248 12.968 29.0928 12.648 29.0928 12.28C29.0928 11.896 29.1248 11.576 29.1888 11.32H27.5088C27.5728 11.576 27.6048 11.896 27.6048 12.28C27.6048 12.648 27.5728 12.968 27.5088 13.24H26.7888C26.8528 13.496 26.8848 13.816 26.8848 14.2C26.8848 14.568 26.8528 14.888 26.7888 15.16C26.8528 15.416 26.8848 15.736 26.8848 16.12C26.8848 16.488 26.8528 16.808 26.7888 17.08H28.2288C28.2928 17.336 28.3248 17.656 28.3248 18.04C28.3248 18.408 28.2928 18.728 28.2288 19H23.4288C23.3648 18.728 23.3328 18.408 23.3328 18.04C23.3328 17.656 23.3648 17.336 23.4288 17.08H24.8688C24.8048 16.808 24.7728 16.488 24.7728 16.12C24.7728 15.736 24.8048 15.416 24.8688 15.16C24.8048 14.888 24.7728 14.568 24.7728 14.2C24.7728 13.816 24.8048 13.496 24.8688 13.24C24.8048 12.968 24.7728 12.648 24.7728 12.28C24.7728 11.896 24.8048 11.576 24.8688 11.32H23.4288C23.3648 11.048 23.3328 10.728 23.3328 10.36C23.3328 9.976 23.3648 9.656 23.4288 9.4H25.8288C25.8928 9.656 25.9248 9.976 25.9248 10.36C25.9248 10.728 25.8928 11.048 25.8288 11.32H26.7888C26.7248 11.048 26.6928 10.728 26.6928 10.36C26.6928 9.976 26.7248 9.656 26.7888 9.4H30.3888C30.4528 9.656 30.4848 9.976 30.4848 10.36C30.4848 10.728 30.4528 11.048 30.3888 11.32H31.1088ZM40.8141 14.2C40.8141 14.568 40.7821 14.888 40.7181 15.16H39.9981C40.0621 15.416 40.0941 15.736 40.0941 16.12C40.0941 16.488 40.0621 16.808 39.9981 17.08H38.7981C38.8621 17.336 38.8941 17.656 38.8941 18.04C38.8941 18.408 38.8621 18.728 38.7981 19H34.9581C34.8941 18.728 34.8621 18.408 34.8621 18.04C34.8621 17.656 34.8941 17.336 34.9581 17.08H33.7581C33.6941 16.808 33.6621 16.488 33.6621 16.12C33.6621 15.736 33.6941 15.416 33.7581 15.16H33.0381C32.9741 14.888 32.9421 14.568 32.9421 14.2C32.9421 13.816 32.9741 13.496 33.0381 13.24H33.7581C33.6941 12.968 33.6621 12.648 33.6621 12.28C33.6621 11.896 33.6941 11.576 33.7581 11.32H34.9581C34.8941 11.048 34.8621 10.728 34.8621 10.36C34.8621 9.976 34.8941 9.656 34.9581 9.4H38.7981C38.8621 9.656 38.8941 9.976 38.8941 10.36C38.8941 10.728 38.8621 11.048 38.7981 11.32H39.9981C40.0621 11.576 40.0941 11.896 40.0941 12.28C40.0941 12.648 40.0621 12.968 39.9981 13.24H40.7181C40.7821 13.496 40.8141 13.816 40.8141 14.2ZM38.7981 15.16C38.7341 14.888 38.7021 14.568 38.7021 14.2C38.7021 13.816 38.7341 13.496 38.7981 13.24H38.0781C38.0141 12.968 37.9821 12.648 37.9821 12.28C37.9821 11.896 38.0141 11.576 38.0781 11.32H35.6781C35.7421 11.576 35.7741 11.896 35.7741 12.28C35.7741 12.648 35.7421 12.968 35.6781 13.24H34.9581C35.0221 13.496 35.0541 13.816 35.0541 14.2C35.0541 14.568 35.0221 14.888 34.9581 15.16H35.6781C35.7421 15.416 35.7741 15.736 35.7741 16.12C35.7741 16.488 35.7421 16.808 35.6781 17.08H38.0781C38.0141 16.808 37.9821 16.488 37.9821 16.12C37.9821 15.736 38.0141 15.416 38.0781 15.16H38.7981ZM49.3675 17.08C49.4315 17.336 49.4635 17.656 49.4635 18.04C49.4635 18.408 49.4315 18.728 49.3675 19H43.6075C43.5435 18.728 43.5115 18.408 43.5115 18.04C43.5115 17.656 43.5435 17.336 43.6075 17.08H45.5275C45.4635 16.808 45.4315 16.488 45.4315 16.12C45.4315 15.736 45.4635 15.416 45.5275 15.16C45.4635 14.888 45.4315 14.568 45.4315 14.2C45.4315 13.816 45.4635 13.496 45.5275 13.24C45.4635 12.968 45.4315 12.648 45.4315 12.28C45.4315 11.896 45.4635 11.576 45.5275 11.32C45.4635 11.048 45.4315 10.728 45.4315 10.36C45.4315 9.976 45.4635 9.656 45.5275 9.4C45.4635 9.128 45.4315 8.808 45.4315 8.44C45.4315 8.056 45.4635 7.736 45.5275 7.48H44.0875C44.0235 7.208 43.9915 6.888 43.9915 6.52C43.9915 6.136 44.0235 5.816 44.0875 5.56H47.4475C47.5115 5.816 47.5435 6.136 47.5435 6.52C47.5435 6.888 47.5115 7.208 47.4475 7.48C47.5115 7.736 47.5435 8.056 47.5435 8.44C47.5435 8.808 47.5115 9.128 47.4475 9.4C47.5115 9.656 47.5435 9.976 47.5435 10.36C47.5435 10.728 47.5115 11.048 47.4475 11.32C47.5115 11.576 47.5435 11.896 47.5435 12.28C47.5435 12.648 47.5115 12.968 47.4475 13.24C47.5115 13.496 47.5435 13.816 47.5435 14.2C47.5435 14.568 47.5115 14.888 47.4475 15.16C47.5115 15.416 47.5435 15.736 47.5435 16.12C47.5435 16.488 47.5115 16.808 47.4475 17.08H49.3675ZM58.9769 17.08C59.0409 17.336 59.0729 17.656 59.0729 18.04C59.0729 18.408 59.0409 18.728 58.9769 19H53.2169C53.1529 18.728 53.1209 18.408 53.1209 18.04C53.1209 17.656 53.1529 17.336 53.2169 17.08H55.1369C55.0729 16.808 55.0409 16.488 55.0409 16.12C55.0409 15.736 55.0729 15.416 55.1369 15.16C55.0729 14.888 55.0409 14.568 55.0409 14.2C55.0409 13.816 55.0729 13.496 55.1369 13.24C55.0729 12.968 55.0409 12.648 55.0409 12.28C55.0409 11.896 55.0729 11.576 55.1369 11.32C55.0729 11.048 55.0409 10.728 55.0409 10.36C55.0409 9.976 55.0729 9.656 55.1369 9.4C55.0729 9.128 55.0409 8.808 55.0409 8.44C55.0409 8.056 55.0729 7.736 55.1369 7.48H53.6969C53.6329 7.208 53.6009 6.888 53.6009 6.52C53.6009 6.136 53.6329 5.816 53.6969 5.56H57.0569C57.1209 5.816 57.1529 6.136 57.1529 6.52C57.1529 6.888 57.1209 7.208 57.0569 7.48C57.1209 7.736 57.1529 8.056 57.1529 8.44C57.1529 8.808 57.1209 9.128 57.0569 9.4C57.1209 9.656 57.1529 9.976 57.1529 10.36C57.1529 10.728 57.1209 11.048 57.0569 11.32C57.1209 11.576 57.1529 11.896 57.1529 12.28C57.1529 12.648 57.1209 12.968 57.0569 13.24C57.1209 13.496 57.1529 13.816 57.1529 14.2C57.1529 14.568 57.1209 14.888 57.0569 15.16C57.1209 15.416 57.1529 15.736 57.1529 16.12C57.1529 16.488 57.1209 16.808 57.0569 17.08H58.9769ZM79.1556 7.48C79.2196 7.736 79.2516 8.056 79.2516 8.44C79.2516 8.808 79.2196 9.128 79.1556 9.4C79.2196 9.656 79.2516 9.976 79.2516 10.36C79.2516 10.728 79.2196 11.048 79.1556 11.32C79.2196 11.576 79.2516 11.896 79.2516 12.28C79.2516 12.648 79.2196 12.968 79.1556 13.24C79.2196 13.496 79.2516 13.816 79.2516 14.2C79.2516 14.568 79.2196 14.888 79.1556 15.16C79.2196 15.416 79.2516 15.736 79.2516 16.12C79.2516 16.488 79.2196 16.808 79.1556 17.08C79.2196 17.336 79.2516 17.656 79.2516 18.04C79.2516 18.408 79.2196 18.728 79.1556 19H77.2356C77.1716 18.728 77.1396 18.408 77.1396 18.04C77.1396 17.656 77.1716 17.336 77.2356 17.08H76.5156C76.4516 16.808 76.4196 16.488 76.4196 16.12C76.4196 15.736 76.4516 15.416 76.5156 15.16H77.2356C77.1716 14.888 77.1396 14.568 77.1396 14.2C77.1396 13.816 77.1716 13.496 77.2356 13.24H76.5156C76.4516 12.968 76.4196 12.648 76.4196 12.28C76.4196 11.896 76.4516 11.576 76.5156 11.32H77.2356C77.1716 11.048 77.1396 10.728 77.1396 10.36C77.1396 9.976 77.1716 9.656 77.2356 9.4C77.1716 9.128 77.1396 8.808 77.1396 8.44C77.1396 8.056 77.1716 7.736 77.2356 7.48C77.1716 7.208 77.1396 6.888 77.1396 6.52C77.1396 6.136 77.1716 5.816 77.2356 5.56H79.1556C79.2196 5.816 79.2516 6.136 79.2516 6.52C79.2516 6.888 79.2196 7.208 79.1556 7.48ZM76.1316 10.36C76.1316 10.728 76.0996 11.048 76.0356 11.32H73.6356C73.6996 11.576 73.7316 11.896 73.7316 12.28C73.7316 12.648 73.6996 12.968 73.6356 13.24H72.9156C72.9796 13.496 73.0116 13.816 73.0116 14.2C73.0116 14.568 72.9796 14.888 72.9156 15.16H73.6356C73.6996 15.416 73.7316 15.736 73.7316 16.12C73.7316 16.488 73.6996 16.808 73.6356 17.08H76.0356C76.0996 17.336 76.1316 17.656 76.1316 18.04C76.1316 18.408 76.0996 18.728 76.0356 19H73.3956C73.3316 18.728 73.2996 18.408 73.2996 18.04C73.2996 17.656 73.3316 17.336 73.3956 17.08H72.1956C72.1316 16.808 72.0996 16.488 72.0996 16.12C72.0996 15.736 72.1316 15.416 72.1956 15.16H71.4756C71.4116 14.888 71.3796 14.568 71.3796 14.2C71.3796 13.816 71.4116 13.496 71.4756 13.24H72.1956C72.1316 12.968 72.0996 12.648 72.0996 12.28C72.0996 11.896 72.1316 11.576 72.1956 11.32H73.3956C73.3316 11.048 73.2996 10.728 73.2996 10.36C73.2996 9.976 73.3316 9.656 73.3956 9.4H76.0356C76.0996 9.656 76.1316 9.976 76.1316 10.36ZM88.861 14.2C88.861 14.568 88.829 14.888 88.765 15.16H88.045C88.109 15.416 88.141 15.736 88.141 16.12C88.141 16.488 88.109 16.808 88.045 17.08H86.845C86.909 17.336 86.941 17.656 86.941 18.04C86.941 18.408 86.909 18.728 86.845 19H83.005C82.941 18.728 82.909 18.408 82.909 18.04C82.909 17.656 82.941 17.336 83.005 17.08H81.805C81.741 16.808 81.709 16.488 81.709 16.12C81.709 15.736 81.741 15.416 81.805 15.16H81.085C81.021 14.888 80.989 14.568 80.989 14.2C80.989 13.816 81.021 13.496 81.085 13.24H81.805C81.741 12.968 81.709 12.648 81.709 12.28C81.709 11.896 81.741 11.576 81.805 11.32H83.005C82.941 11.048 82.909 10.728 82.909 10.36C82.909 9.976 82.941 9.656 83.005 9.4H86.845C86.909 9.656 86.941 9.976 86.941 10.36C86.941 10.728 86.909 11.048 86.845 11.32H88.045C88.109 11.576 88.141 11.896 88.141 12.28C88.141 12.648 88.109 12.968 88.045 13.24H88.765C88.829 13.496 88.861 13.816 88.861 14.2ZM86.845 15.16C86.781 14.888 86.749 14.568 86.749 14.2C86.749 13.816 86.781 13.496 86.845 13.24H86.125C86.061 12.968 86.029 12.648 86.029 12.28C86.029 11.896 86.061 11.576 86.125 11.32H83.725C83.789 11.576 83.821 11.896 83.821 12.28C83.821 12.648 83.789 12.968 83.725 13.24H83.005C83.069 13.496 83.101 13.816 83.101 14.2C83.101 14.568 83.069 14.888 83.005 15.16H83.725C83.789 15.416 83.821 15.736 83.821 16.12C83.821 16.488 83.789 16.808 83.725 17.08H86.125C86.061 16.808 86.029 16.488 86.029 16.12C86.029 15.736 86.061 15.416 86.125 15.16H86.845ZM98.4704 10.36C98.4704 10.728 98.4384 11.048 98.3744 11.32C98.4384 11.576 98.4704 11.896 98.4704 12.28C98.4704 12.648 98.4384 12.968 98.3744 13.24H97.6544C97.7184 13.496 97.7504 13.816 97.7504 14.2C97.7504 14.568 97.7184 14.888 97.6544 15.16C97.7184 15.416 97.7504 15.736 97.7504 16.12C97.7504 16.488 97.7184 16.808 97.6544 17.08H97.1744C97.2384 17.336 97.2704 17.656 97.2704 18.04C97.2704 18.408 97.2384 18.728 97.1744 19H95.7344C95.6704 18.728 95.6384 18.408 95.6384 18.04C95.6384 17.656 95.6704 17.336 95.7344 17.08H95.2544C95.1904 16.808 95.1584 16.488 95.1584 16.12C95.1584 15.736 95.1904 15.416 95.2544 15.16H93.8144C93.8784 15.416 93.9104 15.736 93.9104 16.12C93.9104 16.488 93.8784 16.808 93.8144 17.08H93.3344C93.3984 17.336 93.4304 17.656 93.4304 18.04C93.4304 18.408 93.3984 18.728 93.3344 19H91.8944C91.8304 18.728 91.7984 18.408 91.7984 18.04C91.7984 17.656 91.8304 17.336 91.8944 17.08H91.4144C91.3504 16.808 91.3184 16.488 91.3184 16.12C91.3184 15.736 91.3504 15.416 91.4144 15.16C91.3504 14.888 91.3184 14.568 91.3184 14.2C91.3184 13.816 91.3504 13.496 91.4144 13.24H90.6944C90.6304 12.968 90.5984 12.648 90.5984 12.28C90.5984 11.896 90.6304 11.576 90.6944 11.32C90.6304 11.048 90.5984 10.728 90.5984 10.36C90.5984 9.976 90.6304 9.656 90.6944 9.4H92.6144C92.6784 9.656 92.7104 9.976 92.7104 10.36C92.7104 10.728 92.6784 11.048 92.6144 11.32C92.6784 11.576 92.7104 11.896 92.7104 12.28C92.7104 12.648 92.6784 12.968 92.6144 13.24C92.6784 13.496 92.7104 13.816 92.7104 14.2C92.7104 14.568 92.6784 14.888 92.6144 15.16H93.3344C93.2704 14.888 93.2384 14.568 93.2384 14.2C93.2384 13.816 93.2704 13.496 93.3344 13.24H93.8144C93.7504 12.968 93.7184 12.648 93.7184 12.28C93.7184 11.896 93.7504 11.576 93.8144 11.32C93.7504 11.048 93.7184 10.728 93.7184 10.36C93.7184 9.976 93.7504 9.656 93.8144 9.4H95.2544C95.3184 9.656 95.3504 9.976 95.3504 10.36C95.3504 10.728 95.3184 11.048 95.2544 11.32C95.3184 11.576 95.3504 11.896 95.3504 12.28C95.3504 12.648 95.3184 12.968 95.2544 13.24H95.7344C95.7984 13.496 95.8304 13.816 95.8304 14.2C95.8304 14.568 95.7984 14.888 95.7344 15.16H96.4544C96.3904 14.888 96.3584 14.568 96.3584 14.2C96.3584 13.816 96.3904 13.496 96.4544 13.24C96.3904 12.968 96.3584 12.648 96.3584 12.28C96.3584 11.896 96.3904 11.576 96.4544 11.32C96.3904 11.048 96.3584 10.728 96.3584 10.36C96.3584 9.976 96.3904 9.656 96.4544 9.4H98.3744C98.4384 9.656 98.4704 9.976 98.4704 10.36ZM102.08 10.36C102.08 10.728 102.048 11.048 101.984 11.32H102.944C103.008 11.576 103.04 11.896 103.04 12.28C103.04 12.648 103.008 12.968 102.944 13.24H102.224C102.288 13.496 102.32 13.816 102.32 14.2C102.32 14.568 102.288 14.888 102.224 15.16C102.288 15.416 102.32 15.736 102.32 16.12C102.32 16.488 102.288 16.808 102.224 17.08C102.288 17.336 102.32 17.656 102.32 18.04C102.32 18.408 102.288 18.728 102.224 19H100.304C100.24 18.728 100.208 18.408 100.208 18.04C100.208 17.656 100.24 17.336 100.304 17.08C100.24 16.808 100.208 16.488 100.208 16.12C100.208 15.736 100.24 15.416 100.304 15.16C100.24 14.888 100.208 14.568 100.208 14.2C100.208 13.816 100.24 13.496 100.304 13.24C100.24 12.968 100.208 12.648 100.208 12.28C100.208 11.896 100.24 11.576 100.304 11.32C100.24 11.048 100.208 10.728 100.208 10.36C100.208 9.976 100.24 9.656 100.304 9.4H101.984C102.048 9.656 102.08 9.976 102.08 10.36ZM107.984 13.24C108.048 13.496 108.08 13.816 108.08 14.2C108.08 14.568 108.048 14.888 107.984 15.16C108.048 15.416 108.08 15.736 108.08 16.12C108.08 16.488 108.048 16.808 107.984 17.08C108.048 17.336 108.08 17.656 108.08 18.04C108.08 18.408 108.048 18.728 107.984 19H106.064C106 18.728 105.968 18.408 105.968 18.04C105.968 17.656 106 17.336 106.064 17.08C106 16.808 105.968 16.488 105.968 16.12C105.968 15.736 106 15.416 106.064 15.16C106 14.888 105.968 14.568 105.968 14.2C105.968 13.816 106 13.496 106.064 13.24C106 12.968 105.968 12.648 105.968 12.28C105.968 11.896 106 11.576 106.064 11.32H102.944C102.88 11.048 102.848 10.728 102.848 10.36C102.848 9.976 102.88 9.656 102.944 9.4H106.784C106.848 9.656 106.88 9.976 106.88 10.36C106.88 10.728 106.848 11.048 106.784 11.32H107.984C108.048 11.576 108.08 11.896 108.08 12.28C108.08 12.648 108.048 12.968 107.984 13.24ZM126.243 9.4C126.307 9.656 126.339 9.976 126.339 10.36C126.339 10.728 126.307 11.048 126.243 11.32H123.363C123.427 11.576 123.459 11.896 123.459 12.28C123.459 12.648 123.427 12.968 123.363 13.24C123.427 13.496 123.459 13.816 123.459 14.2C123.459 14.568 123.427 14.888 123.363 15.16C123.427 15.416 123.459 15.736 123.459 16.12C123.459 16.488 123.427 16.808 123.363 17.08H125.283C125.347 17.336 125.379 17.656 125.379 18.04C125.379 18.408 125.347 18.728 125.283 19H120.483C120.419 18.728 120.387 18.408 120.387 18.04C120.387 17.656 120.419 17.336 120.483 17.08H121.443C121.379 16.808 121.347 16.488 121.347 16.12C121.347 15.736 121.379 15.416 121.443 15.16C121.379 14.888 121.347 14.568 121.347 14.2C121.347 13.816 121.379 13.496 121.443 13.24C121.379 12.968 121.347 12.648 121.347 12.28C121.347 11.896 121.379 11.576 121.443 11.32H120.483C120.419 11.048 120.387 10.728 120.387 10.36C120.387 9.976 120.419 9.656 120.483 9.4H121.443C121.379 9.128 121.347 8.808 121.347 8.44C121.347 8.056 121.379 7.736 121.443 7.48H122.403C122.339 7.208 122.307 6.888 122.307 6.52C122.307 6.136 122.339 5.816 122.403 5.56H126.243C126.307 5.816 126.339 6.136 126.339 6.52C126.339 6.888 126.307 7.208 126.243 7.48H123.363C123.427 7.736 123.459 8.056 123.459 8.44C123.459 8.808 123.427 9.128 123.363 9.4H126.243ZM136.908 14.2C136.908 14.568 136.876 14.888 136.812 15.16H136.092C136.156 15.416 136.188 15.736 136.188 16.12C136.188 16.488 136.156 16.808 136.092 17.08H134.892C134.956 17.336 134.988 17.656 134.988 18.04C134.988 18.408 134.956 18.728 134.892 19H131.052C130.988 18.728 130.956 18.408 130.956 18.04C130.956 17.656 130.988 17.336 131.052 17.08H129.852C129.788 16.808 129.756 16.488 129.756 16.12C129.756 15.736 129.788 15.416 129.852 15.16H129.132C129.068 14.888 129.036 14.568 129.036 14.2C129.036 13.816 129.068 13.496 129.132 13.24H129.852C129.788 12.968 129.756 12.648 129.756 12.28C129.756 11.896 129.788 11.576 129.852 11.32H131.052C130.988 11.048 130.956 10.728 130.956 10.36C130.956 9.976 130.988 9.656 131.052 9.4H134.892C134.956 9.656 134.988 9.976 134.988 10.36C134.988 10.728 134.956 11.048 134.892 11.32H136.092C136.156 11.576 136.188 11.896 136.188 12.28C136.188 12.648 136.156 12.968 136.092 13.24H136.812C136.876 13.496 136.908 13.816 136.908 14.2ZM134.892 15.16C134.828 14.888 134.796 14.568 134.796 14.2C134.796 13.816 134.828 13.496 134.892 13.24H134.172C134.108 12.968 134.076 12.648 134.076 12.28C134.076 11.896 134.108 11.576 134.172 11.32H131.772C131.836 11.576 131.868 11.896 131.868 12.28C131.868 12.648 131.836 12.968 131.772 13.24H131.052C131.116 13.496 131.148 13.816 131.148 14.2C131.148 14.568 131.116 14.888 131.052 15.16H131.772C131.836 15.416 131.868 15.736 131.868 16.12C131.868 16.488 131.836 16.808 131.772 17.08H134.172C134.108 16.808 134.076 16.488 134.076 16.12C134.076 15.736 134.108 15.416 134.172 15.16H134.892ZM146.421 11.32C146.485 11.576 146.517 11.896 146.517 12.28C146.517 12.648 146.485 12.968 146.421 13.24H144.501C144.437 12.968 144.405 12.648 144.405 12.28C144.405 11.896 144.437 11.576 144.501 11.32H142.821C142.885 11.576 142.917 11.896 142.917 12.28C142.917 12.648 142.885 12.968 142.821 13.24H142.101C142.165 13.496 142.197 13.816 142.197 14.2C142.197 14.568 142.165 14.888 142.101 15.16C142.165 15.416 142.197 15.736 142.197 16.12C142.197 16.488 142.165 16.808 142.101 17.08H143.541C143.605 17.336 143.637 17.656 143.637 18.04C143.637 18.408 143.605 18.728 143.541 19H138.741C138.677 18.728 138.645 18.408 138.645 18.04C138.645 17.656 138.677 17.336 138.741 17.08H140.181C140.117 16.808 140.085 16.488 140.085 16.12C140.085 15.736 140.117 15.416 140.181 15.16C140.117 14.888 140.085 14.568 140.085 14.2C140.085 13.816 140.117 13.496 140.181 13.24C140.117 12.968 140.085 12.648 140.085 12.28C140.085 11.896 140.117 11.576 140.181 11.32H138.741C138.677 11.048 138.645 10.728 138.645 10.36C138.645 9.976 138.677 9.656 138.741 9.4H141.141C141.205 9.656 141.237 9.976 141.237 10.36C141.237 10.728 141.205 11.048 141.141 11.32H142.101C142.037 11.048 142.005 10.728 142.005 10.36C142.005 9.976 142.037 9.656 142.101 9.4H145.701C145.765 9.656 145.797 9.976 145.797 10.36C145.797 10.728 145.765 11.048 145.701 11.32H146.421ZM159.256 10.36C159.256 10.728 159.224 11.048 159.16 11.32H159.88C159.944 11.576 159.976 11.896 159.976 12.28C159.976 12.648 159.944 12.968 159.88 13.24C159.944 13.496 159.976 13.816 159.976 14.2C159.976 14.568 159.944 14.888 159.88 15.16C159.944 15.416 159.976 15.736 159.976 16.12C159.976 16.488 159.944 16.808 159.88 17.08C159.944 17.336 159.976 17.656 159.976 18.04C159.976 18.408 159.944 18.728 159.88 19H157.96C157.896 18.728 157.864 18.408 157.864 18.04C157.864 17.656 157.896 17.336 157.96 17.08C157.896 16.808 157.864 16.488 157.864 16.12C157.864 15.736 157.896 15.416 157.96 15.16C157.896 14.888 157.864 14.568 157.864 14.2C157.864 13.816 157.896 13.496 157.96 13.24C157.896 12.968 157.864 12.648 157.864 12.28C157.864 11.896 157.896 11.576 157.96 11.32C157.896 11.048 157.864 10.728 157.864 10.36C157.864 9.976 157.896 9.656 157.96 9.4H159.16C159.224 9.656 159.256 9.976 159.256 10.36ZM161.896 10.36C161.896 10.728 161.864 11.048 161.8 11.32H162.52C162.584 11.576 162.616 11.896 162.616 12.28C162.616 12.648 162.584 12.968 162.52 13.24C162.584 13.496 162.616 13.816 162.616 14.2C162.616 14.568 162.584 14.888 162.52 15.16C162.584 15.416 162.616 15.736 162.616 16.12C162.616 16.488 162.584 16.808 162.52 17.08C162.584 17.336 162.616 17.656 162.616 18.04C162.616 18.408 162.584 18.728 162.52 19H161.08C161.016 18.728 160.984 18.408 160.984 18.04C160.984 17.656 161.016 17.336 161.08 17.08C161.016 16.808 160.984 16.488 160.984 16.12C160.984 15.736 161.016 15.416 161.08 15.16C161.016 14.888 160.984 14.568 160.984 14.2C160.984 13.816 161.016 13.496 161.08 13.24C161.016 12.968 160.984 12.648 160.984 12.28C160.984 11.896 161.016 11.576 161.08 11.32H159.88C159.816 11.048 159.784 10.728 159.784 10.36C159.784 9.976 159.816 9.656 159.88 9.4H161.8C161.864 9.656 161.896 9.976 161.896 10.36ZM165.64 13.24C165.704 13.496 165.736 13.816 165.736 14.2C165.736 14.568 165.704 14.888 165.64 15.16C165.704 15.416 165.736 15.736 165.736 16.12C165.736 16.488 165.704 16.808 165.64 17.08C165.704 17.336 165.736 17.656 165.736 18.04C165.736 18.408 165.704 18.728 165.64 19H163.72C163.656 18.728 163.624 18.408 163.624 18.04C163.624 17.656 163.656 17.336 163.72 17.08C163.656 16.808 163.624 16.488 163.624 16.12C163.624 15.736 163.656 15.416 163.72 15.16C163.656 14.888 163.624 14.568 163.624 14.2C163.624 13.816 163.656 13.496 163.72 13.24C163.656 12.968 163.624 12.648 163.624 12.28C163.624 11.896 163.656 11.576 163.72 11.32H162.52C162.456 11.048 162.424 10.728 162.424 10.36C162.424 9.976 162.456 9.656 162.52 9.4H164.68C164.744 9.656 164.776 9.976 164.776 10.36C164.776 10.728 164.744 11.048 164.68 11.32H165.64C165.704 11.576 165.736 11.896 165.736 12.28C165.736 12.648 165.704 12.968 165.64 13.24ZM175.345 14.2C175.345 14.568 175.313 14.888 175.249 15.16H174.529C174.593 15.416 174.625 15.736 174.625 16.12C174.625 16.488 174.593 16.808 174.529 17.08H173.329C173.393 17.336 173.425 17.656 173.425 18.04C173.425 18.408 173.393 18.728 173.329 19H169.489C169.425 18.728 169.393 18.408 169.393 18.04C169.393 17.656 169.425 17.336 169.489 17.08H168.289C168.225 16.808 168.193 16.488 168.193 16.12C168.193 15.736 168.225 15.416 168.289 15.16H167.569C167.505 14.888 167.473 14.568 167.473 14.2C167.473 13.816 167.505 13.496 167.569 13.24H168.289C168.225 12.968 168.193 12.648 168.193 12.28C168.193 11.896 168.225 11.576 168.289 11.32H169.489C169.425 11.048 169.393 10.728 169.393 10.36C169.393 9.976 169.425 9.656 169.489 9.4H173.329C173.393 9.656 173.425 9.976 173.425 10.36C173.425 10.728 173.393 11.048 173.329 11.32H174.529C174.593 11.576 174.625 11.896 174.625 12.28C174.625 12.648 174.593 12.968 174.529 13.24H175.249C175.313 13.496 175.345 13.816 175.345 14.2ZM173.329 15.16C173.265 14.888 173.233 14.568 173.233 14.2C173.233 13.816 173.265 13.496 173.329 13.24H172.609C172.545 12.968 172.513 12.648 172.513 12.28C172.513 11.896 172.545 11.576 172.609 11.32H170.209C170.273 11.576 170.305 11.896 170.305 12.28C170.305 12.648 170.273 12.968 170.209 13.24H169.489C169.553 13.496 169.585 13.816 169.585 14.2C169.585 14.568 169.553 14.888 169.489 15.16H170.209C170.273 15.416 170.305 15.736 170.305 16.12C170.305 16.488 170.273 16.808 170.209 17.08H172.609C172.545 16.808 172.513 16.488 172.513 16.12C172.513 15.736 172.545 15.416 172.609 15.16H173.329ZM184.859 11.32C184.923 11.576 184.955 11.896 184.955 12.28C184.955 12.648 184.923 12.968 184.859 13.24H182.939C182.875 12.968 182.843 12.648 182.843 12.28C182.843 11.896 182.875 11.576 182.939 11.32H181.259C181.323 11.576 181.355 11.896 181.355 12.28C181.355 12.648 181.323 12.968 181.259 13.24H180.539C180.603 13.496 180.635 13.816 180.635 14.2C180.635 14.568 180.603 14.888 180.539 15.16C180.603 15.416 180.635 15.736 180.635 16.12C180.635 16.488 180.603 16.808 180.539 17.08H181.979C182.043 17.336 182.075 17.656 182.075 18.04C182.075 18.408 182.043 18.728 181.979 19H177.179C177.115 18.728 177.083 18.408 177.083 18.04C177.083 17.656 177.115 17.336 177.179 17.08H178.619C178.555 16.808 178.523 16.488 178.523 16.12C178.523 15.736 178.555 15.416 178.619 15.16C178.555 14.888 178.523 14.568 178.523 14.2C178.523 13.816 178.555 13.496 178.619 13.24C178.555 12.968 178.523 12.648 178.523 12.28C178.523 11.896 178.555 11.576 178.619 11.32H177.179C177.115 11.048 177.083 10.728 177.083 10.36C177.083 9.976 177.115 9.656 177.179 9.4H179.579C179.643 9.656 179.675 9.976 179.675 10.36C179.675 10.728 179.643 11.048 179.579 11.32H180.539C180.475 11.048 180.443 10.728 180.443 10.36C180.443 9.976 180.475 9.656 180.539 9.4H184.139C184.203 9.656 184.235 9.976 184.235 10.36C184.235 10.728 184.203 11.048 184.139 11.32H184.859ZM194.564 12.28C194.564 12.648 194.532 12.968 194.468 13.24C194.532 13.496 194.564 13.816 194.564 14.2C194.564 14.568 194.532 14.888 194.468 15.16H189.428C189.492 15.416 189.524 15.736 189.524 16.12C189.524 16.488 189.492 16.808 189.428 17.08H193.508C193.572 17.336 193.604 17.656 193.604 18.04C193.604 18.408 193.572 18.728 193.508 19H188.708C188.644 18.728 188.612 18.408 188.612 18.04C188.612 17.656 188.644 17.336 188.708 17.08H187.508C187.444 16.808 187.412 16.488 187.412 16.12C187.412 15.736 187.444 15.416 187.508 15.16H186.788C186.724 14.888 186.692 14.568 186.692 14.2C186.692 13.816 186.724 13.496 186.788 13.24H187.508C187.444 12.968 187.412 12.648 187.412 12.28C187.412 11.896 187.444 11.576 187.508 11.32H188.708C188.644 11.048 188.612 10.728 188.612 10.36C188.612 9.976 188.644 9.656 188.708 9.4H193.508C193.572 9.656 193.604 9.976 193.604 10.36C193.604 10.728 193.572 11.048 193.508 11.32H194.468C194.532 11.576 194.564 11.896 194.564 12.28ZM192.548 13.24C192.484 12.968 192.452 12.648 192.452 12.28C192.452 11.896 192.484 11.576 192.548 11.32H189.428C189.492 11.576 189.524 11.896 189.524 12.28C189.524 12.648 189.492 12.968 189.428 13.24H192.548ZM208.887 7.48C208.823 7.208 208.791 6.888 208.791 6.52C208.791 6.136 208.823 5.816 208.887 5.56H210.807C210.871 5.816 210.903 6.136 210.903 6.52C210.903 6.888 210.871 7.208 210.807 7.48H208.887ZM212.727 17.08C212.791 17.336 212.823 17.656 212.823 18.04C212.823 18.408 212.791 18.728 212.727 19H206.967C206.903 18.728 206.871 18.408 206.871 18.04C206.871 17.656 206.903 17.336 206.967 17.08H208.887C208.823 16.808 208.791 16.488 208.791 16.12C208.791 15.736 208.823 15.416 208.887 15.16C208.823 14.888 208.791 14.568 208.791 14.2C208.791 13.816 208.823 13.496 208.887 13.24C208.823 12.968 208.791 12.648 208.791 12.28C208.791 11.896 208.823 11.576 208.887 11.32H207.447C207.383 11.048 207.351 10.728 207.351 10.36C207.351 9.976 207.383 9.656 207.447 9.4H210.807C210.871 9.656 210.903 9.976 210.903 10.36C210.903 10.728 210.871 11.048 210.807 11.32C210.871 11.576 210.903 11.896 210.903 12.28C210.903 12.648 210.871 12.968 210.807 13.24C210.871 13.496 210.903 13.816 210.903 14.2C210.903 14.568 210.871 14.888 210.807 15.16C210.871 15.416 210.903 15.736 210.903 16.12C210.903 16.488 210.871 16.808 210.807 17.08H212.727ZM217.392 10.36C217.392 10.728 217.36 11.048 217.296 11.32H218.256C218.32 11.576 218.352 11.896 218.352 12.28C218.352 12.648 218.32 12.968 218.256 13.24H217.536C217.6 13.496 217.632 13.816 217.632 14.2C217.632 14.568 217.6 14.888 217.536 15.16C217.6 15.416 217.632 15.736 217.632 16.12C217.632 16.488 217.6 16.808 217.536 17.08C217.6 17.336 217.632 17.656 217.632 18.04C217.632 18.408 217.6 18.728 217.536 19H215.616C215.552 18.728 215.52 18.408 215.52 18.04C215.52 17.656 215.552 17.336 215.616 17.08C215.552 16.808 215.52 16.488 215.52 16.12C215.52 15.736 215.552 15.416 215.616 15.16C215.552 14.888 215.52 14.568 215.52 14.2C215.52 13.816 215.552 13.496 215.616 13.24C215.552 12.968 215.52 12.648 215.52 12.28C215.52 11.896 215.552 11.576 215.616 11.32C215.552 11.048 215.52 10.728 215.52 10.36C215.52 9.976 215.552 9.656 215.616 9.4H217.296C217.36 9.656 217.392 9.976 217.392 10.36ZM223.296 13.24C223.36 13.496 223.392 13.816 223.392 14.2C223.392 14.568 223.36 14.888 223.296 15.16C223.36 15.416 223.392 15.736 223.392 16.12C223.392 16.488 223.36 16.808 223.296 17.08C223.36 17.336 223.392 17.656 223.392 18.04C223.392 18.408 223.36 18.728 223.296 19H221.376C221.312 18.728 221.28 18.408 221.28 18.04C221.28 17.656 221.312 17.336 221.376 17.08C221.312 16.808 221.28 16.488 221.28 16.12C221.28 15.736 221.312 15.416 221.376 15.16C221.312 14.888 221.28 14.568 221.28 14.2C221.28 13.816 221.312 13.496 221.376 13.24C221.312 12.968 221.28 12.648 221.28 12.28C221.28 11.896 221.312 11.576 221.376 11.32H218.256C218.192 11.048 218.16 10.728 218.16 10.36C218.16 9.976 218.192 9.656 218.256 9.4H222.096C222.16 9.656 222.192 9.976 222.192 10.36C222.192 10.728 222.16 11.048 222.096 11.32H223.296C223.36 11.576 223.392 11.896 223.392 12.28C223.392 12.648 223.36 12.968 223.296 13.24ZM231.946 9.4C232.01 9.656 232.042 9.976 232.042 10.36C232.042 10.728 232.01 11.048 231.946 11.32H229.066C229.13 11.576 229.162 11.896 229.162 12.28C229.162 12.648 229.13 12.968 229.066 13.24C229.13 13.496 229.162 13.816 229.162 14.2C229.162 14.568 229.13 14.888 229.066 15.16C229.13 15.416 229.162 15.736 229.162 16.12C229.162 16.488 229.13 16.808 229.066 17.08H230.986C231.05 17.336 231.082 17.656 231.082 18.04C231.082 18.408 231.05 18.728 230.986 19H226.186C226.122 18.728 226.09 18.408 226.09 18.04C226.09 17.656 226.122 17.336 226.186 17.08H227.146C227.082 16.808 227.05 16.488 227.05 16.12C227.05 15.736 227.082 15.416 227.146 15.16C227.082 14.888 227.05 14.568 227.05 14.2C227.05 13.816 227.082 13.496 227.146 13.24C227.082 12.968 227.05 12.648 227.05 12.28C227.05 11.896 227.082 11.576 227.146 11.32H226.186C226.122 11.048 226.09 10.728 226.09 10.36C226.09 9.976 226.122 9.656 226.186 9.4H227.146C227.082 9.128 227.05 8.808 227.05 8.44C227.05 8.056 227.082 7.736 227.146 7.48H228.106C228.042 7.208 228.01 6.888 228.01 6.52C228.01 6.136 228.042 5.816 228.106 5.56H231.946C232.01 5.816 232.042 6.136 232.042 6.52C232.042 6.888 232.01 7.208 231.946 7.48H229.066C229.13 7.736 229.162 8.056 229.162 8.44C229.162 8.808 229.13 9.128 229.066 9.4H231.946ZM242.611 14.2C242.611 14.568 242.579 14.888 242.515 15.16H241.795C241.859 15.416 241.891 15.736 241.891 16.12C241.891 16.488 241.859 16.808 241.795 17.08H240.595C240.659 17.336 240.691 17.656 240.691 18.04C240.691 18.408 240.659 18.728 240.595 19H236.755C236.691 18.728 236.659 18.408 236.659 18.04C236.659 17.656 236.691 17.336 236.755 17.08H235.555C235.491 16.808 235.459 16.488 235.459 16.12C235.459 15.736 235.491 15.416 235.555 15.16H234.835C234.771 14.888 234.739 14.568 234.739 14.2C234.739 13.816 234.771 13.496 234.835 13.24H235.555C235.491 12.968 235.459 12.648 235.459 12.28C235.459 11.896 235.491 11.576 235.555 11.32H236.755C236.691 11.048 236.659 10.728 236.659 10.36C236.659 9.976 236.691 9.656 236.755 9.4H240.595C240.659 9.656 240.691 9.976 240.691 10.36C240.691 10.728 240.659 11.048 240.595 11.32H241.795C241.859 11.576 241.891 11.896 241.891 12.28C241.891 12.648 241.859 12.968 241.795 13.24H242.515C242.579 13.496 242.611 13.816 242.611 14.2ZM240.595 15.16C240.531 14.888 240.499 14.568 240.499 14.2C240.499 13.816 240.531 13.496 240.595 13.24H239.875C239.811 12.968 239.779 12.648 239.779 12.28C239.779 11.896 239.811 11.576 239.875 11.32H237.475C237.539 11.576 237.571 11.896 237.571 12.28C237.571 12.648 237.539 12.968 237.475 13.24H236.755C236.819 13.496 236.851 13.816 236.851 14.2C236.851 14.568 236.819 14.888 236.755 15.16H237.475C237.539 15.416 237.571 15.736 237.571 16.12C237.571 16.488 237.539 16.808 237.475 17.08H239.875C239.811 16.808 239.779 16.488 239.779 16.12C239.779 15.736 239.811 15.416 239.875 15.16H240.595ZM252.124 11.32C252.188 11.576 252.22 11.896 252.22 12.28C252.22 12.648 252.188 12.968 252.124 13.24H250.204C250.14 12.968 250.108 12.648 250.108 12.28C250.108 11.896 250.14 11.576 250.204 11.32H248.524C248.588 11.576 248.62 11.896 248.62 12.28C248.62 12.648 248.588 12.968 248.524 13.24H247.804C247.868 13.496 247.9 13.816 247.9 14.2C247.9 14.568 247.868 14.888 247.804 15.16C247.868 15.416 247.9 15.736 247.9 16.12C247.9 16.488 247.868 16.808 247.804 17.08H249.244C249.308 17.336 249.34 17.656 249.34 18.04C249.34 18.408 249.308 18.728 249.244 19H244.444C244.38 18.728 244.348 18.408 244.348 18.04C244.348 17.656 244.38 17.336 244.444 17.08H245.884C245.82 16.808 245.788 16.488 245.788 16.12C245.788 15.736 245.82 15.416 245.884 15.16C245.82 14.888 245.788 14.568 245.788 14.2C245.788 13.816 245.82 13.496 245.884 13.24C245.82 12.968 245.788 12.648 245.788 12.28C245.788 11.896 245.82 11.576 245.884 11.32H244.444C244.38 11.048 244.348 10.728 244.348 10.36C244.348 9.976 244.38 9.656 244.444 9.4H246.844C246.908 9.656 246.94 9.976 246.94 10.36C246.94 10.728 246.908 11.048 246.844 11.32H247.804C247.74 11.048 247.708 10.728 247.708 10.36C247.708 9.976 247.74 9.656 247.804 9.4H251.404C251.468 9.656 251.5 9.976 251.5 10.36C251.5 10.728 251.468 11.048 251.404 11.32H252.124ZM255.35 10.36C255.35 10.728 255.318 11.048 255.254 11.32H255.974C256.038 11.576 256.07 11.896 256.07 12.28C256.07 12.648 256.038 12.968 255.974 13.24C256.038 13.496 256.07 13.816 256.07 14.2C256.07 14.568 256.038 14.888 255.974 15.16C256.038 15.416 256.07 15.736 256.07 16.12C256.07 16.488 256.038 16.808 255.974 17.08C256.038 17.336 256.07 17.656 256.07 18.04C256.07 18.408 256.038 18.728 255.974 19H254.054C253.99 18.728 253.958 18.408 253.958 18.04C253.958 17.656 253.99 17.336 254.054 17.08C253.99 16.808 253.958 16.488 253.958 16.12C253.958 15.736 253.99 15.416 254.054 15.16C253.99 14.888 253.958 14.568 253.958 14.2C253.958 13.816 253.99 13.496 254.054 13.24C253.99 12.968 253.958 12.648 253.958 12.28C253.958 11.896 253.99 11.576 254.054 11.32C253.99 11.048 253.958 10.728 253.958 10.36C253.958 9.976 253.99 9.656 254.054 9.4H255.254C255.318 9.656 255.35 9.976 255.35 10.36ZM257.99 10.36C257.99 10.728 257.958 11.048 257.894 11.32H258.614C258.678 11.576 258.71 11.896 258.71 12.28C258.71 12.648 258.678 12.968 258.614 13.24C258.678 13.496 258.71 13.816 258.71 14.2C258.71 14.568 258.678 14.888 258.614 15.16C258.678 15.416 258.71 15.736 258.71 16.12C258.71 16.488 258.678 16.808 258.614 17.08C258.678 17.336 258.71 17.656 258.71 18.04C258.71 18.408 258.678 18.728 258.614 19H257.174C257.11 18.728 257.078 18.408 257.078 18.04C257.078 17.656 257.11 17.336 257.174 17.08C257.11 16.808 257.078 16.488 257.078 16.12C257.078 15.736 257.11 15.416 257.174 15.16C257.11 14.888 257.078 14.568 257.078 14.2C257.078 13.816 257.11 13.496 257.174 13.24C257.11 12.968 257.078 12.648 257.078 12.28C257.078 11.896 257.11 11.576 257.174 11.32H255.974C255.91 11.048 255.878 10.728 255.878 10.36C255.878 9.976 255.91 9.656 255.974 9.4H257.894C257.958 9.656 257.99 9.976 257.99 10.36ZM261.734 13.24C261.798 13.496 261.83 13.816 261.83 14.2C261.83 14.568 261.798 14.888 261.734 15.16C261.798 15.416 261.83 15.736 261.83 16.12C261.83 16.488 261.798 16.808 261.734 17.08C261.798 17.336 261.83 17.656 261.83 18.04C261.83 18.408 261.798 18.728 261.734 19H259.814C259.75 18.728 259.718 18.408 259.718 18.04C259.718 17.656 259.75 17.336 259.814 17.08C259.75 16.808 259.718 16.488 259.718 16.12C259.718 15.736 259.75 15.416 259.814 15.16C259.75 14.888 259.718 14.568 259.718 14.2C259.718 13.816 259.75 13.496 259.814 13.24C259.75 12.968 259.718 12.648 259.718 12.28C259.718 11.896 259.75 11.576 259.814 11.32H258.614C258.55 11.048 258.518 10.728 258.518 10.36C258.518 9.976 258.55 9.656 258.614 9.4H260.774C260.838 9.656 260.87 9.976 260.87 10.36C260.87 10.728 260.838 11.048 260.774 11.32H261.734C261.798 11.576 261.83 11.896 261.83 12.28C261.83 12.648 261.798 12.968 261.734 13.24ZM271.343 17.08C271.407 17.336 271.439 17.656 271.439 18.04C271.439 18.408 271.407 18.728 271.343 19H269.423C269.359 18.728 269.327 18.408 269.327 18.04C269.327 17.656 269.359 17.336 269.423 17.08H268.463C268.399 16.808 268.367 16.488 268.367 16.12C268.367 15.736 268.399 15.416 268.463 15.16H265.583C265.647 15.416 265.679 15.736 265.679 16.12C265.679 16.488 265.647 16.808 265.583 17.08H268.463C268.527 17.336 268.559 17.656 268.559 18.04C268.559 18.408 268.527 18.728 268.463 19H264.623C264.559 18.728 264.527 18.408 264.527 18.04C264.527 17.656 264.559 17.336 264.623 17.08H263.663C263.599 16.808 263.567 16.488 263.567 16.12C263.567 15.736 263.599 15.416 263.663 15.16H264.623C264.559 14.888 264.527 14.568 264.527 14.2C264.527 13.816 264.559 13.496 264.623 13.24H268.463C268.399 12.968 268.367 12.648 268.367 12.28C268.367 11.896 268.399 11.576 268.463 11.32H265.103C265.039 11.048 265.007 10.728 265.007 10.36C265.007 9.976 265.039 9.656 265.103 9.4H269.423C269.487 9.656 269.519 9.976 269.519 10.36C269.519 10.728 269.487 11.048 269.423 11.32H270.383C270.447 11.576 270.479 11.896 270.479 12.28C270.479 12.648 270.447 12.968 270.383 13.24C270.447 13.496 270.479 13.816 270.479 14.2C270.479 14.568 270.447 14.888 270.383 15.16C270.447 15.416 270.479 15.736 270.479 16.12C270.479 16.488 270.447 16.808 270.383 17.08H271.343ZM279.993 17.08C280.057 17.336 280.089 17.656 280.089 18.04C280.089 18.408 280.057 18.728 279.993 19H276.153C276.089 18.728 276.057 18.408 276.057 18.04C276.057 17.656 276.089 17.336 276.153 17.08H275.193C275.129 16.808 275.097 16.488 275.097 16.12C275.097 15.736 275.129 15.416 275.193 15.16C275.129 14.888 275.097 14.568 275.097 14.2C275.097 13.816 275.129 13.496 275.193 13.24C275.129 12.968 275.097 12.648 275.097 12.28C275.097 11.896 275.129 11.576 275.193 11.32H273.273C273.209 11.048 273.177 10.728 273.177 10.36C273.177 9.976 273.209 9.656 273.273 9.4H275.193C275.129 9.128 275.097 8.808 275.097 8.44C275.097 8.056 275.129 7.736 275.193 7.48C275.129 7.208 275.097 6.888 275.097 6.52C275.097 6.136 275.129 5.816 275.193 5.56H277.113C277.177 5.816 277.209 6.136 277.209 6.52C277.209 6.888 277.177 7.208 277.113 7.48C277.177 7.736 277.209 8.056 277.209 8.44C277.209 8.808 277.177 9.128 277.113 9.4H279.993C280.057 9.656 280.089 9.976 280.089 10.36C280.089 10.728 280.057 11.048 279.993 11.32H277.113C277.177 11.576 277.209 11.896 277.209 12.28C277.209 12.648 277.177 12.968 277.113 13.24C277.177 13.496 277.209 13.816 277.209 14.2C277.209 14.568 277.177 14.888 277.113 15.16C277.177 15.416 277.209 15.736 277.209 16.12C277.209 16.488 277.177 16.808 277.113 17.08H279.993ZM285.762 7.48C285.698 7.208 285.666 6.888 285.666 6.52C285.666 6.136 285.698 5.816 285.762 5.56H287.682C287.746 5.816 287.778 6.136 287.778 6.52C287.778 6.888 287.746 7.208 287.682 7.48H285.762ZM289.602 17.08C289.666 17.336 289.698 17.656 289.698 18.04C289.698 18.408 289.666 18.728 289.602 19H283.842C283.778 18.728 283.746 18.408 283.746 18.04C283.746 17.656 283.778 17.336 283.842 17.08H285.762C285.698 16.808 285.666 16.488 285.666 16.12C285.666 15.736 285.698 15.416 285.762 15.16C285.698 14.888 285.666 14.568 285.666 14.2C285.666 13.816 285.698 13.496 285.762 13.24C285.698 12.968 285.666 12.648 285.666 12.28C285.666 11.896 285.698 11.576 285.762 11.32H284.322C284.258 11.048 284.226 10.728 284.226 10.36C284.226 9.976 284.258 9.656 284.322 9.4H287.682C287.746 9.656 287.778 9.976 287.778 10.36C287.778 10.728 287.746 11.048 287.682 11.32C287.746 11.576 287.778 11.896 287.778 12.28C287.778 12.648 287.746 12.968 287.682 13.24C287.746 13.496 287.778 13.816 287.778 14.2C287.778 14.568 287.746 14.888 287.682 15.16C287.746 15.416 287.778 15.736 287.778 16.12C287.778 16.488 287.746 16.808 287.682 17.08H289.602ZM300.267 14.2C300.267 14.568 300.235 14.888 300.171 15.16H299.451C299.515 15.416 299.547 15.736 299.547 16.12C299.547 16.488 299.515 16.808 299.451 17.08H298.251C298.315 17.336 298.347 17.656 298.347 18.04C298.347 18.408 298.315 18.728 298.251 19H294.411C294.347 18.728 294.315 18.408 294.315 18.04C294.315 17.656 294.347 17.336 294.411 17.08H293.211C293.147 16.808 293.115 16.488 293.115 16.12C293.115 15.736 293.147 15.416 293.211 15.16H292.491C292.427 14.888 292.395 14.568 292.395 14.2C292.395 13.816 292.427 13.496 292.491 13.24H293.211C293.147 12.968 293.115 12.648 293.115 12.28C293.115 11.896 293.147 11.576 293.211 11.32H294.411C294.347 11.048 294.315 10.728 294.315 10.36C294.315 9.976 294.347 9.656 294.411 9.4H298.251C298.315 9.656 298.347 9.976 298.347 10.36C298.347 10.728 298.315 11.048 298.251 11.32H299.451C299.515 11.576 299.547 11.896 299.547 12.28C299.547 12.648 299.515 12.968 299.451 13.24H300.171C300.235 13.496 300.267 13.816 300.267 14.2ZM298.251 15.16C298.187 14.888 298.155 14.568 298.155 14.2C298.155 13.816 298.187 13.496 298.251 13.24H297.531C297.467 12.968 297.435 12.648 297.435 12.28C297.435 11.896 297.467 11.576 297.531 11.32H295.131C295.195 11.576 295.227 11.896 295.227 12.28C295.227 12.648 295.195 12.968 295.131 13.24H294.411C294.475 13.496 294.507 13.816 294.507 14.2C294.507 14.568 294.475 14.888 294.411 15.16H295.131C295.195 15.416 295.227 15.736 295.227 16.12C295.227 16.488 295.195 16.808 295.131 17.08H297.531C297.467 16.808 297.435 16.488 297.435 16.12C297.435 15.736 297.467 15.416 297.531 15.16H298.251ZM303.877 10.36C303.877 10.728 303.845 11.048 303.781 11.32H304.741C304.805 11.576 304.837 11.896 304.837 12.28C304.837 12.648 304.805 12.968 304.741 13.24H304.021C304.085 13.496 304.117 13.816 304.117 14.2C304.117 14.568 304.085 14.888 304.021 15.16C304.085 15.416 304.117 15.736 304.117 16.12C304.117 16.488 304.085 16.808 304.021 17.08C304.085 17.336 304.117 17.656 304.117 18.04C304.117 18.408 304.085 18.728 304.021 19H302.101C302.037 18.728 302.005 18.408 302.005 18.04C302.005 17.656 302.037 17.336 302.101 17.08C302.037 16.808 302.005 16.488 302.005 16.12C302.005 15.736 302.037 15.416 302.101 15.16C302.037 14.888 302.005 14.568 302.005 14.2C302.005 13.816 302.037 13.496 302.101 13.24C302.037 12.968 302.005 12.648 302.005 12.28C302.005 11.896 302.037 11.576 302.101 11.32C302.037 11.048 302.005 10.728 302.005 10.36C302.005 9.976 302.037 9.656 302.101 9.4H303.781C303.845 9.656 303.877 9.976 303.877 10.36ZM309.781 13.24C309.845 13.496 309.877 13.816 309.877 14.2C309.877 14.568 309.845 14.888 309.781 15.16C309.845 15.416 309.877 15.736 309.877 16.12C309.877 16.488 309.845 16.808 309.781 17.08C309.845 17.336 309.877 17.656 309.877 18.04C309.877 18.408 309.845 18.728 309.781 19H307.861C307.797 18.728 307.765 18.408 307.765 18.04C307.765 17.656 307.797 17.336 307.861 17.08C307.797 16.808 307.765 16.488 307.765 16.12C307.765 15.736 307.797 15.416 307.861 15.16C307.797 14.888 307.765 14.568 307.765 14.2C307.765 13.816 307.797 13.496 307.861 13.24C307.797 12.968 307.765 12.648 307.765 12.28C307.765 11.896 307.797 11.576 307.861 11.32H304.741C304.677 11.048 304.645 10.728 304.645 10.36C304.645 9.976 304.677 9.656 304.741 9.4H308.581C308.645 9.656 308.677 9.976 308.677 10.36C308.677 10.728 308.645 11.048 308.581 11.32H309.781C309.845 11.576 309.877 11.896 309.877 12.28C309.877 12.648 309.845 12.968 309.781 13.24Z" fill="white"/>
<path d="M158.071 37.0001H160.214V39.25H158.071V37.0001Z" fill="white"/>
<path d="M160.214 34.7501H162.357V37H160.214V34.7501Z" fill="white"/>
<path d="M162.357 32.5H164.5V34.7499H162.357V32.5Z" fill="white"/>
<path d="M149.5 32.5H151.643V34.7499H149.5V32.5Z" fill="white"/>
<path d="M151.643 34.7501H153.785V37H151.643V34.7501Z" fill="white"/>
<path d="M153.786 37.0001H155.928V39.25H153.786V37.0001Z" fill="white"/>
<path d="M155.928 39.2501H158.071V41.5001H155.928V39.2501Z" fill="white"/>
</g>
<defs>
<filter id="filter0_d_777_6033" x="-1" y="0" width="316" height="54" filterUnits="userSpaceOnUse" color-interpolation-filters="sRGB">
<feFlood flood-opacity="0" result="BackgroundImageFix"/>
<feColorMatrix in="SourceAlpha" type="matrix" values="0 0 0 0 0 0 0 0 0 0 0 0 0 0 0 0 0 0 127 0" result="hardAlpha"/>
<feOffset dy="4"/>
<feGaussianBlur stdDeviation="2"/>
<feComposite in2="hardAlpha" operator="out"/>
<feColorMatrix type="matrix" values="0 0 0 0 0 0 0 0 0 0 0 0 0 0 0 0 0 0 0.25 0"/>
<feBlend mode="normal" in2="BackgroundImageFix" result="effect1_dropShadow_777_6033"/>
<feBlend mode="normal" in="SourceGraphic" in2="effect1_dropShadow_777_6033" result="shape"/>
</filter>
</defs>
</svg>
