<svg width="302" height="56" viewBox="0 0 302 56" fill="none" xmlns="http://www.w3.org/2000/svg">
<g filter="url(#filter0_d_581_6306)">
<path d="M5.98047 26.2031C5.98047 26.0156 5.99609 25.8594 6.02734 25.7344C6.05859 25.5938 6.10547 25.5 6.16797 25.4531C6.24609 25.3906 6.33203 25.3906 6.42578 25.4531C6.53516 25.5 6.66797 25.625 6.82422 25.8281C7.10547 25.8281 7.43359 25.8125 7.80859 25.7812C8.18359 25.75 8.57422 25.6953 8.98047 25.6172C9.38672 25.5391 9.78516 25.4375 10.1758 25.3125C10.582 25.1875 10.9336 25.0234 11.2305 24.8203C11.543 24.6016 11.793 24.3516 11.9805 24.0703C12.168 23.7734 12.2617 23.4297 12.2617 23.0391C12.2617 22.6484 12.082 22.3594 11.7227 22.1719C11.3633 21.9844 10.9023 21.8438 10.3398 21.75C9.79297 21.6406 9.19922 21.5391 8.55859 21.4453C7.93359 21.3359 7.34766 21.1797 6.80078 20.9766C6.25391 20.7578 5.79297 20.4531 5.41797 20.0625C5.05859 19.6562 4.87891 19.0938 4.87891 18.375C4.87891 17.875 4.96484 17.4531 5.13672 17.1094C5.30859 16.7656 5.59766 16.4453 6.00391 16.1484C6.17578 16.0078 6.48047 15.7891 6.91797 15.4922C7.35547 15.1797 7.81641 14.8516 8.30078 14.5078C8.80078 14.1484 9.26953 13.8203 9.70703 13.5234C10.1445 13.2109 10.4492 12.9922 10.6211 12.8672C10.6523 12.8672 10.6914 12.8672 10.7383 12.8672C10.8008 12.8516 10.8477 12.8438 10.8789 12.8438C11.2695 12.8438 11.4648 13.0312 11.4648 13.4062C11.4648 13.5781 11.3242 13.7656 11.043 13.9688C10.7617 14.1562 10.4023 14.3672 9.96484 14.6016C9.54297 14.8359 9.08203 15.0859 8.58203 15.3516C8.09766 15.6172 7.63672 15.9141 7.19922 16.2422C6.77734 16.5547 6.42578 16.8984 6.14453 17.2734C5.86328 17.6328 5.72266 18.0234 5.72266 18.4453C5.72266 18.8984 5.83203 19.2266 6.05078 19.4297C6.28516 19.6328 6.62891 19.8047 7.08203 19.9453C7.26953 19.9922 7.58984 20.0859 8.04297 20.2266C8.51172 20.3516 9.00391 20.4922 9.51953 20.6484C10.0508 20.7891 10.543 20.9219 10.9961 21.0469C11.4648 21.1719 11.793 21.2578 11.9805 21.3047C12.3867 21.5234 12.7148 21.7656 12.9648 22.0312C13.2305 22.2812 13.3633 22.6328 13.3633 23.0859C13.3633 23.5234 13.2461 23.9219 13.0117 24.2812C12.793 24.6406 12.4961 24.9688 12.1211 25.2656C11.7617 25.5469 11.3398 25.8047 10.8555 26.0391C10.3867 26.2578 9.91016 26.4453 9.42578 26.6016C8.94141 26.7422 8.46484 26.8516 7.99609 26.9297C7.54297 26.9922 7.13672 27.0234 6.77734 27.0234C6.43359 27.0234 6.21484 26.9766 6.12109 26.8828C6.02734 26.7734 5.98047 26.5469 5.98047 26.2031ZM14.2539 23.6016C14.2539 23.4453 14.2773 23.1562 14.3242 22.7344C14.3711 22.2969 14.4336 21.7969 14.5117 21.2344C14.6055 20.6719 14.7305 20.0859 14.8867 19.4766C15.043 18.8672 15.2227 18.3047 15.4258 17.7891C15.6445 17.2734 15.8867 16.8516 16.1523 16.5234C16.4336 16.1953 16.7539 16.0312 17.1133 16.0312C16.9727 16.4688 16.7852 16.9844 16.5508 17.5781C16.332 18.1719 16.1211 18.7969 15.918 19.4531C15.7148 20.0938 15.543 20.75 15.4023 21.4219C15.2773 22.0938 15.2383 22.7266 15.2852 23.3203C15.3477 23.8984 15.5273 24.4219 15.8242 24.8906C16.1211 25.3594 16.5898 25.7188 17.2305 25.9688C17.8242 25.9688 18.3398 25.8359 18.7773 25.5703C19.2148 25.3047 19.5898 25.0078 19.9023 24.6797C20.2305 24.3516 20.5117 24.0547 20.7461 23.7891C20.9961 23.5234 21.2227 23.3906 21.4258 23.3906C21.4258 23.9844 21.2773 24.5078 20.9805 24.9609C20.6992 25.4141 20.332 25.7969 19.8789 26.1094C19.4414 26.4062 18.9414 26.6328 18.3789 26.7891C17.832 26.9453 17.2773 27.0234 16.7148 27.0234C16.2773 27.0234 15.8945 26.9141 15.5664 26.6953C15.2539 26.4766 14.9961 26.2031 14.793 25.875C14.6055 25.5312 14.4648 25.1641 14.3711 24.7734C14.293 24.3672 14.2539 23.9766 14.2539 23.6016ZM22.9492 18.0469L24.332 23.7422H24.6133C24.6602 23.2422 24.7461 22.7109 24.8711 22.1484C25.0117 21.5859 25.1992 21.0312 25.4336 20.4844C25.668 19.9219 25.9414 19.3828 26.2539 18.8672C26.582 18.3516 26.9492 17.8984 27.3555 17.5078C27.7617 17.1172 28.2148 16.8047 28.7148 16.5703C29.2305 16.3359 29.793 16.2188 30.4023 16.2188C30.4023 16.5938 30.2461 16.9219 29.9336 17.2031C29.6367 17.4844 29.2773 17.7578 28.8555 18.0234C28.4336 18.2891 27.9961 18.5703 27.543 18.8672C27.1055 19.1641 26.7617 19.5234 26.5117 19.9453C26.2461 20.3672 26.0273 20.8594 25.8555 21.4219C25.6992 21.9688 25.5664 22.5391 25.457 23.1328C25.3633 23.7109 25.293 24.2969 25.2461 24.8906C25.1992 25.4688 25.1602 25.9922 25.1289 26.4609C25.0352 26.6016 24.9336 26.7344 24.8242 26.8594C24.7305 26.9688 24.6055 27.0234 24.4492 27.0234C24.3867 27.0234 24.3086 27.0078 24.2148 26.9766C24.1211 26.9297 24.0586 26.8438 24.0273 26.7188L22.3398 18.0469H22.9492ZM31.082 23.4609C31.082 23.1484 31.082 22.7344 31.082 22.2188C31.0977 21.6875 31.1367 21.125 31.1992 20.5312C31.2617 19.9219 31.3555 19.3047 31.4805 18.6797C31.6055 18.0547 31.7852 17.4922 32.0195 16.9922C32.2539 16.4922 32.5508 16.0859 32.9102 15.7734C33.2695 15.4609 33.7148 15.3047 34.2461 15.3047C34.9805 15.3047 35.5664 15.5078 36.0039 15.9141C36.457 16.3203 36.8008 16.8281 37.0352 17.4375C37.2852 18.0312 37.4492 18.6719 37.5273 19.3594C37.6211 20.0312 37.668 20.6406 37.668 21.1875C37.668 21.7812 37.582 22.4219 37.4102 23.1094C37.2383 23.7969 36.9727 24.4297 36.6133 25.0078C36.2539 25.5859 35.8008 26.0703 35.2539 26.4609C34.7227 26.8359 34.082 27.0234 33.332 27.0234C32.8477 27.0234 32.457 26.9141 32.1602 26.6953C31.8633 26.4609 31.6367 26.1719 31.4805 25.8281C31.3398 25.4844 31.2383 25.1016 31.1758 24.6797C31.1133 24.2578 31.082 23.8516 31.082 23.4609ZM31.8789 23.1797C31.8789 23.4766 31.8867 23.7891 31.9023 24.1172C31.918 24.4297 31.9648 24.7266 32.043 25.0078C32.1211 25.2891 32.2617 25.5156 32.4648 25.6875C32.668 25.8594 32.9648 25.9453 33.3555 25.9453C34.043 25.9453 34.6055 25.7891 35.043 25.4766C35.4961 25.1641 35.8555 24.7656 36.1211 24.2812C36.3867 23.7812 36.5664 23.2344 36.6602 22.6406C36.7695 22.0469 36.8242 21.4766 36.8242 20.9297C36.8242 20.5859 36.793 20.1406 36.7305 19.5938C36.6836 19.0469 36.5742 18.5156 36.4023 18C36.2305 17.4844 35.9805 17.0469 35.6523 16.6875C35.3242 16.3125 34.8945 16.125 34.3633 16.125C33.9883 16.125 33.6602 16.2734 33.3789 16.5703C33.1133 16.8672 32.8867 17.25 32.6992 17.7188C32.5117 18.1875 32.3633 18.7031 32.2539 19.2656C32.1602 19.8281 32.082 20.3672 32.0195 20.8828C31.957 21.3984 31.918 21.8672 31.9023 22.2891C31.8867 22.7109 31.8789 23.0078 31.8789 23.1797ZM39.5195 26.4609C39.5039 26.0547 39.4648 25.4297 39.4023 24.5859C39.3398 23.7266 39.2695 22.7656 39.1914 21.7031C39.1289 20.625 39.0586 19.5 38.9805 18.3281C38.918 17.1406 38.8477 16.0078 38.7695 14.9297C38.707 13.8516 38.6367 12.8906 38.5586 12.0469C38.4961 11.1875 38.457 10.5547 38.4414 10.1484V9.84375C38.4414 9.48438 38.6211 9.30469 38.9805 9.30469C39.0117 9.30469 39.0586 9.3125 39.1211 9.32812C39.1836 9.32812 39.2305 9.32812 39.2617 9.32812C39.3555 10.6875 39.4414 11.9922 39.5195 13.2422C39.5977 14.4922 39.6758 15.7344 39.7539 16.9688C39.832 18.2031 39.918 19.4453 40.0117 20.6953C40.1055 21.9297 40.2148 23.2188 40.3398 24.5625C40.5117 24.7344 40.6055 24.9375 40.6211 25.1719C40.6367 25.3906 40.6445 25.6172 40.6445 25.8516C40.6445 25.9609 40.6367 26.0859 40.6211 26.2266C40.6211 26.3516 40.5977 26.4766 40.5508 26.6016C40.5039 26.7109 40.4258 26.8125 40.3164 26.9062C40.2227 26.9844 40.0977 27.0234 39.9414 27.0234C39.8008 27.0234 39.6992 26.9688 39.6367 26.8594C39.5898 26.75 39.5508 26.6172 39.5195 26.4609ZM42.3555 26.4609C42.3398 26.0547 42.3008 25.4297 42.2383 24.5859C42.1758 23.7266 42.1055 22.7656 42.0273 21.7031C41.9648 20.625 41.8945 19.5 41.8164 18.3281C41.7539 17.1406 41.6836 16.0078 41.6055 14.9297C41.543 13.8516 41.4727 12.8906 41.3945 12.0469C41.332 11.1875 41.293 10.5547 41.2773 10.1484V9.84375C41.2773 9.48438 41.457 9.30469 41.8164 9.30469C41.8477 9.30469 41.8945 9.3125 41.957 9.32812C42.0195 9.32812 42.0664 9.32812 42.0977 9.32812C42.1914 10.6875 42.2773 11.9922 42.3555 13.2422C42.4336 14.4922 42.5117 15.7344 42.5898 16.9688C42.668 18.2031 42.7539 19.4453 42.8477 20.6953C42.9414 21.9297 43.0508 23.2188 43.1758 24.5625C43.3477 24.7344 43.4414 24.9375 43.457 25.1719C43.4727 25.3906 43.4805 25.6172 43.4805 25.8516C43.4805 25.9609 43.4727 26.0859 43.457 26.2266C43.457 26.3516 43.4336 26.4766 43.3867 26.6016C43.3398 26.7109 43.2617 26.8125 43.1523 26.9062C43.0586 26.9844 42.9336 27.0234 42.7773 27.0234C42.6367 27.0234 42.5352 26.9688 42.4727 26.8594C42.4258 26.75 42.3867 26.6172 42.3555 26.4609ZM54.8945 25.0078C54.8945 24.1641 55.0586 23.3125 55.3867 22.4531C55.7305 21.5781 56.1836 20.7656 56.7461 20.0156C57.3086 19.2656 57.9492 18.6016 58.668 18.0234C59.4023 17.4297 60.1445 16.9844 60.8945 16.6875C60.8945 16.2188 60.8711 15.7578 60.8242 15.3047C60.7773 14.8516 60.7227 14.3984 60.6602 13.9453C60.5977 13.4766 60.5352 13.0078 60.4727 12.5391C60.4102 12.0703 60.3711 11.5859 60.3555 11.0859C60.3555 10.9297 60.4102 10.8203 60.5195 10.7578C60.6445 10.6953 60.7695 10.6641 60.8945 10.6641C60.9883 10.6641 61.0977 10.6797 61.2227 10.7109C61.3633 10.7266 61.4414 10.8125 61.457 10.9688L63.0508 25.6406C63.0508 25.6406 63.0352 25.6719 63.0039 25.7344C62.9727 25.7812 62.9258 25.8359 62.8633 25.8984C62.8008 25.9453 62.7383 26 62.6758 26.0625C62.6133 26.1094 62.5664 26.1484 62.5352 26.1797C62.5352 26.1953 62.5117 26.2109 62.4648 26.2266C62.4336 26.2266 62.4102 26.2266 62.3945 26.2266C62.207 26.1016 62.0586 25.8516 61.9492 25.4766C61.8555 25.0859 61.7773 24.6641 61.7148 24.2109C61.668 23.7422 61.6211 23.2891 61.5742 22.8516C61.543 22.4141 61.5039 22.0781 61.457 21.8438C61.4258 21.9688 61.3555 22.1797 61.2461 22.4766C61.1523 22.7734 61.0117 23.1172 60.8242 23.5078C60.6367 23.8984 60.4102 24.2969 60.1445 24.7031C59.8789 25.1094 59.5664 25.4844 59.207 25.8281C58.8477 26.1719 58.4336 26.4609 57.9648 26.6953C57.4961 26.9141 56.9805 27.0234 56.418 27.0234C56.1367 27.0234 55.8945 26.9688 55.6914 26.8594C55.5039 26.75 55.3477 26.6016 55.2227 26.4141C55.1133 26.2109 55.0273 25.9922 54.9648 25.7578C54.918 25.5078 54.8945 25.2578 54.8945 25.0078ZM55.9727 24.5625C55.9727 24.625 55.9805 24.7344 55.9961 24.8906C56.0117 25.0312 56.043 25.1797 56.0898 25.3359C56.1523 25.4922 56.2148 25.6328 56.2773 25.7578C56.3555 25.8672 56.4414 25.9219 56.5352 25.9219C56.8789 25.8906 57.2461 25.7422 57.6367 25.4766C58.043 25.1953 58.4336 24.8438 58.8086 24.4219C59.1836 24 59.5352 23.5312 59.8633 23.0156C60.207 22.4844 60.4883 21.9531 60.707 21.4219C60.9414 20.8906 61.0977 20.375 61.1758 19.875C61.2539 19.375 61.2461 18.9453 61.1523 18.5859C61.0898 18.4609 61.0352 18.3828 60.9883 18.3516C60.9414 18.3047 60.8711 18.2812 60.7773 18.2812C60.0898 18.2812 59.4492 18.4922 58.8555 18.9141C58.2617 19.3359 57.7461 19.8672 57.3086 20.5078C56.8867 21.1328 56.5586 21.8125 56.3242 22.5469C56.0898 23.2812 55.9727 23.9531 55.9727 24.5625ZM64.1055 23.4609C64.1055 23.1484 64.1055 22.7344 64.1055 22.2188C64.1211 21.6875 64.1602 21.125 64.2227 20.5312C64.2852 19.9219 64.3789 19.3047 64.5039 18.6797C64.6289 18.0547 64.8086 17.4922 65.043 16.9922C65.2773 16.4922 65.5742 16.0859 65.9336 15.7734C66.293 15.4609 66.7383 15.3047 67.2695 15.3047C68.0039 15.3047 68.5898 15.5078 69.0273 15.9141C69.4805 16.3203 69.8242 16.8281 70.0586 17.4375C70.3086 18.0312 70.4727 18.6719 70.5508 19.3594C70.6445 20.0312 70.6914 20.6406 70.6914 21.1875C70.6914 21.7812 70.6055 22.4219 70.4336 23.1094C70.2617 23.7969 69.9961 24.4297 69.6367 25.0078C69.2773 25.5859 68.8242 26.0703 68.2773 26.4609C67.7461 26.8359 67.1055 27.0234 66.3555 27.0234C65.8711 27.0234 65.4805 26.9141 65.1836 26.6953C64.8867 26.4609 64.6602 26.1719 64.5039 25.8281C64.3633 25.4844 64.2617 25.1016 64.1992 24.6797C64.1367 24.2578 64.1055 23.8516 64.1055 23.4609ZM64.9023 23.1797C64.9023 23.4766 64.9102 23.7891 64.9258 24.1172C64.9414 24.4297 64.9883 24.7266 65.0664 25.0078C65.1445 25.2891 65.2852 25.5156 65.4883 25.6875C65.6914 25.8594 65.9883 25.9453 66.3789 25.9453C67.0664 25.9453 67.6289 25.7891 68.0664 25.4766C68.5195 25.1641 68.8789 24.7656 69.1445 24.2812C69.4102 23.7812 69.5898 23.2344 69.6836 22.6406C69.793 22.0469 69.8477 21.4766 69.8477 20.9297C69.8477 20.5859 69.8164 20.1406 69.7539 19.5938C69.707 19.0469 69.5977 18.5156 69.4258 18C69.2539 17.4844 69.0039 17.0469 68.6758 16.6875C68.3477 16.3125 67.918 16.125 67.3867 16.125C67.0117 16.125 66.6836 16.2734 66.4023 16.5703C66.1367 16.8672 65.9102 17.25 65.7227 17.7188C65.5352 18.1875 65.3867 18.7031 65.2773 19.2656C65.1836 19.8281 65.1055 20.3672 65.043 20.8828C64.9805 21.3984 64.9414 21.8672 64.9258 22.2891C64.9102 22.7109 64.9023 23.0078 64.9023 23.1797ZM77.043 26.7188C76.9336 26.4844 76.7617 26.1172 76.5273 25.6172C76.3086 25.1172 76.0586 24.5625 75.7773 23.9531L74.8633 21.9844C74.5664 21.2812 74.2695 20.625 73.9727 20.0156C73.6914 19.3906 73.4336 18.8281 73.1992 18.3281C72.9648 17.8281 72.793 17.4531 72.6836 17.2031C72.5898 17.0469 72.4805 16.875 72.3555 16.6875C72.2305 16.5 72.1055 16.3125 71.9805 16.125C71.8711 15.9219 71.7695 15.7266 71.6758 15.5391C71.5977 15.3359 71.5586 15.125 71.5586 14.9062C71.5586 14.8281 71.5742 14.7422 71.6055 14.6484C71.6523 14.5391 71.7461 14.4844 71.8867 14.4844C71.9023 14.4844 71.9492 14.5078 72.0273 14.5547C72.1211 14.5859 72.207 14.6328 72.2852 14.6953C72.3789 14.7422 72.457 14.8047 72.5195 14.8828C72.5977 14.9453 72.6523 15.0078 72.6836 15.0703L77.2539 24.7969L78.6602 16.3828C78.6133 16.2734 78.6055 16.1562 78.6367 16.0312C78.668 15.8906 78.7227 15.7734 78.8008 15.6797C78.8945 15.5703 78.9961 15.4844 79.1055 15.4219C79.2305 15.3438 79.3555 15.3047 79.4805 15.3047C79.5898 15.3047 79.6914 15.3125 79.7852 15.3281C79.8945 15.3438 79.9727 15.4297 80.0195 15.5859C80.082 15.7266 80.1836 15.9531 80.3242 16.2656C80.4648 16.5625 80.6211 16.8984 80.793 17.2734C80.9648 17.6484 81.1445 18.0469 81.332 18.4688C81.5352 18.875 81.7305 19.2656 81.918 19.6406C82.1055 20.0156 82.2695 20.3516 82.4102 20.6484L82.7383 21.3047C82.832 21.5234 82.9492 21.7578 83.0898 22.0078C83.2305 22.2578 83.3789 22.5078 83.5352 22.7578C83.707 22.9922 83.8867 23.2266 84.0742 23.4609C84.2617 23.6797 84.4492 23.8672 84.6367 24.0234L86.793 14.25C86.8398 14.0781 86.8789 13.9375 86.9102 13.8281C86.957 13.7031 87.0586 13.6406 87.2148 13.6406C87.418 13.6406 87.5352 13.7266 87.5664 13.8984C87.6133 14.0547 87.6367 14.2031 87.6367 14.3438C87.3086 15.2812 87.0742 16.25 86.9336 17.25L86.5117 20.2266C86.3711 21.2109 86.1836 22.1875 85.9492 23.1562C85.7305 24.1094 85.3789 25.0312 84.8945 25.9219H84.7773C84.6211 25.9219 84.4805 25.8281 84.3555 25.6406L79.4805 16.9688C79.3555 17.3125 79.2383 17.8047 79.1289 18.4453C79.0352 19.0703 78.9414 19.7578 78.8477 20.5078C78.7539 21.2578 78.6602 22.0234 78.5664 22.8047C78.4727 23.5703 78.3711 24.2656 78.2617 24.8906C78.1523 25.5156 78.0273 26.0312 77.8867 26.4375C77.7461 26.8281 77.5898 27.0234 77.418 27.0234C77.2617 27.0234 77.1367 26.9219 77.043 26.7188ZM89.0898 18.2812C89.0898 18.1875 89.0898 18.0781 89.0898 17.9531C89.1055 17.8281 89.1211 17.7109 89.1367 17.6016C89.168 17.4766 89.2227 17.375 89.3008 17.2969C89.3789 17.2188 89.4883 17.1797 89.6289 17.1797C89.6602 17.1797 89.707 17.1875 89.7695 17.2031C89.8477 17.2031 89.9023 17.2031 89.9336 17.2031C89.9492 18.3125 90.0039 19.4531 90.0977 20.625C90.207 21.7969 90.418 22.9297 90.7305 24.0234C90.7461 23.8516 90.7852 23.5625 90.8477 23.1562C90.9258 22.7344 91.0039 22.2969 91.082 21.8438C91.1758 21.375 91.2617 20.9375 91.3398 20.5312C91.4336 20.125 91.4961 19.8359 91.5273 19.6641C91.6367 19.3359 91.7852 19 91.9727 18.6562C92.1602 18.2969 92.3867 17.9688 92.6523 17.6719C92.9336 17.375 93.2383 17.1328 93.5664 16.9453C93.9102 16.7578 94.2695 16.6641 94.6445 16.6641C95.2695 16.6641 95.8242 16.8047 96.3086 17.0859C96.793 17.3672 97.2227 17.7422 97.5977 18.2109C97.9883 18.6641 98.3164 19.1875 98.582 19.7812C98.8477 20.3594 99.0664 20.9531 99.2383 21.5625C99.4102 22.1719 99.5352 22.7578 99.6133 23.3203C99.6914 23.8828 99.7305 24.3828 99.7305 24.8203V25.1016C99.7305 25.1953 99.7148 25.2891 99.6836 25.3828C99.668 25.4609 99.6289 25.5312 99.5664 25.5938C99.5195 25.6406 99.4258 25.6641 99.2852 25.6641C99.1289 25.6641 98.9961 25.5703 98.8867 25.3828C98.8711 24.9922 98.8242 24.5391 98.7461 24.0234C98.6836 23.5078 98.5898 22.9688 98.4648 22.4062C98.3555 21.8281 98.1992 21.2656 97.9961 20.7188C97.8086 20.1562 97.5664 19.6562 97.2695 19.2188C96.9883 18.7812 96.6523 18.4297 96.2617 18.1641C95.8711 17.8828 95.4023 17.7422 94.8555 17.7422C94.418 17.7422 94.0352 17.8203 93.707 17.9766C93.3945 18.1328 93.1289 18.3516 92.9102 18.6328C92.6914 18.8984 92.5117 19.2188 92.3711 19.5938C92.2461 19.9531 92.1523 20.3438 92.0898 20.7656C92.043 20.9844 91.9805 21.375 91.9023 21.9375C91.8242 22.5 91.7383 23.1016 91.6445 23.7422C91.5508 24.3828 91.4648 24.9844 91.3867 25.5469C91.3242 26.1094 91.2852 26.5 91.2695 26.7188C91.2227 26.875 91.1367 26.9688 91.0117 27C90.9023 27.0312 90.7852 27.0469 90.6602 27.0469C90.6445 27.0469 90.6055 27.0391 90.543 27.0234C90.4805 27.0234 90.4492 27.0156 90.4492 27L89.1133 18.8672C89.1133 18.8359 89.1055 18.75 89.0898 18.6094C89.0898 18.4688 89.0898 18.3594 89.0898 18.2812ZM114.848 19.6641C114.598 19.6641 114.355 19.7109 114.121 19.8047C113.902 19.8984 113.684 20 113.465 20.1094C113.262 20.2031 113.043 20.2969 112.809 20.3906C112.59 20.4688 112.355 20.5078 112.105 20.5078C111.652 20.5078 111.426 20.2578 111.426 19.7578V19.7109C111.426 19.6953 111.434 19.6797 111.449 19.6641L114.988 18.5859C115.035 17.8984 115.043 17.2188 115.012 16.5469C114.996 15.8594 114.98 15.2031 114.965 14.5781C114.949 13.9375 114.957 13.3359 114.988 12.7734C115.035 12.2109 115.129 11.6875 115.27 11.2031C115.41 10.7188 115.621 10.2969 115.902 9.9375C116.199 9.57812 116.605 9.28125 117.121 9.04688C117.293 9.04688 117.48 9.07031 117.684 9.11719C117.902 9.16406 118.098 9.24219 118.27 9.35156C118.441 9.44531 118.59 9.57812 118.715 9.75C118.84 9.90625 118.902 10.0859 118.902 10.2891C118.215 10.2891 117.668 10.4141 117.262 10.6641C116.871 10.8984 116.574 11.2109 116.371 11.6016C116.168 11.9922 116.043 12.4531 115.996 12.9844C115.949 13.5 115.934 14.0469 115.949 14.625C115.98 15.1875 116.02 15.7578 116.066 16.3359C116.129 16.9141 116.16 17.4609 116.16 17.9766C116.691 17.9766 117.207 17.9219 117.707 17.8125C118.223 17.7031 118.73 17.5859 119.23 17.4609C119.746 17.3203 120.262 17.2031 120.777 17.1094C121.293 17 121.809 16.9453 122.324 16.9453C122.699 16.9453 122.887 17.125 122.887 17.4844C122.887 17.625 122.754 17.75 122.488 17.8594C122.223 17.9688 121.879 18.0703 121.457 18.1641C121.035 18.2422 120.566 18.3281 120.051 18.4219C119.535 18.5 119.02 18.5938 118.504 18.7031C118.004 18.7969 117.535 18.8984 117.098 19.0078C116.66 19.1172 116.316 19.25 116.066 19.4062C115.988 20 115.98 20.5938 116.043 21.1875C116.121 21.7656 116.215 22.3438 116.324 22.9219C116.449 23.4844 116.566 24.0547 116.676 24.6328C116.801 25.1953 116.871 25.7578 116.887 26.3203C116.887 26.4609 116.855 26.6172 116.793 26.7891C116.746 26.9453 116.645 27.0234 116.488 27.0234C116.363 27.0234 116.262 26.9766 116.184 26.8828C116.105 26.7891 116.035 26.6875 115.973 26.5781C115.926 26.4531 115.887 26.3359 115.855 26.2266C115.824 26.1016 115.801 26 115.785 25.9219C115.676 25.3438 115.574 24.8047 115.48 24.3047C115.387 23.7891 115.301 23.2891 115.223 22.8047C115.16 22.3047 115.105 21.8047 115.059 21.3047C115.027 20.8047 115.004 20.2578 114.988 19.6641H114.848ZM121.387 23.4609C121.387 23.1484 121.387 22.7344 121.387 22.2188C121.402 21.6875 121.441 21.125 121.504 20.5312C121.566 19.9219 121.66 19.3047 121.785 18.6797C121.91 18.0547 122.09 17.4922 122.324 16.9922C122.559 16.4922 122.855 16.0859 123.215 15.7734C123.574 15.4609 124.02 15.3047 124.551 15.3047C125.285 15.3047 125.871 15.5078 126.309 15.9141C126.762 16.3203 127.105 16.8281 127.34 17.4375C127.59 18.0312 127.754 18.6719 127.832 19.3594C127.926 20.0312 127.973 20.6406 127.973 21.1875C127.973 21.7812 127.887 22.4219 127.715 23.1094C127.543 23.7969 127.277 24.4297 126.918 25.0078C126.559 25.5859 126.105 26.0703 125.559 26.4609C125.027 26.8359 124.387 27.0234 123.637 27.0234C123.152 27.0234 122.762 26.9141 122.465 26.6953C122.168 26.4609 121.941 26.1719 121.785 25.8281C121.645 25.4844 121.543 25.1016 121.48 24.6797C121.418 24.2578 121.387 23.8516 121.387 23.4609ZM122.184 23.1797C122.184 23.4766 122.191 23.7891 122.207 24.1172C122.223 24.4297 122.27 24.7266 122.348 25.0078C122.426 25.2891 122.566 25.5156 122.77 25.6875C122.973 25.8594 123.27 25.9453 123.66 25.9453C124.348 25.9453 124.91 25.7891 125.348 25.4766C125.801 25.1641 126.16 24.7656 126.426 24.2812C126.691 23.7812 126.871 23.2344 126.965 22.6406C127.074 22.0469 127.129 21.4766 127.129 20.9297C127.129 20.5859 127.098 20.1406 127.035 19.5938C126.988 19.0469 126.879 18.5156 126.707 18C126.535 17.4844 126.285 17.0469 125.957 16.6875C125.629 16.3125 125.199 16.125 124.668 16.125C124.293 16.125 123.965 16.2734 123.684 16.5703C123.418 16.8672 123.191 17.25 123.004 17.7188C122.816 18.1875 122.668 18.7031 122.559 19.2656C122.465 19.8281 122.387 20.3672 122.324 20.8828C122.262 21.3984 122.223 21.8672 122.207 22.2891C122.191 22.7109 122.184 23.0078 122.184 23.1797ZM129.402 18.0469L130.785 23.7422H131.066C131.113 23.2422 131.199 22.7109 131.324 22.1484C131.465 21.5859 131.652 21.0312 131.887 20.4844C132.121 19.9219 132.395 19.3828 132.707 18.8672C133.035 18.3516 133.402 17.8984 133.809 17.5078C134.215 17.1172 134.668 16.8047 135.168 16.5703C135.684 16.3359 136.246 16.2188 136.855 16.2188C136.855 16.5938 136.699 16.9219 136.387 17.2031C136.09 17.4844 135.73 17.7578 135.309 18.0234C134.887 18.2891 134.449 18.5703 133.996 18.8672C133.559 19.1641 133.215 19.5234 132.965 19.9453C132.699 20.3672 132.48 20.8594 132.309 21.4219C132.152 21.9688 132.02 22.5391 131.91 23.1328C131.816 23.7109 131.746 24.2969 131.699 24.8906C131.652 25.4688 131.613 25.9922 131.582 26.4609C131.488 26.6016 131.387 26.7344 131.277 26.8594C131.184 26.9688 131.059 27.0234 130.902 27.0234C130.84 27.0234 130.762 27.0078 130.668 26.9766C130.574 26.9297 130.512 26.8438 130.48 26.7188L128.793 18.0469H129.402ZM149.043 16.6875C149.074 16.875 149.113 17.0469 149.16 17.2031C149.176 17.3594 149.199 17.5156 149.23 17.6719C149.262 17.8125 149.293 17.9375 149.324 18.0469V18.2812C149.34 18.375 149.355 18.5156 149.371 18.7031C149.387 18.875 149.41 19.0625 149.441 19.2656C149.488 19.4531 149.52 19.6406 149.535 19.8281C149.566 20.0156 149.59 20.1406 149.605 20.2031C149.652 19.9062 149.73 19.5859 149.84 19.2422C149.965 18.8828 150.113 18.5625 150.285 18.2812C150.473 17.9844 150.691 17.7344 150.941 17.5312C151.207 17.3125 151.535 17.2031 151.926 17.2031H152.043C152.434 17.5312 152.77 17.875 153.051 18.2344C153.348 18.5938 153.605 18.9766 153.824 19.3828C154.043 19.7891 154.246 20.2188 154.434 20.6719C154.621 21.125 154.816 21.6094 155.02 22.125H155.301C155.363 21.6875 155.473 21.1719 155.629 20.5781C155.785 19.9688 155.996 19.3984 156.262 18.8672C156.543 18.3203 156.879 17.8594 157.27 17.4844C157.676 17.1094 158.16 16.9219 158.723 16.9219C159.02 16.9219 159.309 17.0781 159.59 17.3906C159.871 17.6875 160.137 18.0859 160.387 18.5859C160.652 19.0703 160.887 19.6094 161.09 20.2031C161.309 20.7812 161.488 21.3594 161.629 21.9375C161.77 22.5 161.879 23.0156 161.957 23.4844C162.051 23.9531 162.098 24.3125 162.098 24.5625C162.098 24.7188 162.066 24.8516 162.004 24.9609C161.957 25.0703 161.848 25.125 161.676 25.125C161.504 25.125 161.371 25.0234 161.277 24.8203C161.246 24.6953 161.191 24.5078 161.113 24.2578C161.051 24.0078 160.98 23.7188 160.902 23.3906C160.824 23.0625 160.73 22.7266 160.621 22.3828C160.527 22.0234 160.434 21.6875 160.34 21.375C160.246 21.0469 160.16 20.7578 160.082 20.5078C160.004 20.2578 159.949 20.0703 159.918 19.9453C159.871 19.7891 159.793 19.6016 159.684 19.3828C159.59 19.1641 159.473 18.9531 159.332 18.75C159.191 18.5469 159.035 18.375 158.863 18.2344C158.691 18.0938 158.496 18.0234 158.277 18.0234C157.918 18.0234 157.605 18.2031 157.34 18.5625C157.074 18.9219 156.848 19.3438 156.66 19.8281C156.488 20.3125 156.355 20.7969 156.262 21.2812C156.184 21.7656 156.137 22.1328 156.121 22.3828C156.121 22.4922 156.113 22.6875 156.098 22.9688C156.098 23.25 156.098 23.5547 156.098 23.8828C156.098 24.2109 156.098 24.5156 156.098 24.7969C156.113 25.0781 156.121 25.2734 156.121 25.3828C156.012 25.5078 155.91 25.6328 155.816 25.7578C155.723 25.8672 155.59 25.9219 155.418 25.9219C155.34 25.9219 155.262 25.9062 155.184 25.875C155.121 25.8281 155.066 25.75 155.02 25.6406C155.004 25.5156 154.957 25.3125 154.879 25.0312C154.816 24.75 154.738 24.4531 154.645 24.1406C154.551 23.8281 154.465 23.5312 154.387 23.25C154.309 22.9688 154.254 22.7734 154.223 22.6641C154.191 22.5859 154.113 22.4141 153.988 22.1484C153.879 21.8828 153.754 21.5938 153.613 21.2812C153.473 20.9531 153.332 20.6406 153.191 20.3438C153.051 20.0469 152.941 19.8203 152.863 19.6641C152.691 19.3516 152.52 19.0938 152.348 18.8906C152.191 18.6719 151.934 18.5625 151.574 18.5625C151.387 18.5625 151.215 18.6328 151.059 18.7734C150.918 18.9141 150.793 19.0859 150.684 19.2891C150.59 19.4922 150.52 19.7031 150.473 19.9219C150.441 20.1406 150.426 20.3281 150.426 20.4844V26.4609C150.426 26.6172 150.387 26.75 150.309 26.8594C150.246 26.9688 150.145 27.0234 150.004 27.0234C149.926 27.0234 149.84 27.0078 149.746 26.9766C149.652 26.9297 149.605 26.8438 149.605 26.7188L148.223 16.6875H149.043ZM163.293 23.4609C163.293 23.1484 163.293 22.7344 163.293 22.2188C163.309 21.6875 163.348 21.125 163.41 20.5312C163.473 19.9219 163.566 19.3047 163.691 18.6797C163.816 18.0547 163.996 17.4922 164.23 16.9922C164.465 16.4922 164.762 16.0859 165.121 15.7734C165.48 15.4609 165.926 15.3047 166.457 15.3047C167.191 15.3047 167.777 15.5078 168.215 15.9141C168.668 16.3203 169.012 16.8281 169.246 17.4375C169.496 18.0312 169.66 18.6719 169.738 19.3594C169.832 20.0312 169.879 20.6406 169.879 21.1875C169.879 21.7812 169.793 22.4219 169.621 23.1094C169.449 23.7969 169.184 24.4297 168.824 25.0078C168.465 25.5859 168.012 26.0703 167.465 26.4609C166.934 26.8359 166.293 27.0234 165.543 27.0234C165.059 27.0234 164.668 26.9141 164.371 26.6953C164.074 26.4609 163.848 26.1719 163.691 25.8281C163.551 25.4844 163.449 25.1016 163.387 24.6797C163.324 24.2578 163.293 23.8516 163.293 23.4609ZM164.09 23.1797C164.09 23.4766 164.098 23.7891 164.113 24.1172C164.129 24.4297 164.176 24.7266 164.254 25.0078C164.332 25.2891 164.473 25.5156 164.676 25.6875C164.879 25.8594 165.176 25.9453 165.566 25.9453C166.254 25.9453 166.816 25.7891 167.254 25.4766C167.707 25.1641 168.066 24.7656 168.332 24.2812C168.598 23.7812 168.777 23.2344 168.871 22.6406C168.98 22.0469 169.035 21.4766 169.035 20.9297C169.035 20.5859 169.004 20.1406 168.941 19.5938C168.895 19.0469 168.785 18.5156 168.613 18C168.441 17.4844 168.191 17.0469 167.863 16.6875C167.535 16.3125 167.105 16.125 166.574 16.125C166.199 16.125 165.871 16.2734 165.59 16.5703C165.324 16.8672 165.098 17.25 164.91 17.7188C164.723 18.1875 164.574 18.7031 164.465 19.2656C164.371 19.8281 164.293 20.3672 164.23 20.8828C164.168 21.3984 164.129 21.8672 164.113 22.2891C164.098 22.7109 164.09 23.0078 164.09 23.1797ZM171.309 18.0469L172.691 23.7422H172.973C173.02 23.2422 173.105 22.7109 173.23 22.1484C173.371 21.5859 173.559 21.0312 173.793 20.4844C174.027 19.9219 174.301 19.3828 174.613 18.8672C174.941 18.3516 175.309 17.8984 175.715 17.5078C176.121 17.1172 176.574 16.8047 177.074 16.5703C177.59 16.3359 178.152 16.2188 178.762 16.2188C178.762 16.5938 178.605 16.9219 178.293 17.2031C177.996 17.4844 177.637 17.7578 177.215 18.0234C176.793 18.2891 176.355 18.5703 175.902 18.8672C175.465 19.1641 175.121 19.5234 174.871 19.9453C174.605 20.3672 174.387 20.8594 174.215 21.4219C174.059 21.9688 173.926 22.5391 173.816 23.1328C173.723 23.7109 173.652 24.2969 173.605 24.8906C173.559 25.4688 173.52 25.9922 173.488 26.4609C173.395 26.6016 173.293 26.7344 173.184 26.8594C173.09 26.9688 172.965 27.0234 172.809 27.0234C172.746 27.0234 172.668 27.0078 172.574 26.9766C172.48 26.9297 172.418 26.8438 172.387 26.7188L170.699 18.0469H171.309ZM180.285 21.5625C179.926 21.7812 179.559 21.9531 179.184 22.0781C178.809 22.1875 178.504 22.1094 178.27 21.8438C178.27 21.5469 178.371 21.3516 178.574 21.2578C178.777 21.1484 179.004 21.0625 179.254 21C179.52 20.9375 179.777 20.8594 180.027 20.7656C180.293 20.6719 180.473 20.4844 180.566 20.2031C180.66 19.8906 180.746 19.5156 180.824 19.0781C180.902 18.6406 181.012 18.2188 181.152 17.8125C181.293 17.4062 181.496 17.0703 181.762 16.8047C182.027 16.5234 182.395 16.3828 182.863 16.3828C183.129 16.3828 183.457 16.4766 183.848 16.6641C184.254 16.8359 184.637 17.0469 184.996 17.2969C185.355 17.5469 185.66 17.8125 185.91 18.0938C186.16 18.375 186.285 18.6328 186.285 18.8672C186.285 18.9766 186.27 19.0781 186.238 19.1719C186.223 19.2656 186.145 19.3438 186.004 19.4062L181.387 21L181.363 21.1172C181.363 21.1797 181.355 21.2656 181.34 21.375V21.6562C181.34 21.7656 181.34 21.8438 181.34 21.8906C181.34 22.2031 181.363 22.5938 181.41 23.0625C181.457 23.5156 181.551 23.9609 181.691 24.3984C181.848 24.8203 182.059 25.1875 182.324 25.5C182.59 25.8125 182.949 25.9688 183.402 25.9688C183.574 25.9688 183.715 25.9375 183.824 25.875C183.949 25.7969 184.066 25.7188 184.176 25.6406C184.301 25.5469 184.418 25.4688 184.527 25.4062C184.652 25.3281 184.793 25.2891 184.949 25.2891C184.949 25.5234 184.895 25.75 184.785 25.9688C184.691 26.1719 184.559 26.3516 184.387 26.5078C184.215 26.6641 184.02 26.7891 183.801 26.8828C183.582 26.9766 183.363 27.0234 183.145 27.0234C182.551 27.0234 182.074 26.8203 181.715 26.4141C181.355 25.9922 181.074 25.4922 180.871 24.9141C180.684 24.3203 180.551 23.7188 180.473 23.1094C180.395 22.4844 180.332 21.9688 180.285 21.5625ZM183.145 17.4141C182.863 17.4141 182.621 17.4922 182.418 17.6484C182.23 17.8047 182.074 18 181.949 18.2344C181.824 18.4688 181.73 18.7266 181.668 19.0078C181.621 19.2734 181.598 19.5156 181.598 19.7344C181.848 19.7344 182.121 19.7188 182.418 19.6875C182.73 19.6562 183.035 19.5938 183.332 19.5C183.629 19.4062 183.895 19.2891 184.129 19.1484C184.379 18.9922 184.551 18.8047 184.645 18.5859C184.41 18.2109 184.191 17.9219 183.988 17.7188C183.785 17.5156 183.504 17.4141 183.145 17.4141ZM197.91 16.3359C198.004 16.3359 198.105 16.3672 198.215 16.4297C198.34 16.4922 198.418 16.5781 198.449 16.6875L200.09 24.8203C200.277 25.1016 200.41 25.3281 200.488 25.5C200.582 25.6719 200.629 25.8984 200.629 26.1797C200.629 26.3203 200.605 26.5 200.559 26.7188C200.512 26.9219 200.402 27.0234 200.23 27.0234H200.137C200.105 27.0234 200.09 27.0156 200.09 27C200.059 26.9844 200.012 26.9531 199.949 26.9062L199.598 26.5547C199.551 26.5078 199.527 26.4766 199.527 26.4609L197.91 17.2031V16.3359ZM197.512 11.0859C197.855 11.0859 198.105 11.1328 198.262 11.2266C198.434 11.3047 198.52 11.5078 198.52 11.8359C198.52 11.9453 198.512 12.0781 198.496 12.2344C198.48 12.3906 198.387 12.4922 198.215 12.5391C197.902 12.4141 197.707 12.2109 197.629 11.9297C197.551 11.6484 197.512 11.3672 197.512 11.0859ZM201.684 18.2812C201.684 18.1875 201.684 18.0781 201.684 17.9531C201.699 17.8281 201.715 17.7109 201.73 17.6016C201.762 17.4766 201.816 17.375 201.895 17.2969C201.973 17.2188 202.082 17.1797 202.223 17.1797C202.254 17.1797 202.301 17.1875 202.363 17.2031C202.441 17.2031 202.496 17.2031 202.527 17.2031C202.543 18.3125 202.598 19.4531 202.691 20.625C202.801 21.7969 203.012 22.9297 203.324 24.0234C203.34 23.8516 203.379 23.5625 203.441 23.1562C203.52 22.7344 203.598 22.2969 203.676 21.8438C203.77 21.375 203.855 20.9375 203.934 20.5312C204.027 20.125 204.09 19.8359 204.121 19.6641C204.23 19.3359 204.379 19 204.566 18.6562C204.754 18.2969 204.98 17.9688 205.246 17.6719C205.527 17.375 205.832 17.1328 206.16 16.9453C206.504 16.7578 206.863 16.6641 207.238 16.6641C207.863 16.6641 208.418 16.8047 208.902 17.0859C209.387 17.3672 209.816 17.7422 210.191 18.2109C210.582 18.6641 210.91 19.1875 211.176 19.7812C211.441 20.3594 211.66 20.9531 211.832 21.5625C212.004 22.1719 212.129 22.7578 212.207 23.3203C212.285 23.8828 212.324 24.3828 212.324 24.8203V25.1016C212.324 25.1953 212.309 25.2891 212.277 25.3828C212.262 25.4609 212.223 25.5312 212.16 25.5938C212.113 25.6406 212.02 25.6641 211.879 25.6641C211.723 25.6641 211.59 25.5703 211.48 25.3828C211.465 24.9922 211.418 24.5391 211.34 24.0234C211.277 23.5078 211.184 22.9688 211.059 22.4062C210.949 21.8281 210.793 21.2656 210.59 20.7188C210.402 20.1562 210.16 19.6562 209.863 19.2188C209.582 18.7812 209.246 18.4297 208.855 18.1641C208.465 17.8828 207.996 17.7422 207.449 17.7422C207.012 17.7422 206.629 17.8203 206.301 17.9766C205.988 18.1328 205.723 18.3516 205.504 18.6328C205.285 18.8984 205.105 19.2188 204.965 19.5938C204.84 19.9531 204.746 20.3438 204.684 20.7656C204.637 20.9844 204.574 21.375 204.496 21.9375C204.418 22.5 204.332 23.1016 204.238 23.7422C204.145 24.3828 204.059 24.9844 203.98 25.5469C203.918 26.1094 203.879 26.5 203.863 26.7188C203.816 26.875 203.73 26.9688 203.605 27C203.496 27.0312 203.379 27.0469 203.254 27.0469C203.238 27.0469 203.199 27.0391 203.137 27.0234C203.074 27.0234 203.043 27.0156 203.043 27L201.707 18.8672C201.707 18.8359 201.699 18.75 201.684 18.6094C201.684 18.4688 201.684 18.3594 201.684 18.2812ZM216.637 19.6641C216.387 19.6641 216.145 19.7109 215.91 19.8047C215.691 19.8984 215.473 20 215.254 20.1094C215.051 20.2031 214.832 20.2969 214.598 20.3906C214.379 20.4688 214.145 20.5078 213.895 20.5078C213.441 20.5078 213.215 20.2578 213.215 19.7578V19.7109C213.215 19.6953 213.223 19.6797 213.238 19.6641L216.777 18.5859C216.824 17.8984 216.832 17.2188 216.801 16.5469C216.785 15.8594 216.77 15.2031 216.754 14.5781C216.738 13.9375 216.746 13.3359 216.777 12.7734C216.824 12.2109 216.918 11.6875 217.059 11.2031C217.199 10.7188 217.41 10.2969 217.691 9.9375C217.988 9.57812 218.395 9.28125 218.91 9.04688C219.082 9.04688 219.27 9.07031 219.473 9.11719C219.691 9.16406 219.887 9.24219 220.059 9.35156C220.23 9.44531 220.379 9.57812 220.504 9.75C220.629 9.90625 220.691 10.0859 220.691 10.2891C220.004 10.2891 219.457 10.4141 219.051 10.6641C218.66 10.8984 218.363 11.2109 218.16 11.6016C217.957 11.9922 217.832 12.4531 217.785 12.9844C217.738 13.5 217.723 14.0469 217.738 14.625C217.77 15.1875 217.809 15.7578 217.855 16.3359C217.918 16.9141 217.949 17.4609 217.949 17.9766C218.48 17.9766 218.996 17.9219 219.496 17.8125C220.012 17.7031 220.52 17.5859 221.02 17.4609C221.535 17.3203 222.051 17.2031 222.566 17.1094C223.082 17 223.598 16.9453 224.113 16.9453C224.488 16.9453 224.676 17.125 224.676 17.4844C224.676 17.625 224.543 17.75 224.277 17.8594C224.012 17.9688 223.668 18.0703 223.246 18.1641C222.824 18.2422 222.355 18.3281 221.84 18.4219C221.324 18.5 220.809 18.5938 220.293 18.7031C219.793 18.7969 219.324 18.8984 218.887 19.0078C218.449 19.1172 218.105 19.25 217.855 19.4062C217.777 20 217.77 20.5938 217.832 21.1875C217.91 21.7656 218.004 22.3438 218.113 22.9219C218.238 23.4844 218.355 24.0547 218.465 24.6328C218.59 25.1953 218.66 25.7578 218.676 26.3203C218.676 26.4609 218.645 26.6172 218.582 26.7891C218.535 26.9453 218.434 27.0234 218.277 27.0234C218.152 27.0234 218.051 26.9766 217.973 26.8828C217.895 26.7891 217.824 26.6875 217.762 26.5781C217.715 26.4531 217.676 26.3359 217.645 26.2266C217.613 26.1016 217.59 26 217.574 25.9219C217.465 25.3438 217.363 24.8047 217.27 24.3047C217.176 23.7891 217.09 23.2891 217.012 22.8047C216.949 22.3047 216.895 21.8047 216.848 21.3047C216.816 20.8047 216.793 20.2578 216.777 19.6641H216.637ZM223.176 23.4609C223.176 23.1484 223.176 22.7344 223.176 22.2188C223.191 21.6875 223.23 21.125 223.293 20.5312C223.355 19.9219 223.449 19.3047 223.574 18.6797C223.699 18.0547 223.879 17.4922 224.113 16.9922C224.348 16.4922 224.645 16.0859 225.004 15.7734C225.363 15.4609 225.809 15.3047 226.34 15.3047C227.074 15.3047 227.66 15.5078 228.098 15.9141C228.551 16.3203 228.895 16.8281 229.129 17.4375C229.379 18.0312 229.543 18.6719 229.621 19.3594C229.715 20.0312 229.762 20.6406 229.762 21.1875C229.762 21.7812 229.676 22.4219 229.504 23.1094C229.332 23.7969 229.066 24.4297 228.707 25.0078C228.348 25.5859 227.895 26.0703 227.348 26.4609C226.816 26.8359 226.176 27.0234 225.426 27.0234C224.941 27.0234 224.551 26.9141 224.254 26.6953C223.957 26.4609 223.73 26.1719 223.574 25.8281C223.434 25.4844 223.332 25.1016 223.27 24.6797C223.207 24.2578 223.176 23.8516 223.176 23.4609ZM223.973 23.1797C223.973 23.4766 223.98 23.7891 223.996 24.1172C224.012 24.4297 224.059 24.7266 224.137 25.0078C224.215 25.2891 224.355 25.5156 224.559 25.6875C224.762 25.8594 225.059 25.9453 225.449 25.9453C226.137 25.9453 226.699 25.7891 227.137 25.4766C227.59 25.1641 227.949 24.7656 228.215 24.2812C228.48 23.7812 228.66 23.2344 228.754 22.6406C228.863 22.0469 228.918 21.4766 228.918 20.9297C228.918 20.5859 228.887 20.1406 228.824 19.5938C228.777 19.0469 228.668 18.5156 228.496 18C228.324 17.4844 228.074 17.0469 227.746 16.6875C227.418 16.3125 226.988 16.125 226.457 16.125C226.082 16.125 225.754 16.2734 225.473 16.5703C225.207 16.8672 224.98 17.25 224.793 17.7188C224.605 18.1875 224.457 18.7031 224.348 19.2656C224.254 19.8281 224.176 20.3672 224.113 20.8828C224.051 21.3984 224.012 21.8672 223.996 22.2891C223.98 22.7109 223.973 23.0078 223.973 23.1797ZM231.191 18.0469L232.574 23.7422H232.855C232.902 23.2422 232.988 22.7109 233.113 22.1484C233.254 21.5859 233.441 21.0312 233.676 20.4844C233.91 19.9219 234.184 19.3828 234.496 18.8672C234.824 18.3516 235.191 17.8984 235.598 17.5078C236.004 17.1172 236.457 16.8047 236.957 16.5703C237.473 16.3359 238.035 16.2188 238.645 16.2188C238.645 16.5938 238.488 16.9219 238.176 17.2031C237.879 17.4844 237.52 17.7578 237.098 18.0234C236.676 18.2891 236.238 18.5703 235.785 18.8672C235.348 19.1641 235.004 19.5234 234.754 19.9453C234.488 20.3672 234.27 20.8594 234.098 21.4219C233.941 21.9688 233.809 22.5391 233.699 23.1328C233.605 23.7109 233.535 24.2969 233.488 24.8906C233.441 25.4688 233.402 25.9922 233.371 26.4609C233.277 26.6016 233.176 26.7344 233.066 26.8594C232.973 26.9688 232.848 27.0234 232.691 27.0234C232.629 27.0234 232.551 27.0078 232.457 26.9766C232.363 26.9297 232.301 26.8438 232.27 26.7188L230.582 18.0469H231.191ZM240.027 16.6875C240.059 16.875 240.098 17.0469 240.145 17.2031C240.16 17.3594 240.184 17.5156 240.215 17.6719C240.246 17.8125 240.277 17.9375 240.309 18.0469V18.2812C240.324 18.375 240.34 18.5156 240.355 18.7031C240.371 18.875 240.395 19.0625 240.426 19.2656C240.473 19.4531 240.504 19.6406 240.52 19.8281C240.551 20.0156 240.574 20.1406 240.59 20.2031C240.637 19.9062 240.715 19.5859 240.824 19.2422C240.949 18.8828 241.098 18.5625 241.27 18.2812C241.457 17.9844 241.676 17.7344 241.926 17.5312C242.191 17.3125 242.52 17.2031 242.91 17.2031H243.027C243.418 17.5312 243.754 17.875 244.035 18.2344C244.332 18.5938 244.59 18.9766 244.809 19.3828C245.027 19.7891 245.23 20.2188 245.418 20.6719C245.605 21.125 245.801 21.6094 246.004 22.125H246.285C246.348 21.6875 246.457 21.1719 246.613 20.5781C246.77 19.9688 246.98 19.3984 247.246 18.8672C247.527 18.3203 247.863 17.8594 248.254 17.4844C248.66 17.1094 249.145 16.9219 249.707 16.9219C250.004 16.9219 250.293 17.0781 250.574 17.3906C250.855 17.6875 251.121 18.0859 251.371 18.5859C251.637 19.0703 251.871 19.6094 252.074 20.2031C252.293 20.7812 252.473 21.3594 252.613 21.9375C252.754 22.5 252.863 23.0156 252.941 23.4844C253.035 23.9531 253.082 24.3125 253.082 24.5625C253.082 24.7188 253.051 24.8516 252.988 24.9609C252.941 25.0703 252.832 25.125 252.66 25.125C252.488 25.125 252.355 25.0234 252.262 24.8203C252.23 24.6953 252.176 24.5078 252.098 24.2578C252.035 24.0078 251.965 23.7188 251.887 23.3906C251.809 23.0625 251.715 22.7266 251.605 22.3828C251.512 22.0234 251.418 21.6875 251.324 21.375C251.23 21.0469 251.145 20.7578 251.066 20.5078C250.988 20.2578 250.934 20.0703 250.902 19.9453C250.855 19.7891 250.777 19.6016 250.668 19.3828C250.574 19.1641 250.457 18.9531 250.316 18.75C250.176 18.5469 250.02 18.375 249.848 18.2344C249.676 18.0938 249.48 18.0234 249.262 18.0234C248.902 18.0234 248.59 18.2031 248.324 18.5625C248.059 18.9219 247.832 19.3438 247.645 19.8281C247.473 20.3125 247.34 20.7969 247.246 21.2812C247.168 21.7656 247.121 22.1328 247.105 22.3828C247.105 22.4922 247.098 22.6875 247.082 22.9688C247.082 23.25 247.082 23.5547 247.082 23.8828C247.082 24.2109 247.082 24.5156 247.082 24.7969C247.098 25.0781 247.105 25.2734 247.105 25.3828C246.996 25.5078 246.895 25.6328 246.801 25.7578C246.707 25.8672 246.574 25.9219 246.402 25.9219C246.324 25.9219 246.246 25.9062 246.168 25.875C246.105 25.8281 246.051 25.75 246.004 25.6406C245.988 25.5156 245.941 25.3125 245.863 25.0312C245.801 24.75 245.723 24.4531 245.629 24.1406C245.535 23.8281 245.449 23.5312 245.371 23.25C245.293 22.9688 245.238 22.7734 245.207 22.6641C245.176 22.5859 245.098 22.4141 244.973 22.1484C244.863 21.8828 244.738 21.5938 244.598 21.2812C244.457 20.9531 244.316 20.6406 244.176 20.3438C244.035 20.0469 243.926 19.8203 243.848 19.6641C243.676 19.3516 243.504 19.0938 243.332 18.8906C243.176 18.6719 242.918 18.5625 242.559 18.5625C242.371 18.5625 242.199 18.6328 242.043 18.7734C241.902 18.9141 241.777 19.0859 241.668 19.2891C241.574 19.4922 241.504 19.7031 241.457 19.9219C241.426 20.1406 241.41 20.3281 241.41 20.4844V26.4609C241.41 26.6172 241.371 26.75 241.293 26.8594C241.23 26.9688 241.129 27.0234 240.988 27.0234C240.91 27.0234 240.824 27.0078 240.73 26.9766C240.637 26.9297 240.59 26.8438 240.59 26.7188L239.207 16.6875H240.027ZM254.137 24.5625C254.137 24.1094 254.184 23.5469 254.277 22.875C254.387 22.2031 254.535 21.5078 254.723 20.7891C254.926 20.0547 255.176 19.3203 255.473 18.5859C255.785 17.8516 256.137 17.1953 256.527 16.6172C256.918 16.0234 257.363 15.5469 257.863 15.1875C258.363 14.8281 258.91 14.6484 259.504 14.6484C259.504 14.8672 259.41 15.0859 259.223 15.3047C259.051 15.5078 258.848 15.7109 258.613 15.9141C258.395 16.1016 258.168 16.2891 257.934 16.4766C257.699 16.6484 257.535 16.8125 257.441 16.9688C257.066 17.4531 256.73 17.9922 256.434 18.5859C256.137 19.1641 255.879 19.7656 255.66 20.3906C255.441 21 255.27 21.6328 255.145 22.2891C255.02 22.9297 254.957 23.5547 254.957 24.1641C254.957 24.2578 254.973 24.4062 255.004 24.6094C255.035 24.7969 255.074 24.9922 255.121 25.1953C255.184 25.3984 255.262 25.5781 255.355 25.7344C255.449 25.875 255.551 25.9453 255.66 25.9453H255.73C255.746 25.9453 255.762 25.9375 255.777 25.9219C256.199 25.4531 256.551 24.9453 256.832 24.3984C257.113 23.8516 257.355 23.2891 257.559 22.7109C257.762 22.1172 257.934 21.5156 258.074 20.9062C258.215 20.2969 258.355 19.6953 258.496 19.1016C258.543 18.9297 258.559 18.6719 258.543 18.3281C258.543 17.9844 258.559 17.6484 258.59 17.3203C258.637 16.9922 258.723 16.7109 258.848 16.4766C258.973 16.2266 259.199 16.1016 259.527 16.1016C259.59 16.1016 259.66 16.1094 259.738 16.125C259.832 16.125 259.879 16.1328 259.879 16.1484C260.457 17.3516 260.949 18.375 261.355 19.2188C261.762 20.0469 262.105 20.7344 262.387 21.2812C262.668 21.8281 262.895 22.2578 263.066 22.5703C263.238 22.8828 263.363 23.125 263.441 23.2969C263.535 23.4531 263.598 23.5625 263.629 23.625C263.66 23.6719 263.676 23.7109 263.676 23.7422C263.691 23.8047 263.707 23.9219 263.723 24.0938C263.738 24.25 263.746 24.4219 263.746 24.6094C263.762 24.7812 263.77 24.9531 263.77 25.125C263.785 25.2812 263.793 25.3828 263.793 25.4297C263.637 25.4297 263.465 25.4219 263.277 25.4062C263.09 25.3906 262.957 25.2891 262.879 25.1016L259.879 18.8672L259.621 18.5859C259.574 18.7578 259.48 19.0625 259.34 19.5C259.215 19.9375 259.074 20.4062 258.918 20.9062C258.777 21.3906 258.645 21.8516 258.52 22.2891C258.395 22.7266 258.309 23.0312 258.262 23.2031C258.168 23.4375 258.043 23.7656 257.887 24.1875C257.746 24.6094 257.566 25.0312 257.348 25.4531C257.129 25.875 256.879 26.2422 256.598 26.5547C256.316 26.8672 256.004 27.0234 255.66 27.0234C255.379 27.0234 255.145 26.9375 254.957 26.7656C254.77 26.5781 254.613 26.3516 254.488 26.0859C254.363 25.8203 254.27 25.5469 254.207 25.2656C254.16 24.9844 254.137 24.75 254.137 24.5625ZM268.363 19.6641C268.02 19.6641 267.676 19.7109 267.332 19.8047C266.988 19.8984 266.645 20 266.301 20.1094C265.973 20.2031 265.637 20.2969 265.293 20.3906C264.965 20.4688 264.621 20.5078 264.262 20.5078C264.059 20.5078 263.895 20.4688 263.77 20.3906C263.645 20.3125 263.582 20.1562 263.582 19.9219C263.582 19.7344 263.629 19.6094 263.723 19.5469C263.832 19.4688 263.957 19.4297 264.098 19.4297C264.254 19.4141 264.41 19.4141 264.566 19.4297C264.738 19.4453 264.871 19.4375 264.965 19.4062C265.09 19.375 265.316 19.3203 265.645 19.2422C265.988 19.1641 266.348 19.0859 266.723 19.0078C267.098 18.9297 267.449 18.8516 267.777 18.7734C268.121 18.6953 268.355 18.6328 268.48 18.5859C268.48 18.5391 268.48 18.4609 268.48 18.3516C268.496 18.2266 268.504 18.1016 268.504 17.9766C268.52 17.8359 268.527 17.7109 268.527 17.6016V17.3438C268.527 16.875 268.496 16.4219 268.434 15.9844C268.371 15.5312 268.301 15.0781 268.223 14.625C268.16 14.1719 268.098 13.7188 268.035 13.2656C267.973 12.8125 267.941 12.3594 267.941 11.9062C267.941 11.75 267.957 11.6016 267.988 11.4609C268.035 11.3047 268.16 11.2266 268.363 11.2266C268.441 11.2266 268.52 11.25 268.598 11.2969C268.691 11.3281 268.746 11.3984 268.762 11.5078L269.582 18.2812C269.598 18.2969 269.613 18.3047 269.629 18.3047H269.699C269.855 18.3047 270.098 18.2656 270.426 18.1875C270.754 18.1094 271.121 18.0156 271.527 17.9062C271.934 17.7969 272.363 17.6797 272.816 17.5547C273.285 17.4297 273.73 17.3203 274.152 17.2266C274.574 17.1172 274.957 17.0391 275.301 16.9922C275.645 16.9297 275.91 16.9219 276.098 16.9688C276.16 16.9844 276.262 17.0625 276.402 17.2031C276.543 17.3281 276.629 17.4219 276.66 17.4844C276.691 17.6406 276.559 17.7969 276.262 17.9531C275.965 18.0938 275.574 18.2344 275.09 18.375C274.621 18.5 274.098 18.6172 273.52 18.7266C272.941 18.8359 272.387 18.9375 271.855 19.0312C271.34 19.1094 270.895 19.1875 270.52 19.2656C270.145 19.3281 269.918 19.375 269.84 19.4062V19.875C269.84 20.0781 269.832 20.3047 269.816 20.5547C269.816 20.7891 269.816 21.0156 269.816 21.2344V21.7031C269.816 22.5 269.871 23.2812 269.98 24.0469C270.09 24.7969 270.145 25.5547 270.145 26.3203C270.145 26.4297 270.113 26.5234 270.051 26.6016C269.988 26.6641 269.91 26.7266 269.816 26.7891C269.723 26.8359 269.629 26.8828 269.535 26.9297C269.441 26.9609 269.371 26.9844 269.324 27C269.199 26.3281 269.105 25.7188 269.043 25.1719C268.996 24.6094 268.957 24.0547 268.926 23.5078C268.91 22.9609 268.887 22.3828 268.855 21.7734C268.84 21.1484 268.809 20.4453 268.762 19.6641H268.363ZM274.996 16.3359C275.09 16.3359 275.191 16.3672 275.301 16.4297C275.426 16.4922 275.504 16.5781 275.535 16.6875L277.176 24.8203C277.363 25.1016 277.496 25.3281 277.574 25.5C277.668 25.6719 277.715 25.8984 277.715 26.1797C277.715 26.3203 277.691 26.5 277.645 26.7188C277.598 26.9219 277.488 27.0234 277.316 27.0234H277.223C277.191 27.0234 277.176 27.0156 277.176 27C277.145 26.9844 277.098 26.9531 277.035 26.9062L276.684 26.5547C276.637 26.5078 276.613 26.4766 276.613 26.4609L274.996 17.2031V16.3359ZM274.598 11.0859C274.941 11.0859 275.191 11.1328 275.348 11.2266C275.52 11.3047 275.605 11.5078 275.605 11.8359C275.605 11.9453 275.598 12.0781 275.582 12.2344C275.566 12.3906 275.473 12.4922 275.301 12.5391C274.988 12.4141 274.793 12.2109 274.715 11.9297C274.637 11.6484 274.598 11.3672 274.598 11.0859ZM278.629 23.4609C278.629 23.1484 278.629 22.7344 278.629 22.2188C278.645 21.6875 278.684 21.125 278.746 20.5312C278.809 19.9219 278.902 19.3047 279.027 18.6797C279.152 18.0547 279.332 17.4922 279.566 16.9922C279.801 16.4922 280.098 16.0859 280.457 15.7734C280.816 15.4609 281.262 15.3047 281.793 15.3047C282.527 15.3047 283.113 15.5078 283.551 15.9141C284.004 16.3203 284.348 16.8281 284.582 17.4375C284.832 18.0312 284.996 18.6719 285.074 19.3594C285.168 20.0312 285.215 20.6406 285.215 21.1875C285.215 21.7812 285.129 22.4219 284.957 23.1094C284.785 23.7969 284.52 24.4297 284.16 25.0078C283.801 25.5859 283.348 26.0703 282.801 26.4609C282.27 26.8359 281.629 27.0234 280.879 27.0234C280.395 27.0234 280.004 26.9141 279.707 26.6953C279.41 26.4609 279.184 26.1719 279.027 25.8281C278.887 25.4844 278.785 25.1016 278.723 24.6797C278.66 24.2578 278.629 23.8516 278.629 23.4609ZM279.426 23.1797C279.426 23.4766 279.434 23.7891 279.449 24.1172C279.465 24.4297 279.512 24.7266 279.59 25.0078C279.668 25.2891 279.809 25.5156 280.012 25.6875C280.215 25.8594 280.512 25.9453 280.902 25.9453C281.59 25.9453 282.152 25.7891 282.59 25.4766C283.043 25.1641 283.402 24.7656 283.668 24.2812C283.934 23.7812 284.113 23.2344 284.207 22.6406C284.316 22.0469 284.371 21.4766 284.371 20.9297C284.371 20.5859 284.34 20.1406 284.277 19.5938C284.23 19.0469 284.121 18.5156 283.949 18C283.777 17.4844 283.527 17.0469 283.199 16.6875C282.871 16.3125 282.441 16.125 281.91 16.125C281.535 16.125 281.207 16.2734 280.926 16.5703C280.66 16.8672 280.434 17.25 280.246 17.7188C280.059 18.1875 279.91 18.7031 279.801 19.2656C279.707 19.8281 279.629 20.3672 279.566 20.8828C279.504 21.3984 279.465 21.8672 279.449 22.2891C279.434 22.7109 279.426 23.0078 279.426 23.1797ZM286.363 18.2812C286.363 18.1875 286.363 18.0781 286.363 17.9531C286.379 17.8281 286.395 17.7109 286.41 17.6016C286.441 17.4766 286.496 17.375 286.574 17.2969C286.652 17.2188 286.762 17.1797 286.902 17.1797C286.934 17.1797 286.98 17.1875 287.043 17.2031C287.121 17.2031 287.176 17.2031 287.207 17.2031C287.223 18.3125 287.277 19.4531 287.371 20.625C287.48 21.7969 287.691 22.9297 288.004 24.0234C288.02 23.8516 288.059 23.5625 288.121 23.1562C288.199 22.7344 288.277 22.2969 288.355 21.8438C288.449 21.375 288.535 20.9375 288.613 20.5312C288.707 20.125 288.77 19.8359 288.801 19.6641C288.91 19.3359 289.059 19 289.246 18.6562C289.434 18.2969 289.66 17.9688 289.926 17.6719C290.207 17.375 290.512 17.1328 290.84 16.9453C291.184 16.7578 291.543 16.6641 291.918 16.6641C292.543 16.6641 293.098 16.8047 293.582 17.0859C294.066 17.3672 294.496 17.7422 294.871 18.2109C295.262 18.6641 295.59 19.1875 295.855 19.7812C296.121 20.3594 296.34 20.9531 296.512 21.5625C296.684 22.1719 296.809 22.7578 296.887 23.3203C296.965 23.8828 297.004 24.3828 297.004 24.8203V25.1016C297.004 25.1953 296.988 25.2891 296.957 25.3828C296.941 25.4609 296.902 25.5312 296.84 25.5938C296.793 25.6406 296.699 25.6641 296.559 25.6641C296.402 25.6641 296.27 25.5703 296.16 25.3828C296.145 24.9922 296.098 24.5391 296.02 24.0234C295.957 23.5078 295.863 22.9688 295.738 22.4062C295.629 21.8281 295.473 21.2656 295.27 20.7188C295.082 20.1562 294.84 19.6562 294.543 19.2188C294.262 18.7812 293.926 18.4297 293.535 18.1641C293.145 17.8828 292.676 17.7422 292.129 17.7422C291.691 17.7422 291.309 17.8203 290.98 17.9766C290.668 18.1328 290.402 18.3516 290.184 18.6328C289.965 18.8984 289.785 19.2188 289.645 19.5938C289.52 19.9531 289.426 20.3438 289.363 20.7656C289.316 20.9844 289.254 21.375 289.176 21.9375C289.098 22.5 289.012 23.1016 288.918 23.7422C288.824 24.3828 288.738 24.9844 288.66 25.5469C288.598 26.1094 288.559 26.5 288.543 26.7188C288.496 26.875 288.41 26.9688 288.285 27C288.176 27.0312 288.059 27.0469 287.934 27.0469C287.918 27.0469 287.879 27.0391 287.816 27.0234C287.754 27.0234 287.723 27.0156 287.723 27L286.387 18.8672C286.387 18.8359 286.379 18.75 286.363 18.6094C286.363 18.4688 286.363 18.3594 286.363 18.2812Z" fill="white"/>
<path d="M145.477 42.7461C145.523 42.7461 145.594 42.7461 145.687 42.7461C145.781 42.7617 145.844 42.7773 145.875 42.793L147.07 43.9883C147.336 44.2539 147.586 44.5039 147.82 44.7383C148.07 44.9727 148.242 45.1289 148.336 45.207C148.398 45.2695 148.469 45.332 148.547 45.3945C148.641 45.457 148.727 45.5117 148.805 45.5586C148.898 45.6211 148.977 45.668 149.039 45.6992L149.156 45.7695L154.031 40.5898L154.031 41.4102L152.461 43.5195C152.164 43.9102 151.859 44.3086 151.547 44.7148C151.25 45.1211 150.961 45.5039 150.68 45.8633C150.398 46.2383 150.164 46.5586 149.977 46.8242C149.867 46.9492 149.797 47.0273 149.766 47.0586C149.734 47.1055 149.664 47.1289 149.555 47.1289L149.484 47.1055L149.414 47.1055C149.367 47.0742 149.273 47.0273 149.133 46.9648C148.992 46.9023 148.906 46.8555 148.875 46.8242L144.797 43.3086C144.781 43.2773 144.773 43.2539 144.773 43.2383L144.773 43.1914C144.773 42.9883 144.852 42.8633 145.008 42.8164C145.164 42.7695 145.32 42.7461 145.477 42.7461Z" fill="white"/>
</g>
<defs>
<filter id="filter0_d_581_6306" x="0" y="0" width="302" height="56" filterUnits="userSpaceOnUse" color-interpolation-filters="sRGB">
<feFlood flood-opacity="0" result="BackgroundImageFix"/>
<feColorMatrix in="SourceAlpha" type="matrix" values="0 0 0 0 0 0 0 0 0 0 0 0 0 0 0 0 0 0 127 0" result="hardAlpha"/>
<feOffset dy="4"/>
<feGaussianBlur stdDeviation="2"/>
<feComposite in2="hardAlpha" operator="out"/>
<feColorMatrix type="matrix" values="0 0 0 0 0 0 0 0 0 0 0 0 0 0 0 0 0 0 0.25 0"/>
<feBlend mode="normal" in2="BackgroundImageFix" result="effect1_dropShadow_581_6306"/>
<feBlend mode="normal" in="SourceGraphic" in2="effect1_dropShadow_581_6306" result="shape"/>
</filter>
</defs>
</svg>
