<svg width="51" height="51" viewBox="0 0 51 51" fill="none" xmlns="http://www.w3.org/2000/svg">
<path d="M13.7363 46.4911V31.6985" stroke="#F8DF55" stroke-width="2" stroke-miterlimit="10" stroke-linecap="round" stroke-linejoin="round"/>
<path d="M13.7363 10.5661V4.22644" stroke="#F8DF55" stroke-width="2" stroke-miterlimit="10" stroke-linecap="round" stroke-linejoin="round"/>
<path d="M36.9819 46.4911V40.1514" stroke="#F8DF55" stroke-width="2" stroke-miterlimit="10" stroke-linecap="round" stroke-linejoin="round"/>
<path d="M36.9819 19.0191V4.22644" stroke="#F8DF55" stroke-width="1.5" stroke-miterlimit="10" stroke-linecap="round" stroke-linejoin="round"/>
<path d="M20.0764 14.7926V27.472C20.0764 29.7966 19.0197 31.6985 15.8499 31.6985H11.6234C8.45359 31.6985 7.39697 29.7966 7.39697 27.472V14.7926C7.39697 12.4681 8.45359 10.5662 11.6234 10.5662H15.8499C19.0197 10.5662 20.0764 12.4681 20.0764 14.7926Z" stroke="#F8DF55" stroke-width="1.5" stroke-miterlimit="10" stroke-linecap="round" stroke-linejoin="round"/>
<path d="M43.322 23.2455V35.9249C43.322 38.2494 42.2654 40.1514 39.0955 40.1514H34.869C31.6992 40.1514 30.6426 38.2494 30.6426 35.9249V23.2455C30.6426 20.921 31.6992 19.019 34.869 19.019H39.0955C42.2654 19.019 43.322 20.921 43.322 23.2455Z" stroke="#F8DF55" stroke-width="1.5" stroke-miterlimit="10" stroke-linecap="round" stroke-linejoin="round"/>
</svg>
