<svg width="23" height="23" viewBox="0 0 23 23" fill="none" xmlns="http://www.w3.org/2000/svg">
<path d="M2.87549 8.73043V14.26C2.87549 16.2917 2.87549 16.2917 4.79215 17.5854L10.063 20.6329C10.8584 21.0929 12.1522 21.0929 12.938 20.6329L18.2088 17.5854C20.1255 16.2917 20.1255 16.2917 20.1255 14.2696V8.73043C20.1255 6.70834 20.1255 6.70834 18.2088 5.41459L12.938 2.36709C12.1522 1.90709 10.8584 1.90709 10.063 2.36709L4.79215 5.41459C2.87549 6.70834 2.87549 6.70834 2.87549 8.73043Z" stroke="#514DF3" stroke-width="2" stroke-linecap="round" stroke-linejoin="round"/>
<path d="M11.5005 14.375C13.0883 14.375 14.3755 13.0878 14.3755 11.5C14.3755 9.91218 13.0883 8.625 11.5005 8.625C9.91267 8.625 8.62549 9.91218 8.62549 11.5C8.62549 13.0878 9.91267 14.375 11.5005 14.375Z" stroke="#514DF3" stroke-width="2" stroke-linecap="round" stroke-linejoin="round"/>
</svg>
