<svg width="200" height="184" viewBox="0 0 200 184" fill="none" xmlns="http://www.w3.org/2000/svg">
<path d="M95.9646 102.329L83.333 103.435V109.792L89.6488 109.239L95.9646 108.686V104.959V102.329Z" fill="white"/>
<path fill-rule="evenodd" clip-rule="evenodd" d="M83.3334 135.22L77.0176 135.773V110.345L83.3334 109.792V112.434V116.149L95.9649 115.043V108.686L102.281 108.134V133.562L95.9649 134.113V121.4L89.6492 121.953L83.3334 122.506V135.22Z" fill="white"/>
<path d="M77.0174 135.773L76.8997 136.01L76.9662 136.043L77.0402 136.037L77.0174 135.773ZM83.3332 135.22L83.356 135.484L83.5964 135.463V135.22H83.3332ZM95.9648 102.329H96.228V102.166L96.0825 102.092L95.9648 102.329ZM95.9648 115.043L95.9876 115.307L96.228 115.286V115.043H95.9648ZM95.9648 121.4H96.228V121.111L95.942 121.136L95.9648 121.4ZM102.281 108.133H102.544V107.97L102.398 107.897L102.281 108.133ZM102.281 133.562L102.303 133.825L102.544 133.804V133.562H102.281ZM83.3332 122.506L83.3104 122.242L83.0701 122.263V122.506H83.3332ZM83.3332 116.149H83.0701V116.438L83.356 116.413L83.3332 116.149ZM70.7016 132.594H70.4385V132.758L70.5839 132.831L70.7016 132.594ZM89.649 109.239L89.6262 108.975L89.649 109.239ZM89.649 99.1516L89.7667 98.9146L89.7002 98.8812L89.6262 98.8878L89.649 99.1516ZM70.7016 107.166L70.6783 106.902L70.4385 106.924V107.166H70.7016ZM77.0174 100.257L76.9946 99.9926L76.7543 100.014V100.257H77.0174ZM95.9648 134.113L95.8471 134.35L95.9136 134.383L95.9876 134.377L95.9648 134.113ZM89.649 130.935H89.3858V131.099L89.5313 131.172L89.649 130.935ZM77.0402 136.037L83.356 135.484L83.3104 134.956L76.9946 135.509L77.0402 136.037ZM83.356 103.699L95.9876 102.593L95.942 102.065L83.3104 103.171L83.356 103.699ZM95.7016 108.686V115.043H96.228V108.686H95.7016ZM95.9876 108.95L102.303 108.397L102.258 107.87L95.942 108.422L95.9876 108.95ZM83.356 116.413L95.9876 115.307L95.942 114.779L83.3104 115.885L83.356 116.413ZM70.5839 132.831L76.8997 136.01L77.1351 135.536L70.8194 132.357L70.5839 132.831ZM95.7016 102.329V104.959H96.228V102.329H95.7016ZM95.7016 104.959V108.686H96.228V104.959H95.7016ZM102.398 107.897L96.0823 104.722L95.8473 105.196L102.163 108.37L102.398 107.897ZM96.0825 114.806L89.7667 111.628L89.5313 112.102L95.8471 115.28L96.0825 114.806ZM83.356 110.056L89.6718 109.503L89.6262 108.975L83.3104 109.528L83.356 110.056ZM89.6718 109.503L95.9876 108.95L95.942 108.422L89.6262 108.975L89.6718 109.503ZM89.9122 111.865V109.239H89.3858V111.865H89.9122ZM83.5964 116.149V112.434H83.0701V116.149H83.5964ZM83.5964 112.434V109.792H83.0701V112.434H83.5964ZM89.6255 111.601L83.3097 112.171L83.3567 112.698L89.6725 112.129L89.6255 111.601ZM83.356 122.77L89.6718 122.217L89.6262 121.689L83.3104 122.242L83.356 122.77ZM89.6718 122.217L95.9876 121.664L95.942 121.136L89.6262 121.689L89.6718 122.217ZM96.0825 102.092L89.7667 98.9146L89.5313 99.3885L95.8471 102.566L96.0825 102.092ZM83.0701 122.506V135.22H83.5964V122.506H83.0701ZM83.0701 103.435V109.792H83.5964V103.435H83.0701ZM76.7543 110.345V135.773H77.2806V110.345H76.7543ZM77.0402 110.608L83.356 110.056L83.3104 109.528L76.9946 110.081L77.0402 110.608ZM83.4513 109.555L77.1355 106.366L76.8994 106.839L83.2151 110.029L83.4513 109.555ZM70.4385 107.166V132.594H70.9648V107.166H70.4385ZM77.1351 110.108L70.8194 106.929L70.5839 107.403L76.8997 110.581L77.1351 110.108ZM76.9941 106.339L70.6783 106.902L70.725 107.43L77.0408 106.866L76.9941 106.339ZM89.6262 98.8878L76.9946 99.9926L77.0402 100.52L89.6718 99.4154L89.6262 98.8878ZM83.4509 103.198L77.1351 100.02L76.8997 100.493L83.2155 103.672L83.4509 103.198ZM76.7543 100.257V106.602H77.2806V100.257H76.7543ZM102.258 133.298L95.942 133.849L95.9876 134.377L102.303 133.825L102.258 133.298ZM96.228 134.113V121.4H95.7016V134.113H96.228ZM96.0825 133.876L89.7667 130.698L89.5313 131.172L95.8471 134.35L96.0825 133.876ZM89.9122 130.935V121.953H89.3858V130.935H89.9122ZM102.017 108.133V133.562H102.544V108.133H102.017Z" fill="white"/>
<path fill-rule="evenodd" clip-rule="evenodd" d="M111.754 132.748L105.438 133.301V101.516L111.754 100.963L124.386 99.8571V102.487V106.214L118.07 106.767L111.754 107.32V122.657V126.391L124.386 125.285V131.642L111.754 132.748ZM130.702 105.661V124.732L124.386 125.285V106.214L130.702 105.661Z" fill="white"/>
<path d="M105.438 133.301L105.321 133.537L105.387 133.571L105.461 133.564L105.438 133.301ZM111.754 100.963L111.777 101.227L111.754 100.963ZM124.386 99.8571H124.649V99.6935L124.503 99.6204L124.386 99.8571ZM124.386 131.642L124.408 131.906L124.649 131.885V131.642H124.386ZM130.701 105.661H130.965V105.498L130.819 105.424L130.701 105.661ZM130.701 124.732L130.724 124.996L130.965 124.975V124.732H130.701ZM111.754 126.391H111.491V126.68L111.777 126.655L111.754 126.391ZM111.754 107.32L111.731 107.056L111.491 107.077V107.32H111.754ZM99.1225 98.3371L99.0997 98.0731L98.8594 98.0941V98.3371H99.1225ZM99.1225 130.122H98.8594V130.286L99.0048 130.359L99.1225 130.122ZM118.07 106.767L118.047 106.503L118.07 106.767ZM118.07 96.6795L118.188 96.4426L118.121 96.4092L118.047 96.4157L118.07 96.6795ZM105.461 133.564L111.777 133.012L111.731 132.484L105.416 133.037L105.461 133.564ZM105.461 101.779L111.777 101.227L111.731 100.699L105.416 101.252L105.461 101.779ZM111.777 101.227L124.408 100.121L124.363 99.5933L111.731 100.699L111.777 101.227ZM111.777 133.012L124.408 131.906L124.363 131.378L111.731 132.484L111.777 133.012ZM124.123 125.285V131.642H124.649V125.285H124.123ZM124.408 106.478L130.724 105.925L130.679 105.398L124.363 105.95L124.408 106.478ZM124.408 125.549L130.724 124.996L130.679 124.469L124.363 125.021L124.408 125.549ZM111.777 126.655L124.408 125.549L124.363 125.021L111.731 126.127L111.777 126.655ZM105.556 101.279L99.2403 98.1001L99.0048 98.5739L105.321 101.752L105.556 101.279ZM98.8594 98.3371V130.122H99.3857V98.3371H98.8594ZM99.0048 130.359L105.321 133.537L105.556 133.064L99.2403 129.885L99.0048 130.359ZM124.123 99.8571V102.487H124.649V99.8571H124.123ZM124.123 102.487V106.214H124.649V102.487H124.123ZM130.819 105.424L124.503 102.25L124.268 102.724L130.584 105.898L130.819 105.424ZM111.777 107.584L118.093 107.031L118.047 106.503L111.731 107.056L111.777 107.584ZM118.093 107.031L124.408 106.478L124.363 105.95L118.047 106.503L118.093 107.031ZM124.503 125.048L118.188 121.867L117.952 122.341L124.268 125.522L124.503 125.048ZM124.503 99.6204L118.188 96.4426L117.952 96.9165L124.268 100.094L124.503 99.6204ZM118.047 96.4157L99.0997 98.0731L99.1453 98.6009L118.093 96.9433L118.047 96.4157ZM124.123 106.214V125.285H124.649V106.214H124.123ZM130.438 105.661V124.732H130.965V105.661H130.438ZM117.807 106.767V122.104H118.333V106.767H117.807ZM112.017 126.391V107.32H111.491V126.391H112.017ZM118.047 121.84L111.731 122.393L111.777 122.921L118.093 122.368L118.047 121.84ZM105.701 133.301V101.516H105.175V133.301H105.701ZM112.017 122.657V107.32H111.491V122.657H112.017ZM112.017 126.391V122.657H111.491V126.391H112.017Z" fill="white"/>
<path d="M67.5437 104.801L54.9121 105.907V112.264L61.2279 111.711L67.5437 111.158V107.431V104.801Z" fill="white"/>
<path fill-rule="evenodd" clip-rule="evenodd" d="M48.5967 138.245L54.9125 137.692V124.978L61.2283 124.425L67.5441 123.873V136.585L73.8598 136.034V123.32L67.5441 123.873V120.057V117.516L73.8598 116.963V110.606L67.5441 111.159V117.516L54.9125 118.621V115.083V112.264L48.5967 112.817V138.245Z" fill="white"/>
<path d="M48.5965 138.245L48.4788 138.482L48.5453 138.515L48.6193 138.509L48.5965 138.245ZM54.9123 137.692L54.9351 137.956L55.1755 137.935V137.692H54.9123ZM67.5439 104.801H67.8071V104.638L67.6616 104.565L67.5439 104.801ZM73.8597 116.963L73.8825 117.227L74.1228 117.206V116.963H73.8597ZM73.8597 123.32H74.1228V123.158L73.9799 123.084L73.8597 123.32ZM73.8597 110.606H74.1228V110.442L73.9772 110.369L73.8597 110.606ZM73.8597 136.034L73.8825 136.298L74.1228 136.277V136.034H73.8597ZM54.9123 124.978L54.8895 124.714L54.6492 124.735V124.978H54.9123ZM54.9123 118.621H54.6492V118.91L54.9351 118.885L54.9123 118.621ZM42.2807 135.066H42.0176V135.23L42.163 135.303L42.2807 135.066ZM61.2281 111.711L61.2053 111.447L61.2281 111.711ZM61.2281 101.624L61.3458 101.387L61.2793 101.354L61.2053 101.36L61.2281 101.624ZM42.2807 109.638L42.2574 109.375L42.0176 109.396V109.638H42.2807ZM48.5965 102.729L48.5737 102.465L48.3334 102.486V102.729H48.5965ZM67.5439 136.585L67.4262 136.822L67.4927 136.855L67.5667 136.849L67.5439 136.585ZM61.2281 133.407H60.9649V133.571L61.1104 133.644L61.2281 133.407ZM48.6193 138.509L54.9351 137.956L54.8895 137.428L48.5737 137.981L48.6193 138.509ZM54.9351 106.171L67.5667 105.065L67.5211 104.538L54.8895 105.643L54.9351 106.171ZM67.2807 111.158V117.515H67.8071V111.158H67.2807ZM67.5667 117.779L73.8825 117.227L73.8369 116.699L67.5211 117.252L67.5667 117.779ZM67.5667 124.136L73.8825 123.584L73.8369 123.056L67.5211 123.609L67.5667 124.136ZM73.5965 110.606V116.963H74.1228V110.606H73.5965ZM67.5667 111.422L73.8825 110.87L73.8369 110.342L67.5211 110.895L67.5667 111.422ZM73.5965 123.32V136.034H74.1228V123.32H73.5965ZM54.9351 118.885L67.5667 117.779L67.5211 117.252L54.8895 118.357L54.9351 118.885ZM42.163 135.303L48.4788 138.482L48.7142 138.008L42.3985 134.83L42.163 135.303ZM67.2807 117.515V120.057H67.8071V117.515H67.2807ZM67.2807 120.057V123.873H67.8071V120.057H67.2807ZM73.9799 123.084L67.6641 119.821L67.4237 120.292L73.7395 123.555L73.9799 123.084ZM67.2807 104.801V107.431H67.8071V104.801H67.2807ZM67.2807 107.431V111.158H67.8071V107.431H67.2807ZM73.9772 110.369L67.6614 107.194L67.4263 107.668L73.7421 110.843L73.9772 110.369ZM67.6616 117.279L61.3458 114.1L61.1104 114.574L67.4262 117.752L67.6616 117.279ZM54.9351 112.528L61.2509 111.975L61.2053 111.447L54.8895 112L54.9351 112.528ZM61.2509 111.975L67.5667 111.422L67.5211 110.895L61.2053 111.447L61.2509 111.975ZM61.4913 114.337V111.711H60.9649V114.337H61.4913ZM55.1755 118.621V115.083H54.6492V118.621H55.1755ZM55.1755 115.083V112.264H54.6492V115.083H55.1755ZM61.1974 114.074L54.8816 114.82L54.943 115.346L61.2588 114.6L61.1974 114.074ZM54.9351 125.242L61.2509 124.689L61.2053 124.161L54.8895 124.714L54.9351 125.242ZM61.2509 124.689L67.5667 124.136L67.5211 123.609L61.2053 124.161L61.2509 124.689ZM67.6616 104.565L61.3458 101.387L61.1104 101.861L67.4262 105.038L67.6616 104.565ZM54.6492 124.978V137.692H55.1755V124.978H54.6492ZM54.6492 105.907V112.264H55.1755V105.907H54.6492ZM48.3334 112.817V138.245H48.8597V112.817H48.3334ZM48.6193 113.081L54.9351 112.528L54.8895 112L48.5737 112.553L48.6193 113.081ZM55.0304 112.027L48.7146 108.838L48.4785 109.311L54.7942 112.501L55.0304 112.027ZM42.0176 109.638V135.066H42.5439V109.638H42.0176ZM48.7142 112.58L42.3985 109.401L42.163 109.875L48.4788 113.054L48.7142 112.58ZM48.5732 108.811L42.2574 109.375L42.3041 109.902L48.6199 109.338L48.5732 108.811ZM61.2053 101.36L48.5737 102.465L48.6193 102.993L61.2509 101.888L61.2053 101.36ZM55.03 105.67L48.7142 102.492L48.4788 102.966L54.7946 106.144L55.03 105.67ZM48.3334 102.729V109.075H48.8597V102.729H48.3334ZM73.8369 135.77L67.5211 136.321L67.5667 136.849L73.8825 136.298L73.8369 135.77ZM67.8071 136.585V123.873H67.2807V136.585H67.8071ZM67.6616 136.348L61.3458 133.17L61.1104 133.644L67.4262 136.822L67.6616 136.348ZM61.4913 133.407V124.425H60.9649V133.407H61.4913Z" fill="white"/>
<path d="M180.702 95.001L168.07 96.1066V102.464L174.386 101.911L180.702 101.358V97.6307V95.001Z" fill="white"/>
<path fill-rule="evenodd" clip-rule="evenodd" d="M161.755 128.445L168.071 127.892V115.178L174.386 114.625L180.702 114.072V126.785L187.018 126.233V113.519L180.702 114.072V110.256V107.715L187.018 107.162V100.805L180.702 101.358V107.715L168.071 108.821V105.283V102.464L161.755 103.016V128.445Z" fill="white"/>
<path d="M161.755 128.444L161.637 128.681L161.704 128.715L161.778 128.708L161.755 128.444ZM168.071 127.892L168.093 128.156L168.334 128.134V127.892H168.071ZM180.702 95.0009H180.965V94.8373L180.82 94.7641L180.702 95.0009ZM187.018 107.162L187.041 107.426L187.281 107.405V107.162H187.018ZM187.018 113.519H187.281V113.358L187.137 113.284L187.018 113.519ZM187.018 100.805H187.281V100.641L187.135 100.568L187.018 100.805ZM187.018 126.233L187.041 126.497L187.281 126.476V126.233H187.018ZM168.071 115.178L168.048 114.914L167.807 114.935V115.178H168.071ZM168.071 108.821H167.807V109.109L168.093 109.085L168.071 108.821ZM155.439 125.266H155.176V125.43L155.321 125.503L155.439 125.266ZM174.386 101.911L174.364 101.647L174.386 101.911ZM174.386 91.8233L174.504 91.5864L174.438 91.553L174.364 91.5595L174.386 91.8233ZM155.439 99.8379L155.416 99.5741L155.176 99.5955V99.8379H155.439ZM161.755 92.9284L161.732 92.6644L161.492 92.6856V92.9284H161.755ZM180.702 126.785L180.585 127.021L180.651 127.055L180.725 127.048L180.702 126.785ZM174.386 123.607H174.123V123.77L174.269 123.843L174.386 123.607ZM161.778 128.708L168.093 128.156L168.048 127.628L161.732 128.18L161.778 128.708ZM168.093 96.3705L180.725 95.2649L180.679 94.7371L168.048 95.8427L168.093 96.3705ZM180.439 101.358V107.715H180.965V101.358H180.439ZM180.725 107.979L187.041 107.426L186.995 106.898L180.679 107.451L180.725 107.979ZM180.725 114.336L187.041 113.783L186.995 113.255L180.679 113.808L180.725 114.336ZM186.755 100.805V107.162H187.281V100.805H186.755ZM180.725 101.622L187.041 101.069L186.995 100.541L180.679 101.094L180.725 101.622ZM186.755 113.519V126.233H187.281V113.519H186.755ZM168.093 109.085L180.725 107.979L180.679 107.451L168.048 108.557L168.093 109.085ZM155.321 125.503L161.637 128.681L161.872 128.207L155.557 125.029L155.321 125.503ZM180.439 107.715V110.256H180.965V107.715H180.439ZM180.439 110.256V114.072H180.965V110.256H180.439ZM187.137 113.284L180.821 110.021L180.583 110.492L186.899 113.755L187.137 113.284ZM180.439 95.0009V97.6306H180.965V95.0009H180.439ZM180.439 97.6306V101.358H180.965V97.6306H180.439ZM187.135 100.568L180.82 97.3937L180.585 97.8676L186.9 101.042L187.135 100.568ZM180.82 107.478L174.504 104.3L174.269 104.774L180.585 107.952L180.82 107.478ZM168.093 102.728L174.409 102.175L174.364 101.647L168.048 102.2L168.093 102.728ZM174.409 102.175L180.725 101.622L180.679 101.094L174.364 101.647L174.409 102.175ZM174.649 104.537V101.911H174.123V104.537H174.649ZM168.334 108.821V105.283H167.807V108.821H168.334ZM168.334 105.283V102.464H167.807V105.283H168.334ZM174.356 104.274L168.04 105.02L168.101 105.546L174.417 104.8L174.356 104.274ZM168.093 115.442L174.409 114.889L174.364 114.361L168.048 114.914L168.093 115.442ZM174.409 114.889L180.725 114.336L180.679 113.808L174.364 114.361L174.409 114.889ZM180.82 94.7641L174.504 91.5864L174.269 92.0603L180.585 95.2379L180.82 94.7641ZM167.807 115.178V127.892H168.334V115.178H167.807ZM167.807 96.1065V102.464H168.334V96.1065H167.807ZM161.492 103.016V128.444H162.018V103.016H161.492ZM161.778 103.28L168.093 102.728L168.048 102.2L161.732 102.752L161.778 103.28ZM168.189 102.227L161.873 99.0373L161.637 99.5109L167.952 102.7L168.189 102.227ZM155.176 99.8379V125.266H155.702V99.8379H155.176ZM161.872 102.779L155.557 99.6009L155.321 100.075L161.637 103.253L161.872 102.779ZM161.731 99.0103L155.416 99.5741L155.462 100.102L161.778 99.5379L161.731 99.0103ZM174.364 91.5595L161.732 92.6644L161.778 93.1922L174.409 92.0871L174.364 91.5595ZM168.188 95.8697L161.872 92.6914L161.637 93.1652L167.953 96.3435L168.188 95.8697ZM161.492 92.9284V99.2741H162.018V92.9284H161.492ZM186.995 125.969L180.679 126.521L180.725 127.048L187.041 126.497L186.995 125.969ZM180.965 126.785V114.072H180.439V126.785H180.965ZM180.82 126.548L174.504 123.37L174.269 123.843L180.585 127.021L180.82 126.548ZM174.649 123.607V114.625H174.123V123.607H174.649Z" fill="white"/>
<path fill-rule="evenodd" clip-rule="evenodd" d="M45.2632 113.363V107.006L20 109.217V115.574L23.1579 115.298L29.4737 114.745V140.173L35.7895 139.62V114.192L45.2632 113.363Z" fill="white"/>
<path d="M19.9998 115.574L19.8821 115.811L19.9486 115.844L20.0227 115.838L19.9998 115.574ZM45.263 107.006H45.5262V106.842L45.3806 106.769L45.263 107.006ZM45.263 113.363L45.2858 113.627L45.5262 113.606V113.363H45.263ZM29.4735 114.745H29.7367V114.456L29.4507 114.481L29.4735 114.745ZM29.4735 140.173L29.3558 140.41L29.4223 140.443L29.4963 140.437L29.4735 140.173ZM35.7893 114.192L35.7665 113.928L35.5262 113.949V114.192H35.7893ZM35.7893 139.62L35.8121 139.884L36.0525 139.863V139.62H35.7893ZM23.1577 136.993H22.8946V137.157L23.04 137.23L23.1577 136.993ZM13.6841 106.038L13.6613 105.774L13.4209 105.796V106.038H13.6841ZM13.6841 112.395H13.4209V112.559L13.5664 112.632L13.6841 112.395ZM38.9472 103.831L39.0648 103.594L38.9984 103.561L38.9244 103.567L38.9472 103.831ZM20.0227 109.481L45.2858 107.27L45.2402 106.742L19.977 108.953L20.0227 109.481ZM44.9998 107.006V113.363H45.5262V107.006H44.9998ZM19.7367 109.217V115.574H20.263V109.217H19.7367ZM29.2104 114.745V140.173H29.7367V114.745H29.2104ZM35.8121 114.456L45.2858 113.627L45.2402 113.099L35.7665 113.928L35.8121 114.456ZM29.4963 140.437L35.8121 139.884L35.7665 139.356L29.4507 139.909L29.4963 140.437ZM35.5262 114.192V139.62H36.0525V114.192H35.5262ZM29.5912 139.936L23.2755 136.756L23.04 137.23L29.3558 140.41L29.5912 139.936ZM20.0227 115.838L23.1805 115.561L23.1349 115.033L19.977 115.31L20.0227 115.838ZM23.1805 115.561L29.4963 115.009L29.4507 114.481L23.1349 115.033L23.1805 115.561ZM23.4209 136.993V115.297H22.8946V136.993H23.4209ZM20.1176 108.98L13.8017 105.801L13.5664 106.275L19.8821 109.454L20.1176 108.98ZM13.4209 106.038V112.395H13.9472V106.038H13.4209ZM20.1176 115.337L13.8017 112.158L13.5664 112.632L19.8821 115.811L20.1176 115.337ZM45.3806 106.769L39.0648 103.594L38.8297 104.068L45.1455 107.243L45.3806 106.769ZM38.9244 103.567L13.6613 105.774L13.7068 106.302L38.97 104.095L38.9244 103.567Z" fill="white"/>
<path fill-rule="evenodd" clip-rule="evenodd" d="M111.578 88.1805L105.263 88.7332V56.9481L130.526 54.7408V61.094L111.578 62.7524V65.3948V69.1094L124.21 68.0039V74.3609L111.578 75.4664V78.1087V81.8235L130.526 80.165V86.5259L124.21 87.0749L111.578 88.1805Z" fill="white"/>
<path d="M105.263 56.9482L98.9473 53.7697M105.263 56.9482L130.526 54.7409M105.263 56.9482V88.7332M105.263 88.7332L111.579 88.1805L124.21 87.0749L130.526 86.5259V80.165M105.263 88.7332L98.9473 85.5547V53.7697M124.21 68.0039L111.579 69.1095V65.3949M124.21 68.0039L117.895 64.8415L111.579 65.3949M124.21 68.0039V74.3609L111.579 75.4665V78.1087M130.526 80.165L111.579 81.8235V78.1087M130.526 80.165L124.21 76.9904L111.579 78.1087M98.9473 53.7697L124.21 51.5624L130.526 54.7409M111.579 65.3949V62.7525L130.526 61.094V54.7409" stroke="white" stroke-width="0.529751"/>
<path fill-rule="evenodd" clip-rule="evenodd" d="M139.825 130.384L133.509 130.937V99.1516L158.772 96.9443V103.297L139.825 104.956V107.598V111.313L152.456 110.207V116.564L139.825 117.67V120.312V124.027L158.772 122.368V128.729L152.456 129.278L139.825 130.384Z" fill="white"/>
<path d="M133.509 99.1517L127.193 95.9732M133.509 99.1517L158.772 96.9444M133.509 99.1517V130.937M133.509 130.937L139.825 130.384L152.457 129.278L158.772 128.729V122.369M133.509 130.937L127.193 127.758V95.9732M152.457 110.207L139.825 111.313V107.598M152.457 110.207L146.141 107.045L139.825 107.598M152.457 110.207V116.564L139.825 117.67V120.312M158.772 122.369L139.825 124.027V120.312M158.772 122.369L152.457 119.194L139.825 120.312M127.193 95.9732L152.457 93.7659L158.772 96.9444M139.825 107.598V104.956L158.772 103.297V96.9444" stroke="white" stroke-width="0.529751"/>
<path fill-rule="evenodd" clip-rule="evenodd" d="M102.105 63.831V57.474L76.8418 59.6852V66.0422L79.9997 65.7658L86.3155 65.2129V90.641L92.6313 90.0883V64.6602L102.105 63.831Z" fill="white"/>
<path d="M76.8416 66.0422L76.7239 66.2792L76.7904 66.3126L76.8645 66.306L76.8416 66.0422ZM102.105 57.474H102.368V57.3103L102.222 57.237L102.105 57.474ZM102.105 63.831L102.128 64.095L102.368 64.074V63.831H102.105ZM86.3153 65.213H86.5785V64.9241L86.2925 64.9492L86.3153 65.213ZM86.3153 90.641L86.1976 90.878L86.2641 90.9113L86.3381 90.905L86.3153 90.641ZM92.6311 64.6603L92.6083 64.3964L92.368 64.4175V64.6603H92.6311ZM92.6311 90.0883L92.6539 90.3521L92.8943 90.3311V90.0883H92.6311ZM79.9995 87.4618H79.7364V87.6255L79.8818 87.6988L79.9995 87.4618ZM70.5259 56.5067L70.503 56.2429L70.2627 56.2639V56.5067H70.5259ZM70.5259 62.8637H70.2627V63.0274L70.4081 63.1007L70.5259 62.8637ZM95.789 54.2994L95.9066 54.0624L95.8402 54.0291L95.7662 54.0356L95.789 54.2994ZM76.8645 59.949L102.128 57.738L102.082 57.2102L76.8188 59.4214L76.8645 59.949ZM101.842 57.474V63.831H102.368V57.474H101.842ZM76.5785 59.6852V66.0422H77.1048V59.6852H76.5785ZM86.0522 65.213V90.641H86.5785V65.213H86.0522ZM92.6539 64.9241L102.128 64.095L102.082 63.5672L92.6083 64.3964L92.6539 64.9241ZM86.3381 90.905L92.6539 90.3521L92.6083 89.8245L86.2925 90.3772L86.3381 90.905ZM92.368 64.6603V90.0883H92.8943V64.6603H92.368ZM86.433 90.4042L80.1173 87.2248L79.8818 87.6988L86.1976 90.878L86.433 90.4042ZM76.8645 66.306L80.0223 66.0297L79.9767 65.5019L76.8188 65.7784L76.8645 66.306ZM80.0223 66.0297L86.3381 65.477L86.2925 64.9492L79.9767 65.5019L80.0223 66.0297ZM80.2627 87.4618V65.7659H79.7364V87.4618H80.2627ZM76.9594 59.4482L70.6436 56.2697L70.4081 56.7437L76.7239 59.9222L76.9594 59.4482ZM70.2627 56.5067V62.8637H70.789V56.5067H70.2627ZM76.9594 65.8052L70.6436 62.6267L70.4081 63.1007L76.7239 66.2792L76.9594 65.8052ZM102.222 57.237L95.9066 54.0624L95.6715 54.5364L101.987 57.711L102.222 57.237ZM95.7662 54.0356L70.503 56.2429L70.5487 56.7705L95.8118 54.5632L95.7662 54.0356Z" fill="white"/>
<path fill-rule="evenodd" clip-rule="evenodd" d="M54.7367 61.693V70.6728V74.407L67.3683 73.3014V60.5874L73.6841 60.0345V79.1056L64.2104 79.9348V92.6488L57.8946 93.2015V80.4875L51.5788 81.0404L48.4209 81.3167V71.2333V62.2457L54.7367 61.693Z" fill="white"/>
<path d="M48.4207 81.3168L48.303 81.5537L48.3695 81.5871L48.4436 81.5806L48.4207 81.3168ZM42.105 59.0672L42.0823 58.8034L41.8418 58.8243V59.0672H42.105ZM54.7365 61.693H54.9997V61.5292L54.8541 61.4559L54.7365 61.693ZM54.7365 74.4071H54.4734V74.6959L54.7593 74.6709L54.7365 74.4071ZM67.3681 73.3015L67.3909 73.5653L67.6313 73.5443V73.3015H67.3681ZM73.6839 60.0346H73.9471V59.8709L73.8014 59.7976L73.6839 60.0346ZM73.6839 79.1056L73.7067 79.3696L73.9471 79.3484V79.1056H73.6839ZM57.8944 80.4875L57.8716 80.2237L57.8944 80.4875ZM57.8944 93.2015L57.7769 93.4385L57.8432 93.4719L57.9172 93.4655L57.8944 93.2015ZM64.2102 92.6488L64.233 92.9127L64.4734 92.8916V92.6488H64.2102ZM42.105 78.1383H41.8418V78.302L41.9872 78.3752L42.105 78.1383ZM51.5786 90.0259H51.3155V90.1896L51.4611 90.2628L51.5786 90.0259ZM61.0523 57.4074L61.0297 57.1435L60.7892 57.1644V57.4074H61.0523ZM48.4207 58.5195L48.5383 58.2825L48.472 58.2493L48.3981 58.2557L48.4207 58.5195ZM67.3681 56.8599L67.4857 56.623L67.4193 56.5896L67.3455 56.5961L67.3681 56.8599ZM41.9872 59.3042L48.303 62.4827L48.5385 62.0088L42.2227 58.8303L41.9872 59.3042ZM48.4436 62.5096L54.7593 61.9569L54.7137 61.429L48.3979 61.9819L48.4436 62.5096ZM54.4734 61.693V74.4071H54.9997V61.693H54.4734ZM54.7593 74.6709L67.3909 73.5653L67.3453 73.0375L54.7137 74.1431L54.7593 74.6709ZM67.105 60.5875V73.3015H67.6313V60.5875H67.105ZM67.3909 60.8513L73.7067 60.2986L73.6611 59.7708L67.3453 60.3235L67.3909 60.8513ZM73.4207 60.0346V79.1056H73.9471V60.0346H73.4207ZM57.6313 80.4875V93.2015H58.1576V80.4875H57.6313ZM57.9172 80.7515L64.233 80.1986L64.1874 79.671L57.8716 80.2237L57.9172 80.7515ZM64.233 80.1986L73.7067 79.3696L73.6611 78.8418L64.1874 79.671L64.233 80.1986ZM57.9172 93.4655L64.233 92.9127L64.1874 92.385L57.8716 92.9377L57.9172 93.4655ZM63.9471 79.9348V92.6488H64.4734V79.9348H63.9471ZM48.5385 81.0798L42.2227 77.9013L41.9872 78.3752L48.303 81.5537L48.5385 81.0798ZM42.3681 78.1383V59.0672H41.8418V78.1383H42.3681ZM58.012 92.9646L51.6962 89.7889L51.4611 90.2628L57.7769 93.4385L58.012 92.9646ZM48.4436 81.5806L51.6014 81.3042L51.5558 80.7764L48.3979 81.053L48.4436 81.5806ZM51.6014 81.3042L57.9172 80.7515L57.8716 80.2237L51.5558 80.7764L51.6014 81.3042ZM51.8418 90.0259V81.0404H51.3155V90.0259H51.8418ZM67.4862 73.0647L61.1704 69.8757L60.9343 70.3493L67.25 73.5381L67.4862 73.0647ZM67.4858 60.3505L61.17 57.1706L60.9346 57.6443L67.2504 60.8243L67.4858 60.3505ZM60.7892 57.4074V70.1125H61.3155V57.4074H60.7892ZM54.8541 61.4559L48.5383 58.2825L48.3032 58.7566L54.619 61.93L54.8541 61.4559ZM73.8014 59.7976L67.4857 56.623L67.2506 57.0969L73.5664 60.2715L73.8014 59.7976ZM67.3455 56.5961L61.0297 57.1435L61.075 57.6714L67.3907 57.1238L67.3455 56.5961ZM48.3981 58.2557L42.0823 58.8034L42.1276 59.3311L48.4434 58.7835L48.3981 58.2557ZM48.1576 62.2457V71.2333H48.6839V62.2457H48.1576ZM48.1576 71.2333V81.3168H48.6839V71.2333H48.1576ZM61.0292 69.8487L54.7134 70.409L54.7597 70.9368L61.0755 70.3764L61.0292 69.8487ZM54.4734 61.693V70.6728H54.9997V61.693H54.4734ZM54.4734 70.6728V74.4071H54.9997V70.6728H54.4734Z" fill="white"/>
<path d="M20 64.7862V96.5712L26.3158 96.0183L38.9474 94.9127V88.5557L26.3158 89.6613V86.1528V83.3043L32.6316 82.7516L38.9474 82.1987V78.3831V75.8417L26.3158 76.9473V73.4094V70.5903L32.6316 70.0376L38.9474 69.4847V65.7574V63.1277L26.3158 64.2333L20 64.7862Z" fill="white"/>
<path d="M38.9473 69.4847V75.8417L45.2631 75.289V68.932L38.9473 69.4847Z" fill="white"/>
<path d="M38.9473 82.1987V88.5557L45.2631 88.003V81.646L38.9473 82.1987Z" fill="white"/>
<path d="M19.9998 96.5712L19.8821 96.808L19.9486 96.8415L20.0227 96.835L19.9998 96.5712ZM26.3156 64.2332L26.3384 64.4972L26.3156 64.2332ZM38.9472 63.1277H39.2104V62.964L39.0649 62.8909L38.9472 63.1277ZM38.9472 94.9127L38.97 95.1767L39.2104 95.1557V94.9127H38.9472ZM45.263 75.289L45.2858 75.5528L45.5262 75.5318V75.289H45.263ZM45.263 81.646H45.5262V81.4842L45.3832 81.4102L45.263 81.646ZM45.263 68.932H45.5262V68.7681L45.3806 68.695L45.263 68.932ZM45.263 88.003L45.2858 88.2668L45.5262 88.2458V88.003H45.263ZM26.3156 83.3043L26.2928 83.0404L26.0525 83.0615V83.3043H26.3156ZM26.3156 89.6613H26.0525V89.9502L26.3384 89.9253L26.3156 89.6613ZM26.3156 76.9473H26.0525V77.2361L26.3384 77.2113L26.3156 76.9473ZM26.3156 70.5903L26.2928 70.3264L26.0525 70.3475V70.5903H26.3156ZM13.6841 61.6076L13.6613 61.3436L13.4209 61.3646V61.6076H13.6841ZM13.6841 93.3927H13.4209V93.5564L13.5664 93.6295L13.6841 93.3927ZM32.6314 70.0375L32.6086 69.7736L32.6314 70.0375ZM32.6314 59.95L32.7491 59.7131L32.6827 59.6797L32.6086 59.6862L32.6314 59.95ZM19.7367 64.7861V96.5712H20.263V64.7861H19.7367ZM20.0227 96.835L26.3384 96.2823L26.2928 95.7545L19.977 96.3072L20.0227 96.835ZM20.0227 65.0499L26.3384 64.4972L26.2928 63.9694L19.977 64.5221L20.0227 65.0499ZM26.3384 64.4972L38.97 63.3916L38.9244 62.8638L26.2928 63.9694L26.3384 64.4972ZM26.3384 96.2823L38.97 95.1767L38.9244 94.6489L26.2928 95.7545L26.3384 96.2823ZM38.6841 88.5557V94.9127H39.2104V88.5557H38.6841ZM38.6841 69.4847V75.8417H39.2104V69.4847H38.6841ZM38.97 76.1057L45.2858 75.5528L45.2402 75.0251L38.9244 75.5779L38.97 76.1057ZM38.6841 82.1987V88.5557H39.2104V82.1987H38.6841ZM38.97 82.4627L45.2858 81.9098L45.2402 81.3822L38.9244 81.9349L38.97 82.4627ZM44.9998 68.932V75.289H45.5262V68.932H44.9998ZM38.97 69.7487L45.2858 69.1958L45.2402 68.6681L38.9244 69.2208L38.97 69.7487ZM44.9998 81.646V88.003H45.5262V81.646H44.9998ZM38.97 88.8197L45.2858 88.2668L45.2402 87.7392L38.9244 88.2919L38.97 88.8197ZM26.3384 77.2113L38.97 76.1057L38.9244 75.5779L26.2928 76.6834L26.3384 77.2113ZM26.3384 89.9253L38.97 88.8197L38.9244 88.2919L26.2928 89.3975L26.3384 89.9253ZM20.1176 64.5492L13.8017 61.3707L13.5664 61.8444L19.8821 65.0229L20.1176 64.5492ZM13.4209 61.6076V93.3927H13.9472V61.6076H13.4209ZM13.5664 93.6295L19.8821 96.808L20.1176 96.3342L13.8017 93.1557L13.5664 93.6295ZM38.6841 75.8417V78.3831H39.2104V75.8417H38.6841ZM38.6841 78.3831V82.1987H39.2104V78.3831H38.6841ZM45.3832 81.4102L39.0674 78.1473L38.827 78.6186L45.1428 81.8815L45.3832 81.4102ZM38.6841 63.1277V65.7573H39.2104V63.1277H38.6841ZM38.6841 65.7573V69.4847H39.2104V65.7573H38.6841ZM45.3806 68.695L39.0648 65.5204L38.8297 65.9943L45.1455 69.1689L45.3806 68.695ZM39.0649 75.6049L32.7491 72.4264L32.5137 72.9003L38.8295 76.0786L39.0649 75.6049ZM26.3384 70.8542L32.6542 70.3014L32.6086 69.7736L26.2928 70.3264L26.3384 70.8542ZM32.6542 70.3014L38.97 69.7487L38.9244 69.2208L32.6086 69.7736L32.6542 70.3014ZM32.8946 72.6633V70.0375H32.3683V72.6633H32.8946ZM26.5788 76.9473V73.4094H26.0525V76.9473H26.5788ZM26.5788 73.4094V70.5903H26.0525V73.4094H26.5788ZM32.6007 72.4002L26.2849 73.1463L26.3463 73.6725L32.6621 72.9265L32.6007 72.4002ZM39.0649 88.3189L32.7491 85.1377L32.5137 85.6115L38.8295 88.7927L39.0649 88.3189ZM26.3384 83.5683L32.6542 83.0154L32.6086 82.4876L26.2928 83.0404L26.3384 83.5683ZM32.6542 83.0154L38.97 82.4627L38.9244 81.9349L32.6086 82.4876L32.6542 83.0154ZM32.8946 85.3745V82.7516H32.3683V85.3745H32.8946ZM26.5788 89.6613V86.1527H26.0525V89.6613H26.5788ZM26.5788 86.1527V83.3043H26.0525V86.1527H26.5788ZM32.5995 85.1118L26.2837 85.8898L26.3476 86.4157L32.6634 85.6375L32.5995 85.1118ZM39.0649 62.8909L32.7491 59.7131L32.5137 60.187L38.8295 63.3646L39.0649 62.8909ZM32.6086 59.6862L13.6613 61.3436L13.7068 61.8714L32.6542 60.2139L32.6086 59.6862Z" fill="white"/>
</svg>
