<svg width="32" height="32" viewBox="0 0 32 32" fill="none" xmlns="http://www.w3.org/2000/svg">
<path d="M24.5 8.5C22.3913 8.5 20.4862 9.37 19.1238 10.7706L17.3075 12.6375L19.2712 14.6556L21.1413 12.7331C21.9931 11.8575 23.1844 11.3125 24.5 11.3125C27.0844 11.3125 29.1875 13.4156 29.1875 16.0006C29.1875 18.585 27.0844 20.6881 24.5 20.6881C23.1844 20.6881 21.9931 20.1431 21.1413 19.2669C13.7952 11.7154 12.8871 10.7818 12.8763 10.7706C11.5138 9.37 9.60875 8.5 7.5 8.5C3.35813 8.5 0 11.8581 0 16.0006C0 20.1425 3.35813 23.5006 7.5 23.5006C9.60875 23.5006 11.5138 22.6306 12.8763 21.23L14.6925 19.3631L12.7288 17.345L10.8588 19.2669C10.0069 20.1431 8.81563 20.6881 7.5 20.6881C4.91563 20.6881 2.8125 18.585 2.8125 16.0006C2.8125 13.4156 4.91563 11.3125 7.5 11.3125C8.81563 11.3125 10.0069 11.8575 10.8588 12.7331C11.1807 13.0641 19.0465 21.1506 19.1238 21.23C20.4862 22.6306 22.3913 23.5006 24.5 23.5006C28.6419 23.5006 32 20.1425 32 16.0006C32 11.8581 28.6419 8.5 24.5 8.5Z" fill="white"/>
</svg>
