<svg width="32" height="32" viewBox="0 0 32 32" fill="none" xmlns="http://www.w3.org/2000/svg">
<path d="M15.9997 1.33301C13.0989 1.33301 10.2632 2.19319 7.85132 3.80479C5.4394 5.41638 3.55953 7.707 2.44945 10.387C1.33936 13.067 1.04891 16.0159 1.61483 18.861C2.18075 21.7061 3.57761 24.3194 5.62878 26.3706C7.67995 28.4217 10.2933 29.8186 13.1384 30.3845C15.9834 30.9504 18.9324 30.66 21.6124 29.5499C24.2924 28.4398 26.583 26.56 28.1946 24.148C29.8062 21.7361 30.6663 18.9005 30.6663 15.9997C30.6618 12.1112 29.1151 8.38338 26.3655 5.63384C23.616 2.8843 19.8881 1.3376 15.9997 1.33301ZM15.9997 27.9997C13.6263 27.9997 11.3062 27.2959 9.33284 25.9773C7.35945 24.6587 5.82138 22.7846 4.91313 20.5919C4.00488 18.3992 3.76724 15.9864 4.23026 13.6586C4.69328 11.3308 5.83617 9.19262 7.5144 7.51439C9.19263 5.83616 11.3308 4.69327 13.6586 4.23025C15.9864 3.76723 18.3992 4.00487 20.5919 4.91312C22.7846 5.82137 24.6587 7.35944 25.9773 9.33283C27.2959 11.3062 27.9997 13.6263 27.9997 15.9997C27.9958 19.1811 26.7303 22.2311 24.4807 24.4807C22.2311 26.7303 19.1811 27.9958 15.9997 27.9997Z" fill="white"/>
<path d="M17.3337 15.4483V8.00033C17.3337 7.6467 17.1932 7.30757 16.9431 7.05752C16.6931 6.80747 16.3539 6.66699 16.0003 6.66699C15.6467 6.66699 15.3076 6.80747 15.0575 7.05752C14.8075 7.30757 14.667 7.6467 14.667 8.00033V16.0003C14.6671 16.3539 14.8076 16.693 15.0577 16.943L19.0577 20.943C19.3091 21.1859 19.6459 21.3203 19.9955 21.3172C20.3451 21.3142 20.6795 21.174 20.9268 20.9268C21.174 20.6795 21.3142 20.3451 21.3172 19.9955C21.3203 19.6459 21.1859 19.3091 20.943 19.0577L17.3337 15.4483Z" fill="white"/>
</svg>
