<svg width="32" height="32" viewBox="0 0 32 32" fill="none" xmlns="http://www.w3.org/2000/svg">
<g clip-path="url(#clip0_581_11066)">
<path d="M16 0C7.16002 0 0 7.16002 0 16C0 24.8399 7.16002 31.9999 16 31.9999C24.8399 31.9999 32 24.84 32 16C32 7.15994 24.84 0 16 0ZM3.20002 16C3.20002 8.92799 8.92799 3.19995 16 3.19995C18.9601 3.19995 21.6721 4.21597 23.84 5.89597L5.89597 23.84C4.21597 21.672 3.20002 18.96 3.20002 16ZM16 28.8C13.0399 28.8 10.3279 27.784 8.15999 26.104L26.104 8.15999C27.784 10.328 28.8 13.04 28.8 16C28.8 23.072 23.072 28.8 16 28.8Z" fill="white"/>
</g>
<defs>
<clipPath id="clip0_581_11066">
<rect width="32" height="32" fill="white"/>
</clipPath>
</defs>
</svg>
