<svg width="270" height="152" viewBox="0 0 270 152" fill="none" xmlns="http://www.w3.org/2000/svg">
<g clip-path="url(#clip0_581_10766)">
<rect width="270" height="152" rx="12" fill="#514DF3" fill-opacity="0.05"/>
<g opacity="0.4">
<g style="mix-blend-mode:screen" opacity="0.49">
<path d="M2.47627 128.646H1.36426V208.315H2.47627V128.646Z" fill="#514DF3"/>
<path d="M4.99189 109.856H3.87988V222.567H4.99189V109.856Z" fill="#514DF3"/>
<path d="M7.48603 132.775H6.37402V202.825H7.48603V132.775Z" fill="#514DF3"/>
<path d="M9.99775 130.745H8.88574V203.931H9.99775V130.745Z" fill="#514DF3"/>
<path d="M12.5104 112.456H11.3984V221.482H12.5104V112.456Z" fill="#514DF3"/>
<path d="M14.9812 128.159H13.8691V206.003H14.9812V128.159Z" fill="#514DF3"/>
<path d="M17.488 123.187H16.376V210.82H17.488V123.187Z" fill="#514DF3"/>
<path d="M19.9919 132.276H18.8799V205.431H19.9919V132.276Z" fill="#514DF3"/>
<path d="M22.5183 104.229H21.4062V228.798H22.5183V104.229Z" fill="#514DF3"/>
<path d="M24.9948 119.103H23.8828V217.426H24.9948V119.103Z" fill="#514DF3"/>
<path d="M27.4968 118.283H26.3848V217.38H27.4968V118.283Z" fill="#514DF3"/>
<path d="M30.0222 107.979H28.9102V226.466H30.0222V107.979Z" fill="#514DF3"/>
<path d="M32.5124 121.583H31.4004V212.131H32.5124V121.583Z" fill="#514DF3"/>
<path d="M35.0339 115.359H33.9219V217.983H35.0339V115.359Z" fill="#514DF3"/>
<path d="M37.5319 108.865H36.4199V228.409H37.5319V108.865Z" fill="#514DF3"/>
<path d="M40.0378 106.09H38.9258V231.654H40.0378V106.09Z" fill="#514DF3"/>
<path d="M42.5407 131.761H41.4287V204.575H42.5407V131.761Z" fill="#514DF3"/>
<path d="M45.0231 132.245H43.9111V203.335H45.0231V132.245Z" fill="#514DF3"/>
<path d="M47.5212 134.542H46.4092V202.671H47.5212V134.542Z" fill="#514DF3"/>
<path d="M49.6306 108.485H48.5186V225.628H49.6306V108.485Z" fill="#514DF3"/>
<path d="M52.1228 115.86H51.0107V217.98H52.1228V115.86Z" fill="#514DF3"/>
<path d="M54.6198 135.934H53.5078V201.707H54.6198V135.934Z" fill="#514DF3"/>
<path d="M57.1325 125.016H56.0205V211.889H57.1325V125.016Z" fill="#514DF3"/>
<path d="M59.6149 112.342H58.5029V224.656H59.6149V112.342Z" fill="#514DF3"/>
<path d="M62.1413 134.916H61.0293V202.744H62.1413V134.916Z" fill="#514DF3"/>
<path d="M64.6345 123.416H63.5225V209.794H64.6345V123.416Z" fill="#514DF3"/>
<path d="M67.1335 108.866H66.0215V225.918H67.1335V108.866Z" fill="#514DF3"/>
<path d="M69.6198 110.274H68.5078V223.621H69.6198V110.274Z" fill="#514DF3"/>
<path d="M72.1491 115.5H71.0371V220.198H72.1491V115.5Z" fill="#514DF3"/>
<path d="M74.6247 135.713H73.5127V201.113H74.6247V135.713Z" fill="#514DF3"/>
<path d="M77.1247 105.358H76.0127V230.578H77.1247V105.358Z" fill="#514DF3"/>
<path d="M79.6374 113.283H78.5254V221.904H79.6374V113.283Z" fill="#514DF3"/>
<path d="M82.154 130.017H81.042V206.826H82.154V130.017Z" fill="#514DF3"/>
<path d="M84.6452 106.693H83.5332V201.668H84.6452V106.693Z" fill="#514DF3"/>
<path d="M87.1511 120.262H86.0391V191.432H87.1511V120.262Z" fill="#514DF3"/>
<path d="M89.6608 103.196H88.5488V208.677H89.6608V103.196Z" fill="#514DF3"/>
<path d="M92.1413 118.78H91.0293V189.21H92.1413V118.78Z" fill="#514DF3"/>
<path d="M94.6628 121.625H93.5508V186.023H94.6628V121.625Z" fill="#514DF3"/>
<path d="M97.154 122.792H96.042V187.596H97.154V122.792Z" fill="#514DF3"/>
<path d="M99.6589 99.707H98.5469V211.968H99.6589V99.707Z" fill="#514DF3"/>
<path d="M102.182 95.0459H101.07V216.88H102.182V95.0459Z" fill="#514DF3"/>
<path d="M104.672 92.3301H103.56V216.321H104.672V92.3301Z" fill="#514DF3"/>
<path d="M107.169 93.5576H106.057V212.788H107.169V93.5576Z" fill="#514DF3"/>
<path d="M109.663 112.429H108.551V195.701H109.663V112.429Z" fill="#514DF3"/>
<path d="M112.174 113.566H111.062V197.373H112.174V113.566Z" fill="#514DF3"/>
<path d="M114.688 114.104H113.576V197.254H114.688V114.104Z" fill="#514DF3"/>
<path d="M117.162 119.151H116.05V192.233H117.162V119.151Z" fill="#514DF3"/>
<path d="M119.685 93.3418H118.573V217.395H119.685V93.3418Z" fill="#514DF3"/>
<path d="M122.196 92.3711H121.084V217.414H122.196V92.3711Z" fill="#514DF3"/>
<path d="M124.678 102.088H123.566V205.43H124.678V102.088Z" fill="#514DF3"/>
<path d="M127.205 107.12H126.093V204.592H127.205V107.12Z" fill="#514DF3"/>
<path d="M129.709 110.133H128.597V198.722H129.709V110.133Z" fill="#514DF3"/>
<path d="M132.187 94.4707H131.075V214.386H132.187V94.4707Z" fill="#514DF3"/>
<path d="M134.69 102.951H133.578V203.788H134.69V102.951Z" fill="#514DF3"/>
<path d="M136.69 108.803H135.578V201.164H136.69V108.803Z" fill="#514DF3"/>
<path d="M139.174 91.3779H138.062V217.321H139.174V91.3779Z" fill="#514DF3"/>
<path d="M141.694 88.6143H140.582V212.615H141.694V88.6143Z" fill="#514DF3"/>
<path d="M144.179 102.939H143.067V196.843H144.179V102.939Z" fill="#514DF3"/>
<path d="M146.689 106.344H145.577V195.261H146.689V106.344Z" fill="#514DF3"/>
<path d="M149.187 95.833H148.075V206.671H149.187V95.833Z" fill="#514DF3"/>
<path d="M151.675 117.854H150.562V184.681H151.675V117.854Z" fill="#514DF3"/>
<path d="M154.178 95.8447H153.066V202.231H154.178V95.8447Z" fill="#514DF3"/>
<path d="M156.708 106.388H155.596V195.025H156.708V106.388Z" fill="#514DF3"/>
<path d="M159.187 109.327H158.075V192.063H159.187V109.327Z" fill="#514DF3"/>
<path d="M161.703 101.247H160.591V202.382H161.703V101.247Z" fill="#514DF3"/>
<path d="M164.194 101.376H163.082V199.613H164.194V101.376Z" fill="#514DF3"/>
<path d="M166.69 116.396H165.578V186.104H166.69V116.396Z" fill="#514DF3"/>
<path d="M169.192 115.532H168.08V184.524H169.192V115.532Z" fill="#514DF3"/>
<path d="M171.697 91.9814H170.585V210.148H171.697V91.9814Z" fill="#514DF3"/>
<path d="M174.197 96.2021H173.085V206.238H174.197V96.2021Z" fill="#514DF3"/>
<path d="M176.72 97.3711H175.608V200.883H176.72V97.3711Z" fill="#514DF3"/>
<path d="M179.222 103.975H178.11V197.432H179.222V103.975Z" fill="#514DF3"/>
<path d="M181.708 91.2393H180.596V211.567H181.708V91.2393Z" fill="#514DF3"/>
<path d="M184.212 84.9385H183.1V188.562H184.212V84.9385Z" fill="#514DF3"/>
<path d="M186.733 62.9365H185.621V204.341H186.733V62.9365Z" fill="#514DF3"/>
<path d="M189.24 91.8438H188.128V177.329H189.24V91.8438Z" fill="#514DF3"/>
<path d="M191.739 82.3467H190.627V189.294H191.739V82.3467Z" fill="#514DF3"/>
<path d="M194.229 65.7412H193.117V208.275H194.229V65.7412Z" fill="#514DF3"/>
<path d="M196.721 67.9326H195.609V202.711H196.721V67.9326Z" fill="#514DF3"/>
<path d="M199.219 59.8936H198.107V214.476H199.219V59.8936Z" fill="#514DF3"/>
<path d="M201.753 88.1025H200.641V183.848H201.753V88.1025Z" fill="#514DF3"/>
<path d="M204.249 79.0488H203.137V194.885H204.249V79.0488Z" fill="#514DF3"/>
<path d="M206.75 79.1904H205.638V190.968H206.75V79.1904Z" fill="#514DF3"/>
<path d="M209.251 61.1074H208.139V208.509H209.251V61.1074Z" fill="#514DF3"/>
<path d="M211.757 75.0996H210.645V193.645H211.757V75.0996Z" fill="#514DF3"/>
<path d="M214.24 65.0547H213.128V208.066H214.24V65.0547Z" fill="#514DF3"/>
<path d="M216.764 69.2568H215.652V202.392H216.764V69.2568Z" fill="#514DF3"/>
<path d="M219.27 82.2197H218.158V188.579H219.27V82.2197Z" fill="#514DF3"/>
<path d="M221.751 90.6641H220.639V181.957H221.751V90.6641Z" fill="#514DF3"/>
<path d="M223.85 96.0908H222.738V175.501H223.85V96.0908Z" fill="#514DF3"/>
<path d="M226.35 75.0654H225.238V196.749H226.35V75.0654Z" fill="#514DF3"/>
<path d="M228.86 61.8359H227.748V208.31H228.86V61.8359Z" fill="#514DF3"/>
<path d="M231.349 93.7451H230.237V177.501H231.349V93.7451Z" fill="#514DF3"/>
<path d="M233.86 66.6006H232.748V206.034H233.86V66.6006Z" fill="#514DF3"/>
<path d="M236.367 77.1455H235.255V196.495H236.367V77.1455Z" fill="#514DF3"/>
<path d="M238.869 67.6006H237.757V203.533H238.869V67.6006Z" fill="#514DF3"/>
<path d="M241.362 81.5439H240.25V189.459H241.362V81.5439Z" fill="#514DF3"/>
<path d="M243.863 67.1172H242.751V201.386H243.863V67.1172Z" fill="#514DF3"/>
<path d="M246.348 79.3955H245.236V188.556H246.348V79.3955Z" fill="#514DF3"/>
<path d="M248.869 60.8926H247.757V212.88H248.869V60.8926Z" fill="#514DF3"/>
<path d="M251.382 84.7256H250.27V186.468H251.382V84.7256Z" fill="#514DF3"/>
<path d="M253.869 76.6885H252.757V196.944H253.869V76.6885Z" fill="#514DF3"/>
<path d="M256.368 80.0381H255.256V189.222H256.368V80.0381Z" fill="#514DF3"/>
<path d="M258.873 68.8066H257.761V204.527H258.873V68.8066Z" fill="#514DF3"/>
<path d="M261.371 87.8457H260.259V184.094H261.371V87.8457Z" fill="#514DF3"/>
<path d="M263.865 94.2266H262.753V178.751H263.865V94.2266Z" fill="#514DF3"/>
<path d="M266.391 78.1855H265.279V196.316H266.391V78.1855Z" fill="#514DF3"/>
<path d="M268.881 94.0781H267.769V178.159H268.881V94.0781Z" fill="#514DF3"/>
</g>
</g>
</g>
<defs>
<clipPath id="clip0_581_10766">
<rect width="270" height="152" rx="12" fill="white"/>
</clipPath>
</defs>
</svg>
