<svg width="32" height="32" viewBox="0 0 32 32" fill="none" xmlns="http://www.w3.org/2000/svg">
<path d="M1.50004 10.8H26.5909L24.4969 12.7604L24.4998 12.7651C24.1953 13.0506 23.9998 13.4598 23.9998 13.9204C23.9998 14.7821 24.6712 15.4804 25.4998 15.4804C25.8853 15.4804 26.2337 15.3249 26.4998 15.0758L26.5033 15.08L31.5033 10.4L31.4998 10.3953C31.8042 10.1098 31.9998 9.70007 31.9998 9.23997C31.9998 8.77988 31.8042 8.36988 31.4998 8.08462L31.5033 8.08045L26.5033 3.40045L26.4998 3.40463C26.2337 3.156 25.8853 3 25.4998 3C24.6712 3 23.9998 3.69829 23.9998 4.56C23.9998 5.02011 24.1953 5.43009 24.4998 5.71535L24.4962 5.71953L26.5908 7.67996H1.5C0.671428 7.67996 0 8.37824 0 9.23996C0 10.1017 0.671428 10.8 1.5 10.8L1.50004 10.8ZM30.5 21.2H5.40918L7.50358 19.2396L7.50023 19.2361C7.80514 18.9501 8.00023 18.5408 8.00023 18.08C8.00023 17.2183 7.3288 16.52 6.50023 16.52C6.11429 16.52 5.76629 16.676 5.50023 16.9239L5.49666 16.9198L0.496663 21.5998L0.500235 21.6039C0.195772 21.8906 0.000235421 22.2999 0.000235421 22.76C0.000235421 23.2201 0.195772 23.6294 0.500235 23.9161L0.496663 23.9196L5.49666 28.5996L5.50023 28.5961C5.7663 28.8445 6.11474 29 6.50023 29C7.3288 29 8.00023 28.3017 8.00023 27.44C8.00023 26.9799 7.80469 26.5699 7.50023 26.2839L7.5038 26.2798L5.40917 24.32H30.5C31.3286 24.32 32 23.6217 32 22.76C32 21.8983 31.3286 21.2 30.5 21.2L30.5 21.2Z" fill="white"/>
</svg>
